<?xml version="1.0" standalone="no"?>
<!DOCTYPE svg PUBLIC "-//W3C//DTD SVG 1.1//EN" "http://www.w3.org/Graphics/SVG/1.1/DTD/svg11.dtd" >
<svg xmlns="http://www.w3.org/2000/svg">
<metadata></metadata>
<defs>
<font id="srg_ssr_typeregular" horiz-adv-x="387" >
<font-face units-per-em="1000" ascent="800" descent="-200" />
<missing-glyph horiz-adv-x="206" />
<glyph unicode="ff" horiz-adv-x="668" d="M413 433h-225v-433h-88v433h-73v72h73v69q0 78 36.5 117t116.5 39q45 0 74 -6.5t33 -7.5l-11 -68q-5 1 -26.5 5.5t-54.5 4.5q-25 0 -40.5 -6.5t-24.5 -18.5t-12 -29t-3 -39v-60h225v69q0 78 36.5 117t116.5 39q45 0 74 -6.5t33 -7.5l-11 -68q-5 1 -26.5 5.5t-54.5 4.5 q-25 0 -40.5 -6.5t-24.5 -18.5t-12 -29t-3 -39v-60h152v-72h-152v-433h-88v433z" />
<glyph unicode="fi" horiz-adv-x="566" d="M401 433h-213v-433h-88v433h-73v72h73v69q0 78 36.5 117t116.5 39q35 0 61 -4.5t28 -5.5l-11 -68q-2 0 -20 3t-43 3t-40.5 -6.5t-24.5 -18.5t-12 -29t-3 -39v-60h302v-505h-89v433zM399 690h93v-94h-93v94z" />
<glyph unicode="fl" horiz-adv-x="563" d="M401 725h89v-725h-89v725zM331 652q-2 0 -20 3t-43 3t-40.5 -6.5t-24.5 -18.5t-12 -29t-3 -39v-60h152v-72h-152v-433h-88v433h-73v72h73v69q0 78 36.5 117t116.5 39q35 0 61 -4.5t28 -5.5z" />
<glyph unicode="ffi" horiz-adv-x="869" d="M413 574q0 78 36.5 117t116.5 39q35 0 61 -4.5t28 -5.5l-11 -68q-2 0 -20 3t-43 3t-40.5 -6.5t-24.5 -18.5t-12 -29t-3 -39v-60h292v-505h-89v433h-203v-433h-88v433h-225v-433h-88v433h-73v72h73v69q0 78 36.5 117t116.5 39q45 0 74 -6.5t33 -7.5l-11 -68 q-5 1 -26.5 5.5t-54.5 4.5q-25 0 -40.5 -6.5t-24.5 -18.5t-12 -29t-3 -39v-60h225v69zM702 690h93v-94h-93v94z" />
<glyph unicode="ffl" horiz-adv-x="876" d="M714 725h89v-725h-89v725zM413 574q0 78 36.5 117t116.5 39q35 0 61 -4.5t28 -5.5l-11 -68q-2 0 -20 3t-43 3t-40.5 -6.5t-24.5 -18.5t-12 -29t-3 -39v-60h152v-72h-152v-433h-88v433h-225v-433h-88v433h-73v72h73v69q0 78 36.5 117t116.5 39q45 0 74 -6.5t33 -7.5 l-11 -68q-5 1 -26.5 5.5t-54.5 4.5q-25 0 -40.5 -6.5t-24.5 -18.5t-12 -29t-3 -39v-60h225v69z" />
<glyph unicode=" "  horiz-adv-x="206" />
<glyph unicode="&#x09;" horiz-adv-x="206" />
<glyph unicode="&#xa0;" horiz-adv-x="206" />
<glyph unicode="!" horiz-adv-x="255" d="M168 178h-81l-12 495h105zM76 104h103v-104h-103v104z" />
<glyph unicode="&#x22;" horiz-adv-x="353" d="M135 657v-228h-85v228h85zM303 657v-228h-85v228h85z" />
<glyph unicode="#" horiz-adv-x="664" d="M102 495h115l36 162h83l-36 -162h145l36 162h82l-36 -162h92v-70h-107l-42 -190h92v-70h-107l-36 -165h-82l36 165h-145l-36 -165h-83l36 165h-100v70h115l42 190h-100v70zM242 235h145l42 190h-145z" />
<glyph unicode="$" horiz-adv-x="576" d="M319 668q73 -3 119.5 -13t54.5 -12l-14 -69q-3 1 -17 4.5t-35.5 7t-49.5 7t-58 4.5v-228l33 -7q93 -19 133 -63.5t40 -117.5q0 -92 -54.5 -137.5t-151.5 -51.5v-110h-64v108q-42 1 -78.5 5t-64 9t-43.5 9t-18 5l15 70q4 -2 24.5 -6.5t48.5 -9.5t59 -8.5t57 -3.5v237 l-36 9q-37 9 -67 23t-51 35.5t-32.5 51t-11.5 68.5q0 78 46.5 126.5t151.5 56.5v98h64v-97zM434 172q0 25 -6.5 43t-20 30.5t-35.5 21t-53 15.5v-220q63 2 89 30t26 80zM142 490q0 -48 28 -72t85 -35v213q-55 -4 -84 -27t-29 -79z" />
<glyph unicode="%" horiz-adv-x="883" d="M193 679q34 0 62.5 -10t49 -33t31.5 -60t11 -91t-11 -91.5t-31.5 -60.5t-49 -33.5t-62.5 -10.5q-35 0 -63 10.5t-48 33.5t-31 60.5t-11 91.5t11 91t31 60t48 33t63 10zM193 351q39 0 56.5 28.5t17.5 105.5t-17 105t-57 28q-38 0 -55.5 -28t-17.5 -105t17.5 -105.5 t55.5 -28.5zM689 385q34 0 62.5 -10t49 -33t31.5 -60t11 -91t-11 -91.5t-31.5 -60.5t-49 -33.5t-62.5 -10.5q-35 0 -63 10.5t-48 33.5t-31 60.5t-11 91.5t11 91t31 60t48 33t63 10zM689 57q39 0 56.5 28.5t17.5 105.5t-17 105t-57 28q-38 0 -55.5 -28t-17.5 -105 t17.5 -105.5t55.5 -28.5zM310 0h-85l348 673h85z" />
<glyph unicode="&#x26;" horiz-adv-x="669" d="M247 -13q-45 0 -83.5 11.5t-66.5 34.5t-44 58.5t-16 83.5q0 70 37 118t111 89q-25 32 -42 68.5t-17 80.5q0 33 10.5 61.5t32.5 49.5t55 33.5t78 12.5q36 0 65 -10.5t50 -29t32 -43.5t11 -55q0 -21 -5.5 -42.5t-22 -43t-46.5 -45t-80 -49.5l171 -195q23 27 40.5 54.5 t29.5 50.5t18.5 38.5t8.5 18.5l66 -26q-2 -6 -10 -25t-22.5 -45.5t-35 -58t-48.5 -62.5l106 -120h-111l-56 63q-43 -33 -96.5 -54.5t-119.5 -21.5zM259 63q47 0 86 15t71 39l-188 215q-47 -26 -72.5 -59.5t-25.5 -87.5q0 -60 34 -91t95 -31zM207 539q0 -32 16 -61.5 t38 -55.5q36 17 60 32.5t37.5 31t19 31.5t5.5 34q0 32 -20.5 53.5t-61.5 21.5q-49 0 -71.5 -24t-22.5 -63z" />
<glyph unicode="'" horiz-adv-x="185" d="M135 657v-228h-85v228h85z" />
<glyph unicode="(" horiz-adv-x="289" d="M67 325q0 110 35 203.5t106 179.5l60 -44q-30 -45 -50.5 -86.5t-33.5 -82.5t-19 -83t-6 -87q0 -89 25 -169t84 -169l-60 -44q-71 86 -106 179.5t-35 202.5z" />
<glyph unicode=")" horiz-adv-x="289" d="M222 325q0 -109 -35 -202.5t-106 -179.5l-60 44q59 89 84 169t25 169q0 45 -6 87t-19 83t-33.5 82.5t-50.5 86.5l60 44q71 -86 106 -179.5t35 -203.5z" />
<glyph unicode="*" horiz-adv-x="377" d="M120 366l-57 42l80 93l-107 35l28 66l95 -46l-6 117h70l-6 -117l96 46l28 -66l-107 -35l80 -93l-58 -42l-68 96z" />
<glyph unicode="+" horiz-adv-x="576" d="M77 366h171v183h80v-183h171v-77h-171v-178h-80v178h-171v77z" />
<glyph unicode="," horiz-adv-x="247" d="M75 114h106l-67 -225h-80z" />
<glyph unicode="-" horiz-adv-x="422" d="M56 330h309v-92h-309v92z" />
<glyph unicode="." horiz-adv-x="247" d="M66 114h115v-114h-115v114z" />
<glyph unicode="/" horiz-adv-x="368" d="M103 -31h-93l256 734h92z" />
<glyph unicode="0" horiz-adv-x="576" d="M288 673q59 0 104 -17t75 -57t45.5 -105.5t15.5 -162.5t-15.5 -163t-45.5 -106t-75 -57t-104 -17t-104 17t-75 57t-45.5 106t-15.5 163t15.5 162.5t45.5 105.5t75 57t104 17zM288 63q38 0 65.5 12t45 42.5t25.5 82t8 131.5q0 79 -8 130.5t-25.5 81.5t-45 42t-65.5 12 q-39 0 -66 -12t-44.5 -42t-25.5 -81.5t-8 -130.5q0 -80 8 -131.5t25.5 -82t44.5 -42.5t66 -12z" />
<glyph unicode="1" horiz-adv-x="576" d="M87 574l224 83h64v-657h-94v561l-172 -62z" />
<glyph unicode="2" horiz-adv-x="576" d="M60 53q0 52 19.5 92.5t50 73t67.5 58.5t72 49q27 18 50.5 32.5t41.5 31.5t28 38.5t10 51.5q0 33 -10.5 54t-29.5 33.5t-44.5 17.5t-55.5 5t-61.5 -7t-58.5 -16t-45.5 -16.5t-20.5 -8.5l6 83q3 2 20.5 9.5t44 16t60 15.5t70.5 7q106 0 161.5 -50.5t55.5 -142.5 q0 -43 -15 -74t-39 -55.5t-54.5 -45t-61.5 -41.5q-27 -18 -55 -36t-51 -39t-39 -46.5t-20 -58.5h339l-13 -84h-422v53z" />
<glyph unicode="3" horiz-adv-x="576" d="M153 377h102q76 0 107.5 31.5t31.5 81.5q0 29 -10.5 48.5t-29.5 31.5t-46 17t-59 5q-27 0 -57 -3.5t-55.5 -8t-43.5 -8.5t-20 -5l6 75q4 1 21 6.5t42 10.5t55.5 9.5t60.5 4.5q114 0 169 -46.5t55 -129.5q0 -64 -29 -100t-78 -56q55 -15 85 -57t30 -105 q0 -86 -60.5 -138.5t-184.5 -52.5q-30 0 -62 3t-59.5 6.5t-46.5 6.5t-22 4l13 77q2 -1 19.5 -3.5t43 -5.5t54.5 -5.5t54 -2.5q37 0 66.5 6t50.5 19.5t32 36t11 56.5q0 51 -32.5 83t-110.5 32h-103v76z" />
<glyph unicode="4" horiz-adv-x="576" d="M455 237h77v-71h-77v-166h-86v166h-325v71l322 420h89v-420zM369 237v310l-242 -310h242z" />
<glyph unicode="5" horiz-adv-x="576" d="M492 201q0 -46 -15 -85t-45 -67.5t-76 -44.5t-107 -16q-31 0 -62.5 2.5t-58.5 6t-45.5 6.5t-24.5 5l14 74q5 -1 22.5 -3t41.5 -4.5t52 -4.5t54 -2q72 0 116 30t44 100q0 36 -10.5 60t-30.5 39t-48.5 21.5t-63.5 6.5q-17 0 -38 -2t-40.5 -5t-34.5 -5.5l-21 -3.5l-31 48 l24 300h358v-82h-289l-13 -188q5 2 37 7.5t74 5.5q103 0 160 -52t57 -147z" />
<glyph unicode="6" horiz-adv-x="576" d="M352 594q-39 0 -72.5 -9.5t-59 -33.5t-41.5 -66t-22 -106q3 2 16 8t33 12.5t46.5 11.5t56.5 5q60 0 101 -16.5t66.5 -44.5t36.5 -65.5t11 -79.5q0 -111 -57.5 -166.5t-166.5 -55.5q-57 0 -101 17.5t-73 55.5t-44 99.5t-15 150.5q0 94 20.5 162t57.5 112.5t88.5 66 t113.5 21.5q30 0 55.5 -3t44.5 -7t30.5 -7t13.5 -4l-14 -73q-4 1 -38 8t-87 7zM298 342q-24 0 -48.5 -5.5t-44.5 -12t-33.5 -13t-16.5 -7.5q0 -76 10 -123t28.5 -73.5t45.5 -36t61 -9.5q68 0 102 35t34 112q0 64 -30 98.5t-108 34.5z" />
<glyph unicode="7" horiz-adv-x="576" d="M66 657h421l9 -68l-237 -589h-92l236 573h-337v84z" />
<glyph unicode="8" horiz-adv-x="576" d="M50 165q0 37 11.5 65.5t30.5 49.5t44 36t52 27q-22 10 -43 24t-37 33t-26 43t-10 54q0 38 13.5 70.5t40.5 56t67 36.5t94 13q108 0 163 -43.5t55 -124.5q0 -31 -8 -54.5t-22 -41.5t-34.5 -31.5t-45.5 -25.5q27 -11 51 -26t42 -36t28.5 -49.5t10.5 -65.5 q0 -47 -17.5 -82.5t-49.5 -58.5t-76 -34.5t-96 -11.5q-53 0 -97 11t-75.5 32.5t-48.5 55t-17 78.5zM438 173q0 32 -13 53t-35.5 36t-52.5 26t-63 22q-25 -8 -49.5 -18.5t-43.5 -25.5t-31 -36.5t-12 -51.5q0 -58 37 -89t112 -31q151 0 151 115zM156 503q0 -28 13.5 -47 t35.5 -32.5t48 -23t52 -17.5q25 9 47 19.5t38 25t25 33t9 43.5q0 54 -36 78t-101 24q-63 0 -97 -26t-34 -77z" />
<glyph unicode="9" horiz-adv-x="576" d="M224 67q39 0 72.5 9t59 33t42 65.5t21.5 106.5q-3 -2 -15.5 -8t-32.5 -12.5t-46 -11.5t-56 -5q-60 0 -101.5 16t-67 44t-36.5 65.5t-11 80.5q0 111 57.5 167t166.5 56q57 0 100.5 -17.5t73 -56t44.5 -100.5t15 -150q0 -94 -20.5 -162t-57.5 -112.5t-88.5 -65.5 t-113.5 -21q-30 0 -56 3t-45 6.5t-30.5 6.5t-13.5 4l15 74q4 -1 37.5 -8t86.5 -7zM279 318q24 0 48.5 5.5t44.5 12t33.5 12.5t15.5 8q0 76 -10 123.5t-28.5 74t-45 36t-60.5 9.5q-69 0 -102.5 -35.5t-33.5 -112.5q0 -63 30 -98t108 -35z" />
<glyph unicode=":" horiz-adv-x="247" d="M71 505h115v-114h-115v114zM71 114h115v-114h-115v114z" />
<glyph unicode=";" horiz-adv-x="247" d="M80 114h106l-67 -225h-80zM71 505h115v-114h-115v114z" />
<glyph unicode="&#x3c;" horiz-adv-x="576" d="M99 362l379 196v-85l-287 -143l287 -145v-87l-379 197v67z" />
<glyph unicode="=" horiz-adv-x="576" d="M77 474h422v-81h-422v81zM77 267h422v-81h-422v81z" />
<glyph unicode="&#x3e;" horiz-adv-x="576" d="M477 294l-379 -196v85l287 143l-287 145v87l379 -197v-67z" />
<glyph unicode="?" horiz-adv-x="470" d="M170 354q45 9 76 23t50 32t27 40.5t8 50.5q0 109 -134 109q-39 0 -82.5 -11t-77.5 -24l9 79q38 17 80 26t84 9q56 0 96 -13.5t65.5 -38t37.5 -57.5t12 -72q0 -76 -43.5 -127.5t-148.5 -80.5v-121h-84v135zM136 104h103v-104h-103v104z" />
<glyph unicode="@" horiz-adv-x="918" d="M568 388q-4 2 -27 10t-65 8q-69 0 -102.5 -51t-33.5 -141q0 -110 100 -110q12 0 25.5 2t26 4t22 4.5t14.5 4.5zM468 -94q35 0 71 4.5t66 10t51.5 11t28.5 7.5l-12 -72q-3 -1 -21 -6t-46.5 -10t-65 -9.5t-78.5 -4.5q-98 0 -175 21t-130.5 68t-82 122t-28.5 183t32.5 190.5 t92 138.5t144 84.5t188.5 28.5q86 0 154.5 -22t116 -64t72.5 -103.5t25 -140.5q0 -85 -23 -144t-62 -95.5t-89.5 -53t-105.5 -16.5h-55l-2 27q-6 -2 -17.5 -7.5t-27.5 -11t-36.5 -9.5t-43.5 -4q-75 0 -115 47.5t-40 132.5q0 69 17 120t47 84.5t72 50.5t92 17q39 0 67 -12 t39 -21l8 23h64l-51 -369q48 0 83 16.5t57.5 46.5t33.5 72.5t11 95.5q0 138 -75.5 204t-218.5 66q-88 0 -157.5 -23t-118 -69t-74.5 -115.5t-26 -162.5q0 -91 22.5 -153.5t66 -101t108 -55.5t147.5 -17z" />
<glyph unicode="A" horiz-adv-x="610" d="M17 0l240 673h97l239 -673h-98l-62 177h-263l-62 -177h-91zM197 253h211l-105 303z" />
<glyph unicode="B" horiz-adv-x="600" d="M83 0v673h230q110 0 157.5 -48t47.5 -132q0 -61 -28.5 -95t-68.5 -49q54 -12 86.5 -52t32.5 -112q0 -47 -16 -81.5t-44 -57.5t-66 -34.5t-82 -11.5h-249zM174 308v-231h143q28 0 51.5 4.5t41 17t27 34.5t9.5 58q0 33 -9.5 55.5t-27.5 36t-43 19.5t-56 6h-136zM174 384 h116q36 0 61.5 4.5t42 16.5t24 32t7.5 50q0 59 -30.5 84t-93.5 25h-127v-212z" />
<glyph unicode="C" horiz-adv-x="544" d="M52 338q0 94 19.5 159.5t56.5 107t90.5 60t121.5 18.5q34 0 64 -4t53 -9.5t38 -10.5t19 -6l-19 -77q-3 1 -17.5 4t-35 7t-45 7t-47.5 3q-51 0 -88 -11t-62 -40t-37 -79.5t-12 -128.5t12.5 -129t38 -80.5t63 -41t88.5 -11.5q28 0 55.5 2.5t49.5 6t36.5 6.5t17.5 4l-10 -86 q-2 -1 -15.5 -4t-36 -6.5t-52.5 -6t-65 -2.5q-63 0 -115 17t-89 57.5t-57 107.5t-20 166z" />
<glyph unicode="D" horiz-adv-x="644" d="M176 593v-513h109q47 0 85.5 10t65.5 38t42 78t15 131t-15 131t-42 78t-65.5 37.5t-85.5 9.5h-109zM286 673q69 0 125.5 -15.5t96.5 -54t62 -103t22 -163.5t-22 -164t-62 -103.5t-96.5 -54t-125.5 -15.5h-203v673h203z" />
<glyph unicode="E" horiz-adv-x="538" d="M83 0v673h393v-82h-300v-200h273v-81h-273v-229h317l-12 -81h-398z" />
<glyph unicode="F" horiz-adv-x="513" d="M449 310h-273v-310h-93v673h393v-82h-300v-200h273v-81z" />
<glyph unicode="G" horiz-adv-x="621" d="M563 6q-3 -1 -19.5 -4.5t-44.5 -7t-64.5 -6.5t-78.5 -3q-71 0 -127 18.5t-95.5 60t-60.5 108.5t-21 163q0 95 21 161t60.5 107.5t96 60.5t128.5 19q40 0 73 -4t57 -9t38.5 -9.5t17.5 -5.5l-17 -76q-3 0 -17 3t-36.5 6.5t-51.5 6t-61 2.5q-52 0 -91.5 -11.5t-65.5 -41 t-39.5 -80.5t-13.5 -129t14 -129.5t41 -81.5t68 -42t95 -12q41 0 69 2.5t32 3.5v210h-122v82h215v-362z" />
<glyph unicode="H" horiz-adv-x="662" d="M486 310h-310v-310h-93v673h93v-282h310v282h93v-673h-93v310z" />
<glyph unicode="I" horiz-adv-x="259" d="M176 0h-93v673h93v-673z" />
<glyph unicode="J" horiz-adv-x="472" d="M302 673h93v-483q0 -109 -45.5 -157t-149.5 -48q-39 0 -69.5 5.5t-52 12.5t-33 13t-12.5 7l24 70q2 -1 14 -5.5t30 -10t41 -9.5t47 -4q35 0 57 6.5t34.5 22.5t17 43t4.5 67v470z" />
<glyph unicode="K" horiz-adv-x="612" d="M223 338l15 66l225 269h102l-252 -300l283 -373h-114zM83 673h93v-673h-93v673z" />
<glyph unicode="L" horiz-adv-x="507" d="M176 673v-592h306l-12 -81h-387v673h93z" />
<glyph unicode="M" horiz-adv-x="749" d="M174 522v-522h-91v673h103l190 -389l186 389h103v-673h-90v529l-162 -329h-83z" />
<glyph unicode="N" horiz-adv-x="662" d="M173 537v-537h-90v673h103l304 -528v528h89v-673h-97z" />
<glyph unicode="O" horiz-adv-x="674" d="M337 688q69 0 122.5 -18t89.5 -59t54.5 -108t18.5 -166t-18.5 -166.5t-54.5 -108.5t-89.5 -59t-122.5 -18t-122.5 18t-89.5 59t-54.5 108.5t-18.5 166.5t18.5 166t54.5 108t89.5 59t122.5 18zM337 611q-48 0 -83.5 -12.5t-58 -43.5t-33.5 -84t-11 -134t11 -134 t33.5 -84.5t58 -44t83.5 -12.5t83.5 12.5t58 44t33.5 84.5t11 134t-11 134t-33.5 84t-58 43.5t-83.5 12.5z" />
<glyph unicode="P" horiz-adv-x="561" d="M242 355h10q39 0 71 5.5t55 19t36 37t13 58.5q0 59 -29 89.5t-105 30.5h-118v-595h-92v673h233q55 0 94 -14.5t63.5 -40.5t36 -62t11.5 -79q0 -94 -63.5 -145t-201.5 -51h-31z" />
<glyph unicode="Q" horiz-adv-x="674" d="M337 688q69 0 122.5 -18t89.5 -59t54.5 -108t18.5 -166q0 -111 -24.5 -182.5t-72.5 -112.5l101 -134h-108l-67 93q-25 -8 -53.5 -12t-60.5 -4q-69 0 -122.5 18t-89.5 59t-54.5 108.5t-18.5 166.5t18.5 166t54.5 108t89.5 59t122.5 18zM377 239l97 -129q25 30 37 84 t12 143q0 81 -11 134t-33.5 84t-58 43.5t-83.5 12.5t-83.5 -12.5t-58 -43.5t-33.5 -84t-11 -134t11 -134t33.5 -84.5t58 -44t83.5 -12.5q37 0 67 6l-88 124z" />
<glyph unicode="R" horiz-adv-x="593" d="M455 0l-228 302l15 66q43 3 77.5 8t58.5 17.5t37 34t13 57.5q0 59 -29 84.5t-105 25.5h-118v-595h-93v673h234q110 0 157.5 -49.5t47.5 -136.5q0 -49 -16.5 -81t-43.5 -51.5t-60.5 -30t-67.5 -15.5l236 -309h-115z" />
<glyph unicode="S" horiz-adv-x="537" d="M52 89q7 -2 28 -6t47.5 -7.5t55 -6.5t49.5 -3q45 0 75.5 5t49.5 18t27.5 34.5t8.5 53.5q0 28 -7 46.5t-21.5 31t-36 20.5t-50.5 14l-77 18q-75 17 -114 63t-39 126q0 89 54.5 140.5t174.5 51.5q32 0 63 -3.5t56 -8t42.5 -9t23.5 -6.5l-13 -75q-5 1 -22 4.5t-40.5 7 t-52.5 6.5t-58 3t-54 -4t-43.5 -15.5t-29 -32t-10.5 -53.5q0 -52 26.5 -75t75.5 -34l85 -19q90 -21 126 -68.5t36 -122.5q0 -54 -17 -91.5t-48 -61t-75.5 -34.5t-98.5 -11q-45 0 -83 4t-66 9t-44.5 9t-18.5 5z" />
<glyph unicode="T" horiz-adv-x="570" d="M332 591v-591h-94v591h-210v82h514v-82h-210z" />
<glyph unicode="U" horiz-adv-x="651" d="M325 -15q-60 0 -106.5 10.5t-78 38.5t-47.5 76.5t-16 125.5v437h93v-454q0 -49 10.5 -79.5t30.5 -48t48.5 -23.5t65.5 -6t66 6t49 23.5t30.5 48t10.5 79.5v454h93v-437q0 -77 -16.5 -125.5t-48 -76.5t-78 -38.5t-106.5 -10.5z" />
<glyph unicode="V" horiz-adv-x="590" d="M482 673h91l-230 -673h-97l-229 673h98l183 -557z" />
<glyph unicode="W" horiz-adv-x="833" d="M725 673h91l-179 -673h-96l-127 520l-128 -520h-97l-172 673h98l126 -546l128 546h96l127 -546z" />
<glyph unicode="X" horiz-adv-x="606" d="M354 351l215 -351h-101l-165 275l-169 -275h-92l215 344l-201 329h101l152 -253l154 253h92z" />
<glyph unicode="Y" horiz-adv-x="580" d="M477 673h90l-231 -359v-314h-93v314l-231 359h101l181 -289z" />
<glyph unicode="Z" horiz-adv-x="539" d="M140 81h357l-12 -81h-447v76l354 515h-333v82h425l10 -77z" />
<glyph unicode="[" horiz-adv-x="297" d="M74 693h198v-72h-109v-592h109v-72h-198v736z" />
<glyph unicode="\" horiz-adv-x="368" d="M10 703h93l255 -734h-92z" />
<glyph unicode="]" horiz-adv-x="297" d="M223 -43h-198v72h109v592h-109v72h198v-736z" />
<glyph unicode="^" horiz-adv-x="576" d="M511 354h-100l-124 226l-125 -226h-98l180 319h88z" />
<glyph unicode="_" horiz-adv-x="500" d="M0 -72h500v-75h-500v75z" />
<glyph unicode="`" horiz-adv-x="525" d="M358 579h-79l-112 146h103z" />
<glyph unicode="a" horiz-adv-x="516" d="M88 490q3 1 18.5 5.5t39.5 9.5t54 8.5t62 3.5q87 0 134 -37t47 -123v-357h-71l-8 33q-6 -4 -19 -11.5t-32 -15t-45 -13t-59 -5.5q-32 0 -61.5 7t-52.5 25t-37 48t-14 77q0 91 46.5 129.5t139.5 38.5q21 0 42.5 -1.5t39.5 -4t30 -4.5t14 -2v39q0 23 -5 41t-18.5 31 t-37.5 19.5t-63 6.5q-26 0 -51 -3t-45.5 -7t-34.5 -7.5l-18 -4.5zM238 62q21 0 41 3.5t36.5 8.5t27 9t13.5 6v146q-2 0 -12.5 1.5t-26 3t-35 3t-40.5 1.5q-59 0 -86 -19.5t-27 -77.5q0 -27 8 -44t22.5 -26t34.5 -12t44 -3z" />
<glyph unicode="b" horiz-adv-x="549" d="M162 494q2 1 13 4.5t28.5 7.5t40 7.5t47.5 3.5q100 0 155 -61t55 -198t-55 -203.5t-160 -66.5q-29 0 -53 6t-41 14t-27.5 15.5t-12.5 9.5l-6 -33h-73v725h89v-231zM162 95q2 -2 12 -6.5t25 -9.5t34 -9t39 -4q36 0 62 9.5t42.5 32t24.5 59.5t8 91q0 55 -8 90t-25 55 t-44 28t-65 8q-18 0 -36 -2.5t-32.5 -5.5t-24.5 -5.5t-12 -3.5v-327z" />
<glyph unicode="c" horiz-adv-x="447" d="M281 435q-31 0 -57 -6t-44.5 -25.5t-29 -55.5t-10.5 -96t10 -96t31 -55t52.5 -25t73.5 -6q16 0 34 2t33 4t25.5 4.5t12.5 2.5l-8 -77q-7 -2 -36 -8t-91 -6q-58 0 -101 14t-71.5 45t-42.5 80.5t-14 120.5t14 120.5t42.5 81t72.5 45.5t104 14q29 0 53 -3.5t41.5 -8t28 -8.5 t13.5 -5l-19 -73q-3 1 -13 4.5t-25.5 7t-36 6t-42.5 2.5z" />
<glyph unicode="d" horiz-adv-x="550" d="M396 33q-4 -3 -15.5 -10.5t-29.5 -15t-41.5 -13.5t-51.5 -6q-101 0 -155.5 62.5t-54.5 199.5q0 138 56.5 202.5t170.5 64.5q20 0 39.5 -2.5t35 -5.5t26 -5.5t12.5 -3.5v225h89v-725h-73zM388 427q-3 1 -35 6.5t-75 5.5q-36 0 -62 -9t-42.5 -31t-24.5 -58t-8 -91 q0 -54 8 -89.5t24.5 -56.5t41.5 -29.5t60 -8.5q22 0 41.5 4t34.5 9t24.5 9.5t12.5 6.5v332z" />
<glyph unicode="e" horiz-adv-x="525" d="M449 10q-5 -2 -19 -5.5t-36.5 -7t-51 -6.5t-61.5 -3q-59 0 -102.5 14t-72.5 45.5t-43.5 81.5t-14.5 123q0 138 55 201.5t164 63.5q106 0 159.5 -56t53.5 -188v-55h-340q3 -47 14 -76t31.5 -45.5t50.5 -22.5t69 -6q24 0 49 2.5t46.5 6t37 6.5t18.5 4zM267 444 q-33 0 -56.5 -8t-38.5 -26.5t-23 -48t-9 -72.5h250q0 44 -7 74t-22 48t-38 25.5t-56 7.5z" />
<glyph unicode="f" horiz-adv-x="355" d="M349 648q-5 1 -26.5 5.5t-54.5 4.5q-25 0 -40.5 -6.5t-24.5 -18.5t-12 -29t-3 -39v-60h152v-72h-152v-433h-88v433h-73v72h73v69q0 78 36.5 117t116.5 39q45 0 74 -6.5t33 -7.5z" />
<glyph unicode="g" horiz-adv-x="550" d="M388 410q-8 5 -37.5 17t-74.5 12q-35 0 -60.5 -9.5t-42 -31.5t-24.5 -58.5t-8 -90.5t8 -88.5t25 -54t44 -27t65 -7.5q14 0 30.5 2t31.5 5t26.5 6t16.5 5v320zM264 517q29 0 53 -6.5t41 -14.5t27 -15t12 -9l7 33h73v-521q0 -58 -16.5 -97t-46 -62.5t-69.5 -33.5t-87 -10 q-37 0 -68.5 3t-55 7t-37.5 7.5t-16 3.5l12 76q1 0 14.5 -3t35 -6.5t48.5 -6t56 -2.5q74 0 107.5 28t33.5 98v31q-3 -2 -14 -5.5t-28 -7.5t-39.5 -7t-48.5 -3q-50 0 -89 14t-66 45t-41 79.5t-14 116.5q0 137 55 202.5t161 65.5z" />
<glyph unicode="h" horiz-adv-x="551" d="M389 336q0 46 -18.5 72.5t-72.5 26.5q-28 0 -52 -5t-41.5 -11.5t-28.5 -12.5t-14 -7v-399h-89v725h89v-246q3 2 16 8t33.5 13t47.5 12t59 5q77 0 118.5 -36.5t41.5 -116.5v-364h-89v336z" />
<glyph unicode="i" horiz-adv-x="241" d="M76 0v505h89v-505h-89zM71 596v100h99v-100h-99z" />
<glyph unicode="j" horiz-adv-x="241" d="M71 696h99v-100h-99v100zM76 505h89v-571q0 -73 -36.5 -113t-114.5 -40q-46 0 -77 6t-34 7l12 72q5 -2 27.5 -5.5t55.5 -3.5q27 0 42.5 7t23.5 19t10 28.5t2 36.5v557z" />
<glyph unicode="k" horiz-adv-x="526" d="M73 0v725h89v-416l214 196h109l-243 -224l272 -281h-121l-231 242v-242h-89z" />
<glyph unicode="l" horiz-adv-x="235" d="M73 725h89v-725h-89v725z" />
<glyph unicode="m" horiz-adv-x="827" d="M152 468q8 6 21.5 14t33 16t44.5 13.5t55 5.5q48 0 78 -13t50 -41q27 20 68 37t99 17q77 0 115 -36.5t38 -116.5v-364h-89v336q0 23 -3 41.5t-12 31t-26 19.5t-44 7q-49 0 -79 -13t-45 -23q1 -8 1.5 -17t0.5 -18v-364h-88v336q0 23 -3 41.5t-12.5 31t-26.5 19.5t-44 7 q-51 0 -81.5 -14t-39.5 -21v-400h-90v505h74z" />
<glyph unicode="n" horiz-adv-x="551" d="M389 336q0 46 -18.5 72.5t-72.5 26.5q-28 0 -52 -5t-41.5 -11.5t-28.5 -12.5t-14 -7v-399h-89v505h73l5 -37q6 3 21 11.5t37.5 16.5t51 14.5t60.5 6.5q75 0 116 -36.5t41 -116.5v-364h-89v336z" />
<glyph unicode="o" horiz-adv-x="551" d="M48 252q0 75 15.5 125.5t45 81.5t72 44.5t95.5 13.5t95 -13.5t71.5 -44.5t45 -81.5t15.5 -125.5q0 -74 -15.5 -124.5t-45 -81.5t-71.5 -44.5t-95 -13.5t-95.5 13.5t-72 44.5t-45 81.5t-15.5 124.5zM141 252q0 -55 7.5 -91.5t24 -58t42 -30.5t61.5 -9q35 0 61 9t42.5 30.5 t24.5 58t8 91.5t-8 91.5t-24.5 58.5t-42.5 30.5t-61 8.5q-36 0 -61.5 -8.5t-42 -30.5t-24 -58.5t-7.5 -91.5z" />
<glyph unicode="p" horiz-adv-x="549" d="M162 87q4 -2 14.5 -5t25.5 -7t32.5 -6.5t35.5 -2.5q37 0 63 8.5t43 29.5t25 57t8 90t-8 90.5t-24.5 58t-42 30.5t-60.5 9q-20 0 -39.5 -4t-35 -9.5t-26 -10t-11.5 -5.5v-323zM73 505h73l6 -33q1 1 11.5 8.5t28 15.5t42 14.5t54.5 6.5q108 0 160.5 -65t52.5 -201 q0 -137 -57 -200t-158 -63q-24 0 -45 3.5t-38 8t-27.5 8.5t-13.5 6v-233h-89v724z" />
<glyph unicode="q" horiz-adv-x="550" d="M388 410q-3 1 -13 6t-25 10t-34 9t-40 4q-35 0 -60.5 -10t-42 -32.5t-24.5 -59.5t-8 -91t8 -89t25 -55.5t44 -28t65 -7.5q15 0 31.5 2.5t31 6t26 7t16.5 5.5v323zM477 -219h-89v233q-3 -2 -14.5 -6t-28.5 -8.5t-39.5 -8t-47.5 -3.5q-50 0 -89 14.5t-66 46t-41 80.5 t-14 117q0 137 56 204t165 67q27 0 50 -6.5t39.5 -14.5t26.5 -15t12 -9l7 33h73v-724z" />
<glyph unicode="r" horiz-adv-x="362" d="M337 426q-5 2 -19.5 5.5t-39.5 3.5q-23 0 -43 -5.5t-35.5 -12t-25.5 -13t-12 -8.5v-396h-89v505h73l5 -45q7 7 20 16.5t30.5 18t38 14.5t42.5 6q31 0 48.5 -4t22.5 -6z" />
<glyph unicode="s" horiz-adv-x="455" d="M50 77q5 -1 21 -3t38 -4.5t46.5 -4.5t47.5 -2q67 0 95.5 13t28.5 57q0 38 -22 54t-77 26l-59 12q-55 10 -88.5 45.5t-33.5 98.5q0 66 45.5 107t147.5 41q27 0 52.5 -2.5t46 -6t34.5 -7l18 -4.5l-13 -70q-5 1 -19.5 3.5t-34.5 5t-43 4.5t-43 2q-23 0 -42 -2.5t-33.5 -10 t-22.5 -21t-8 -34.5q0 -17 4.5 -29t14 -20.5t26 -14t40.5 -9.5l63 -13q76 -14 105 -50.5t29 -96.5q0 -81 -54.5 -117t-149.5 -36q-34 0 -63 2.5t-51.5 6t-37.5 6.5t-19 4z" />
<glyph unicode="t" horiz-adv-x="380" d="M193 433v-293q0 -17 2.5 -30.5t10 -23.5t22.5 -15t41 -5q18 0 34.5 1.5t30 4t22.5 4.5t12 3l-5 -71q-2 -1 -35.5 -9t-91.5 -8q-64 0 -97.5 31.5t-33.5 93.5v317h-73v72h73v133h88v-133h157v-72h-157z" />
<glyph unicode="u" horiz-adv-x="551" d="M162 169q0 -48 18 -73.5t73 -25.5q28 0 52 5t41.5 11.5t28.5 12t14 7.5v399h89v-505h-73l-6 37q-5 -3 -19.5 -11t-37 -16.5t-51 -15t-61.5 -6.5q-75 0 -116 37t-41 120v360h89v-336z" />
<glyph unicode="v" horiz-adv-x="498" d="M394 505h92l-187 -505h-98l-189 505h98l143 -405z" />
<glyph unicode="w" horiz-adv-x="761" d="M428 505l113 -412l111 412h92l-157 -505h-98l-107 386l-109 -386h-98l-158 505h98l111 -404l113 404h89z" />
<glyph unicode="x" horiz-adv-x="519" d="M307 271l186 -271h-101l-137 204l-141 -204h-88l186 263l-166 242h101l117 -175l120 175h89z" />
<glyph unicode="y" horiz-adv-x="508" d="M271 -81q-11 -27 -22.5 -52t-29.5 -44t-44 -30.5t-66 -11.5q-42 0 -69 6.5t-30 8.5l14 72q5 -2 26.5 -7t51.5 -5q38 0 57 18t33 54l35 94l-215 483h98l161 -370l134 370h91z" />
<glyph unicode="z" horiz-adv-x="483" d="M48 505h382l8 -68l-296 -365h309l-11 -72h-402v68l297 365h-287v72z" />
<glyph unicode="{" horiz-adv-x="317" d="M26 288v75h12q38 0 49.5 15.5t11.5 35.5v141q0 24 3.5 48.5t16.5 44.5t39.5 32.5t71.5 12.5h61v-72h-48q-20 0 -30.5 -5t-15.5 -13.5t-6 -20.5t-1 -26v-136q0 -32 -16.5 -57t-56.5 -38q40 -12 56.5 -37t16.5 -57v-137q0 -14 1 -26t6 -20.5t15.5 -13.5t30.5 -5h48v-72h-61 q-45 0 -71.5 12.5t-39.5 32.5t-16.5 44.5t-3.5 48.5v142q0 20 -11.5 35.5t-49.5 15.5h-12z" />
<glyph unicode="|" horiz-adv-x="253" d="M172 -31h-91v734h91v-734z" />
<glyph unicode="}" horiz-adv-x="317" d="M279 288q-38 0 -49.5 -15.5t-11.5 -35.5v-142q0 -24 -3.5 -48.5t-16.5 -44.5t-39.5 -32.5t-71.5 -12.5h-61v72h48q19 0 30 5t16 13.5t6 20.5t1 26v137q0 32 16.5 57t56.5 37q-40 13 -56.5 38t-16.5 57v136q0 14 -1 26t-6 20.5t-16 13.5t-30 5h-48v72h61q45 0 71.5 -12.5 t39.5 -32.5t16.5 -44.5t3.5 -48.5v-141q0 -20 11.5 -35.5t49.5 -15.5h12v-75h-12z" />
<glyph unicode="~" horiz-adv-x="576" d="M271 316q-22 11 -40 16.5t-40 5.5q-13 0 -24.5 -2t-23.5 -7t-24.5 -15t-26.5 -26l-51 52q36 48 72.5 66t86.5 19q32 0 56.5 -8.5t46.5 -19.5q23 -11 41 -16.5t40 -5.5q25 1 48 9t51 40l51 -51q-36 -48 -73 -66.5t-87 -19.5q-31 0 -55.5 9t-47.5 20z" />
<glyph unicode="&#xa1;" horiz-adv-x="255" d="M185 -168h-105l12 495h81zM81 505h103v-104h-103v104z" />
<glyph unicode="&#xa2;" horiz-adv-x="576" d="M355 512q26 -1 48 -5t39 -8.5t27 -8t12 -4.5l-17 -68q-3 1 -12.5 3.5t-24.5 6t-33.5 6.5t-38.5 4v-373h7q16 0 34 2t33.5 4.5t27.5 4.5t17 3l-8 -69q-8 -3 -32.5 -9.5t-78.5 -8.5v-94h-66v96q-94 10 -139 70t-45 188q0 63 11 109t33.5 77.5t57.5 49t82 22.5v98h66v-96z M289 435q-22 -5 -39.5 -16.5t-30 -32.5t-19 -53.5t-6.5 -80.5q0 -45 6 -77t17.5 -53t29.5 -33t42 -18v364z" />
<glyph unicode="&#xa3;" horiz-adv-x="576" d="M84 373h67q-13 21 -22.5 51t-9.5 70q0 36 11.5 68.5t36.5 57t65 39t97 14.5q37 0 70 -5t58 -11t40.5 -11t17.5 -6l-18 -72q-4 1 -20 5.5t-39 9.5t-51.5 8.5t-57.5 3.5q-57 0 -90 -23.5t-33 -81.5q0 -20 4.5 -38.5t11 -34t13 -27t10.5 -17.5h168v-72h-129q9 -26 9 -59 q0 -48 -20.5 -88.5t-61.5 -69.5h331l-13 -84h-432v68q22 15 42.5 33t36 39t24.5 45.5t9 52.5q0 20 -4 34.5t-10 28.5h-111v72z" />
<glyph unicode="&#xa4;" horiz-adv-x="576" d="M142 333q0 -29 10.5 -55t30 -45.5t46.5 -31t59 -11.5t59 11.5t46.5 31t30 45.5t10.5 55t-10.5 55t-30 45.5t-46.5 31t-59 11.5t-59 -11.5t-46.5 -31t-30 -45.5t-10.5 -55zM511 333q0 -63 -40 -121l58 -57l-58 -57l-58 58q-56 -40 -125 -40t-125 40l-58 -58l-58 57l58 57 q-40 58 -40 121t40 121l-58 57l58 57l58 -58q56 40 125 40t125 -40l58 58l58 -57l-58 -57q40 -58 40 -121z" />
<glyph unicode="&#xa5;" horiz-adv-x="576" d="M90 350h131l-187 316h100l159 -285l161 285h89l-187 -316h132v-66h-155v-85h155v-66h-155v-133h-89v133h-154v66h154v85h-154v66z" />
<glyph unicode="&#xa6;" horiz-adv-x="253" d="M81 458v245h91v-245h-91zM172 -31h-91v245h91v-245z" />
<glyph unicode="&#xa7;" horiz-adv-x="581" d="M433 311q0 19 -4.5 34.5t-16.5 26.5t-32.5 18.5t-53.5 11.5l-111 12q-5 -2 -16 -8.5t-22 -20t-20 -34t-9 -49.5q0 -38 24.5 -60t82.5 -30l111 -13q4 1 15.5 8t22.5 20.5t20 34t9 49.5zM440 175q24 -11 39 -26.5t23 -33.5t11 -37t3 -37q0 -35 -11.5 -64.5t-38 -50.5 t-68 -33t-101.5 -12q-39 0 -74.5 3t-63 6.5t-45.5 7t-22 5.5l14 73q6 -1 25 -3.5t45 -5.5t57 -5t61 -2q42 0 68 6.5t40 17.5t18.5 26.5t4.5 33.5q0 12 -3.5 25t-12.5 24.5t-24.5 19.5t-39.5 11l-112 14q-37 5 -68 15.5t-53.5 29t-35 46.5t-12.5 68q0 30 8 53t20 40.5t25 29 t24 18.5q-21 10 -35.5 25t-23 32.5t-12.5 37t-4 37.5q0 35 11.5 64.5t37.5 50.5t67 33t101 12q34 0 68 -3.5t62 -8.5t46.5 -9.5t22.5 -5.5l-13 -74q-6 1 -26 5t-47.5 7.5t-58.5 6.5t-58 3q-40 0 -64 -6.5t-37.5 -17t-18 -25t-4.5 -29.5q0 -14 2.5 -27.5t10 -24.5t22 -19 t38.5 -11l119 -15q41 -5 72.5 -16t53 -29.5t32.5 -47t11 -68.5q0 -30 -8 -53t-19.5 -40t-25 -28.5t-23.5 -18.5z" />
<glyph unicode="&#xa8;" horiz-adv-x="525" d="M130 690h92v-94h-92v94zM304 690h92v-94h-92v94z" />
<glyph unicode="&#xa9;" horiz-adv-x="805" d="M507 460q-2 0 -12 2t-24 4.5t-29.5 4t-28.5 1.5q-26 0 -47 -6t-35.5 -21t-22.5 -41t-8 -67t8 -67.5t23 -41.5t36 -21t47 -6q19 0 37 2t32.5 4.5t24 4.5t12.5 3l-7 -63q-2 -1 -31.5 -7t-76.5 -6q-37 0 -69 9.5t-55 32t-36.5 61t-13.5 95.5q0 54 13 92t36 61t55 33.5 t71 10.5q19 0 38.5 -3t35.5 -6.5t27 -7t14 -4.5zM45 336q0 73 28 137t76.5 112t113.5 75.5t139 27.5t139.5 -27.5t114 -75.5t76.5 -112t28 -137t-28 -137t-76.5 -111.5t-114 -75t-139.5 -27.5t-139 27.5t-113.5 75t-76.5 111.5t-28 137zM126 336q0 -59 21.5 -110.5t59 -89.5 t87.5 -59.5t108 -21.5t108.5 21.5t88 59.5t59 89.5t21.5 110.5t-21.5 110.5t-59 89.5t-88 60t-108.5 22t-108 -22t-87.5 -60t-59 -89.5t-21.5 -110.5z" />
<glyph unicode="&#xaa;" horiz-adv-x="402" d="M61 669q3 1 15.5 4t31 6.5t41.5 6t47 2.5q72 0 110 -26.5t38 -89.5v-261h-64l-6 24q-10 -6 -40 -17t-78 -11q-23 0 -46 4.5t-41.5 17t-30 34.5t-11.5 58q0 70 38.5 98t106.5 28q15 0 31.5 -1.5t30.5 -3t23.5 -2.5t11.5 -1v20q0 34 -19.5 49t-75.5 15q-19 0 -38.5 -2 t-36 -5t-28.5 -5.5t-15 -3.5zM183 368q33 0 58 7t28 9v98q-4 0 -27 3t-57 3q-43 0 -62 -12t-19 -53q0 -35 22 -45t57 -10z" />
<glyph unicode="&#xab;" horiz-adv-x="518" d="M52 252l146 229l62 -34l-109 -195l109 -194l-63 -35zM259 252l146 229l62 -34l-109 -195l109 -194l-63 -35z" />
<glyph unicode="&#xac;" horiz-adv-x="576" d="M77 464h422v-268h-81v187h-341v81z" />
<glyph unicode="&#xad;" horiz-adv-x="422" d="M61 330h309v-92h-309v92z" />
<glyph unicode="&#xae;" horiz-adv-x="805" d="M45 336q0 73 28 137t76.5 112t113.5 75.5t139 27.5t139.5 -27.5t114 -75.5t76.5 -112t28 -137t-28 -137t-76.5 -111.5t-114 -75t-139.5 -27.5t-139 27.5t-113.5 75t-76.5 111.5t-28 137zM126 336q0 -59 21.5 -110.5t59 -89.5t87.5 -59.5t108 -21.5t108.5 21.5t88 59.5 t59 89.5t21.5 110.5t-21.5 110.5t-59 89.5t-88 60t-108.5 22t-108 -22t-87.5 -60t-59 -89.5t-21.5 -110.5zM269 529h152q65 0 94.5 -27.5t29.5 -80.5q0 -45 -24.5 -71t-70.5 -35l125 -171h-80l-116 165h-46v-165h-64v385zM333 359h63q42 0 63.5 12.5t21.5 47.5 q0 29 -15 42.5t-50 13.5h-83v-116z" />
<glyph unicode="&#xaf;" horiz-adv-x="525" d="M102 681h321v-76h-321v76z" />
<glyph unicode="&#xb0;" horiz-adv-x="373" d="M35 524q0 31 12 58.5t32.5 47.5t48 31.5t59.5 11.5q31 0 59 -11.5t48 -31.5t32 -47.5t12 -58.5q0 -32 -12 -59t-32 -47.5t-48 -32t-59 -11.5q-32 0 -59.5 11.5t-48 32t-32.5 47.5t-12 59zM100 524q0 -37 25 -63t62 -26t61.5 26t24.5 63t-24.5 62.5t-61.5 25.5t-62 -25.5 t-25 -62.5z" />
<glyph unicode="&#xb1;" horiz-adv-x="576" d="M77 381h171v168h80v-168h171v-77h-171v-168h-80v168h-171v77zM77 77h422v-77h-422v77z" />
<glyph unicode="&#xb2;" d="M213 426q-37 -20 -56.5 -35t-28.5 -29h204l-12 -67h-278v31q0 26 10 47t27 38.5t38.5 32.5t44.5 28q42 23 65 43t23 49t-20.5 39.5t-54.5 10.5q-19 0 -39 -4t-38 -9.5t-31 -10.5t-18 -7l6 66q2 1 14 6t30 10t40 9.5t45 4.5q70 0 106.5 -30t36.5 -84q0 -26 -10.5 -46.5 t-27 -38t-37 -31t-39.5 -23.5z" />
<glyph unicode="&#xb3;" d="M101 517h73q42 0 58.5 13.5t16.5 33.5q0 30 -21 40.5t-58 10.5q-21 0 -41.5 -3t-37 -6.5t-27.5 -6.5t-13 -3l5 63q2 1 13 4t28.5 6.5t38.5 6.5t42 3q73 0 108.5 -27.5t35.5 -77.5q0 -61 -59 -86q65 -22 65 -86q0 -51 -39 -82t-119 -31q-27 0 -50 2t-41 4t-27.5 4t-13.5 3 l12 62q3 -1 14 -3t27 -4t34.5 -3.5t36.5 -1.5q45 0 67.5 11.5t22.5 42.5q0 23 -17.5 36.5t-59.5 13.5h-74v61z" />
<glyph unicode="&#xb4;" horiz-adv-x="525" d="M255 725h103l-112 -146h-79z" />
<glyph unicode="&#xb5;" horiz-adv-x="551" d="M162 169q0 -24 4 -42.5t15 -31t30.5 -19t49.5 -6.5q25 0 47 5t39.5 11.5t28 12t13.5 7.5v399h89v-505h-73l-6 37q-5 -3 -18.5 -11t-32.5 -16.5t-43 -15t-49 -6.5q-23 0 -39.5 4t-28 9t-18 10t-8.5 7v-237h-89v724h89v-336z" />
<glyph unicode="&#xb6;" horiz-adv-x="642" d="M376 -115h-81v423h-41q-61 0 -101 18.5t-64 47.5t-34 63t-10 66v30q0 36 11 70.5t34.5 61.5t60 43.5t87.5 16.5h320v-840h-81v767h-101v-767z" />
<glyph unicode="&#xb7;" horiz-adv-x="247" d="M66 385h115v-114h-115v114z" />
<glyph unicode="&#xb8;" horiz-adv-x="525" d="M243 -59h103l-88 -116h-80z" />
<glyph unicode="&#xb9;" d="M58 625l151 48h50v-378h-79v303l-102 -32z" />
<glyph unicode="&#xba;" horiz-adv-x="427" d="M213 688q40 0 72.5 -10t55 -32.5t34.5 -59t12 -90.5t-12 -91t-34.5 -60t-55 -33t-72.5 -10q-41 0 -73 10t-54 33t-34 60t-12 91t12 90.5t34 59t54 32.5t73 10zM213 365q23 0 40.5 6t29.5 21t18 40.5t6 63.5t-6 63t-17.5 40t-29 21t-41.5 6q-23 0 -40.5 -6t-29.5 -21 t-18 -40t-6 -63t6 -63.5t18 -40.5t29.5 -21t40.5 -6z" />
<glyph unicode="&#xbb;" horiz-adv-x="518" d="M115 23l-63 35l109 194l-109 195l62 34l146 -229zM322 23l-63 35l109 194l-109 195l62 34l146 -229z" />
<glyph unicode="&#xbc;" horiz-adv-x="883" d="M29 625l151 48h50v-378h-79v303l-102 -32zM280 0h-85l348 673h85zM757 139h48v-55h-48v-83h-69v83h-195v52l194 243h70v-240zM688 139v153l-123 -153h123z" />
<glyph unicode="&#xbd;" horiz-adv-x="883" d="M29 625l151 48h50v-378h-79v303l-102 -32zM260 0h-85l348 673h85zM679 132q-37 -20 -56.5 -35t-28.5 -29h204l-12 -67h-278v31q0 26 10 47t27 38.5t38.5 32.5t44.5 28q42 23 65 43t23 49t-20.5 39.5t-54.5 10.5q-19 0 -39 -4t-38 -9.5t-31 -10.5t-18 -7l6 66q2 1 14 6 t30 10t40 9.5t45 4.5q70 0 106.5 -30t36.5 -84q0 -26 -10.5 -46.5t-27 -38t-37 -31t-39.5 -23.5z" />
<glyph unicode="&#xbe;" horiz-adv-x="883" d="M106 517h73q42 0 58.5 13.5t16.5 33.5q0 30 -21 40.5t-58 10.5q-21 0 -41.5 -3t-37 -6.5t-27.5 -6.5t-13 -3l5 63q2 1 13 4t28.5 6.5t38.5 6.5t42 3q73 0 108.5 -27.5t35.5 -77.5q0 -61 -59 -86q65 -22 65 -86q0 -51 -39 -82t-119 -31q-27 0 -50 2t-41 4t-27.5 4t-13.5 3 l12 62q3 -1 14 -3t27 -4t34.5 -3.5t36.5 -1.5q45 0 67.5 11.5t22.5 42.5q0 23 -17.5 36.5t-59.5 13.5h-74v61zM325 0h-85l348 673h85zM792 139h48v-55h-48v-83h-69v83h-195v52l194 243h70v-240zM723 139v153l-123 -153h123z" />
<glyph unicode="&#xbf;" horiz-adv-x="470" d="M300 151q-45 -9 -76 -23t-50 -32t-27 -40.5t-8 -50.5q0 -109 134 -109q39 0 82.5 11t77.5 24l-9 -79q-38 -17 -80 -26t-84 -9q-56 0 -96 13.5t-65.5 38t-37.5 57.5t-12 72q0 76 43.5 127.5t148.5 80.5v121h84v-135zM334 401h-103v104h103v-104z" />
<glyph unicode="&#xc0;" horiz-adv-x="610" d="M17 0l240 673h97l239 -673h-98l-62 177h-263l-62 -177h-91zM197 253h211l-105 303zM371 737h-98l-133 116h124z" />
<glyph unicode="&#xc1;" horiz-adv-x="610" d="M17 0l240 673h97l239 -673h-98l-62 177h-263l-62 -177h-91zM197 253h211l-105 303zM357 853h124l-133 -116h-98z" />
<glyph unicode="&#xc2;" horiz-adv-x="610" d="M17 0l240 673h97l239 -673h-98l-62 177h-263l-62 -177h-91zM197 253h211l-105 303zM476 737h-98l-72 63l-72 -63h-98l116 116h108z" />
<glyph unicode="&#xc3;" horiz-adv-x="610" d="M17 0l240 673h97l239 -673h-98l-62 177h-263l-62 -177h-91zM197 253h211l-105 303zM376 741q-21 0 -40.5 5t-37.5 11t-34 11t-30 5q-19 0 -29 -9.5t-15 -29.5l-64 11q4 19 11.5 37t20.5 32t32.5 22.5t46.5 8.5q21 0 40 -5t36.5 -11t33 -11t30.5 -5q19 0 29 9t15 29 l64 -11q-3 -19 -10.5 -36.5t-20.5 -31.5t-32 -22.5t-46 -8.5z" />
<glyph unicode="&#xc4;" horiz-adv-x="610" d="M17 0l240 673h97l239 -673h-98l-62 177h-263l-62 -177h-91zM197 253h211l-105 303zM149 839h100v-102h-100v102zM361 839h100v-102h-100v102z" />
<glyph unicode="&#xc5;" horiz-adv-x="610" d="M17 0l229 637q-26 14 -41 38.5t-15 56.5q0 50 32.5 80t81.5 30q48 0 80.5 -30.5t32.5 -79.5q0 -32 -14.5 -56t-38.5 -38l229 -638h-98l-62 177h-263l-62 -177h-91zM197 253h211l-105 308zM304 791q-26 0 -41.5 -16.5t-15.5 -42.5q0 -25 15.5 -41.5t41.5 -16.5t41.5 16.5 t15.5 41.5q0 26 -15.5 42.5t-41.5 16.5z" />
<glyph unicode="&#xc6;" horiz-adv-x="864" d="M419 0v220h-222l-101 -220h-91l311 673h486v-82h-291v-200h264v-81h-264v-229h308l-12 -81h-388zM232 296h187v297h-49z" />
<glyph unicode="&#xc7;" horiz-adv-x="544" d="M52 338q0 94 19.5 159.5t56.5 107t90.5 60t121.5 18.5q34 0 64 -4t53 -9.5t38 -10.5t19 -6l-19 -77q-3 1 -17.5 4t-35 7t-45 7t-47.5 3q-51 0 -88 -11t-62 -40t-37 -79.5t-12 -128.5t12.5 -129t38 -80.5t63 -41t88.5 -11.5q28 0 55.5 2.5t49.5 6t36.5 6.5t17.5 4l-10 -86 q-2 -1 -15.5 -4t-36 -6.5t-52.5 -6t-65 -2.5q-63 0 -115 17t-89 57.5t-57 107.5t-20 166zM270 -59h103l-88 -116h-80z" />
<glyph unicode="&#xc8;" horiz-adv-x="538" d="M83 0v673h393v-82h-300v-200h273v-81h-273v-229h317l-12 -81h-398zM377 737h-98l-133 116h124z" />
<glyph unicode="&#xc9;" horiz-adv-x="538" d="M83 0v673h393v-82h-300v-200h273v-81h-273v-229h317l-12 -81h-398zM330 853h124l-133 -116h-98z" />
<glyph unicode="&#xca;" horiz-adv-x="538" d="M83 0v673h393v-82h-300v-200h273v-81h-273v-229h317l-12 -81h-398zM451 737h-98l-72 63l-72 -63h-98l116 116h108z" />
<glyph unicode="&#xcb;" horiz-adv-x="538" d="M83 0v673h393v-82h-300v-200h273v-81h-273v-229h317l-12 -81h-398zM126 839h100v-102h-100v102zM338 839h100v-102h-100v102z" />
<glyph unicode="&#xcc;" horiz-adv-x="259" d="M176 0h-93v673h93v-673zM182 737h-98l-133 116h124z" />
<glyph unicode="&#xcd;" horiz-adv-x="259" d="M176 0h-93v673h93v-673zM186 853h124l-133 -116h-98z" />
<glyph unicode="&#xce;" horiz-adv-x="259" d="M176 0h-93v673h93v-673zM301 737h-98l-72 63l-72 -63h-98l116 116h108z" />
<glyph unicode="&#xcf;" horiz-adv-x="259" d="M176 0h-93v673h93v-673zM-3 848h92v-94h-92v94zM171 848h92v-94h-92v94z" />
<glyph unicode="&#xd0;" horiz-adv-x="644" d="M17 381h66v292h203q69 0 125.5 -15.5t96.5 -54t62 -103t22 -163.5t-22 -164t-62 -103.5t-96.5 -54t-125.5 -15.5h-203v303h-66v78zM176 381h148v-78h-148v-223h109q47 0 85.5 10t65.5 38t42 78t15 131t-15 131t-42 78t-65.5 37.5t-85.5 9.5h-109v-212z" />
<glyph unicode="&#xd1;" horiz-adv-x="662" d="M173 537v-537h-90v673h103l304 -528v528h89v-673h-97zM396 741q-21 0 -40.5 5t-37.5 11t-34 11t-30 5q-19 0 -29 -9.5t-15 -29.5l-64 11q4 19 11.5 37t20.5 32t32.5 22.5t46.5 8.5q21 0 40 -5t36.5 -11t33 -11t30.5 -5q19 0 29 9t15 29l64 -11q-3 -19 -10.5 -36.5 t-20.5 -31.5t-32 -22.5t-46 -8.5z" />
<glyph unicode="&#xd2;" horiz-adv-x="674" d="M337 688q69 0 122.5 -18t89.5 -59t54.5 -108t18.5 -166t-18.5 -166.5t-54.5 -108.5t-89.5 -59t-122.5 -18t-122.5 18t-89.5 59t-54.5 108.5t-18.5 166.5t18.5 166t54.5 108t89.5 59t122.5 18zM337 611q-48 0 -83.5 -12.5t-58 -43.5t-33.5 -84t-11 -134t11 -134 t33.5 -84.5t58 -44t83.5 -12.5t83.5 12.5t58 44t33.5 84.5t11 134t-11 134t-33.5 84t-58 43.5t-83.5 12.5zM412 737h-98l-133 116h124z" />
<glyph unicode="&#xd3;" horiz-adv-x="674" d="M337 688q69 0 122.5 -18t89.5 -59t54.5 -108t18.5 -166t-18.5 -166.5t-54.5 -108.5t-89.5 -59t-122.5 -18t-122.5 18t-89.5 59t-54.5 108.5t-18.5 166.5t18.5 166t54.5 108t89.5 59t122.5 18zM337 611q-48 0 -83.5 -12.5t-58 -43.5t-33.5 -84t-11 -134t11 -134 t33.5 -84.5t58 -44t83.5 -12.5t83.5 12.5t58 44t33.5 84.5t11 134t-11 134t-33.5 84t-58 43.5t-83.5 12.5zM378 853h124l-133 -116h-98z" />
<glyph unicode="&#xd4;" horiz-adv-x="674" d="M337 688q69 0 122.5 -18t89.5 -59t54.5 -108t18.5 -166t-18.5 -166.5t-54.5 -108.5t-89.5 -59t-122.5 -18t-122.5 18t-89.5 59t-54.5 108.5t-18.5 166.5t18.5 166t54.5 108t89.5 59t122.5 18zM337 611q-48 0 -83.5 -12.5t-58 -43.5t-33.5 -84t-11 -134t11 -134 t33.5 -84.5t58 -44t83.5 -12.5t83.5 12.5t58 44t33.5 84.5t11 134t-11 134t-33.5 84t-58 43.5t-83.5 12.5zM507 737h-98l-72 63l-72 -63h-98l116 116h108z" />
<glyph unicode="&#xd5;" horiz-adv-x="674" d="M337 688q69 0 122.5 -18t89.5 -59t54.5 -108t18.5 -166t-18.5 -166.5t-54.5 -108.5t-89.5 -59t-122.5 -18t-122.5 18t-89.5 59t-54.5 108.5t-18.5 166.5t18.5 166t54.5 108t89.5 59t122.5 18zM337 611q-48 0 -83.5 -12.5t-58 -43.5t-33.5 -84t-11 -134t11 -134 t33.5 -84.5t58 -44t83.5 -12.5t83.5 12.5t58 44t33.5 84.5t11 134t-11 134t-33.5 84t-58 43.5t-83.5 12.5zM407 741q-21 0 -40.5 5t-37.5 11t-34 11t-30 5q-19 0 -29 -9.5t-15 -29.5l-64 11q4 19 11.5 37t20.5 32t32.5 22.5t46.5 8.5q21 0 40 -5t36.5 -11t33 -11t30.5 -5 q19 0 29 9t15 29l64 -11q-3 -19 -10.5 -36.5t-20.5 -31.5t-32 -22.5t-46 -8.5z" />
<glyph unicode="&#xd6;" horiz-adv-x="674" d="M337 688q69 0 122.5 -18t89.5 -59t54.5 -108t18.5 -166t-18.5 -166.5t-54.5 -108.5t-89.5 -59t-122.5 -18t-122.5 18t-89.5 59t-54.5 108.5t-18.5 166.5t18.5 166t54.5 108t89.5 59t122.5 18zM337 611q-48 0 -83.5 -12.5t-58 -43.5t-33.5 -84t-11 -134t11 -134 t33.5 -84.5t58 -44t83.5 -12.5t83.5 12.5t58 44t33.5 84.5t11 134t-11 134t-33.5 84t-58 43.5t-83.5 12.5zM181 839h100v-102h-100v102zM393 839h100v-102h-100v102z" />
<glyph unicode="&#xd7;" horiz-adv-x="576" d="M338 331l125 -138l-57 -51l-119 136l-119 -136l-55 49l125 138l-125 138l59 51l117 -135l117 135l57 -49z" />
<glyph unicode="&#xd8;" horiz-adv-x="674" d="M107 -81l51 113q-53 38 -79.5 111.5t-26.5 193.5q0 99 18.5 166t54.5 108t89.5 59t122.5 18q59 0 110 -14l36 80h82l-51 -112q54 -38 81 -111t27 -194q0 -99 -18.5 -166.5t-54.5 -108.5t-89.5 -59t-122.5 -18q-61 0 -111 14l-36 -80h-83zM525 337q0 84 -11.5 137.5 t-35.5 85.5l-220 -490q17 -6 36.5 -8.5t42.5 -2.5q49 0 84.5 13t58.5 44.5t34 85.5t11 135zM337 614q-49 0 -84.5 -12.5t-58.5 -44t-34 -85t-11 -135.5q0 -83 11.5 -136.5t34.5 -85.5l220 488q-17 6 -36 8.5t-42 2.5z" />
<glyph unicode="&#xd9;" horiz-adv-x="651" d="M325 -15q-60 0 -106.5 10.5t-78 38.5t-47.5 76.5t-16 125.5v437h93v-454q0 -49 10.5 -79.5t30.5 -48t48.5 -23.5t65.5 -6t66 6t49 23.5t30.5 48t10.5 79.5v454h93v-437q0 -77 -16.5 -125.5t-48 -76.5t-78 -38.5t-106.5 -10.5zM390 737h-98l-133 116h124z" />
<glyph unicode="&#xda;" horiz-adv-x="651" d="M325 -15q-60 0 -106.5 10.5t-78 38.5t-47.5 76.5t-16 125.5v437h93v-454q0 -49 10.5 -79.5t30.5 -48t48.5 -23.5t65.5 -6t66 6t49 23.5t30.5 48t10.5 79.5v454h93v-437q0 -77 -16.5 -125.5t-48 -76.5t-78 -38.5t-106.5 -10.5zM367 853h124l-133 -116h-98z" />
<glyph unicode="&#xdb;" horiz-adv-x="651" d="M325 -15q-60 0 -106.5 10.5t-78 38.5t-47.5 76.5t-16 125.5v437h93v-454q0 -49 10.5 -79.5t30.5 -48t48.5 -23.5t65.5 -6t66 6t49 23.5t30.5 48t10.5 79.5v454h93v-437q0 -77 -16.5 -125.5t-48 -76.5t-78 -38.5t-106.5 -10.5zM496 737h-98l-72 63l-72 -63h-98l116 116 h108z" />
<glyph unicode="&#xdc;" horiz-adv-x="651" d="M325 -15q-60 0 -106.5 10.5t-78 38.5t-47.5 76.5t-16 125.5v437h93v-454q0 -49 10.5 -79.5t30.5 -48t48.5 -23.5t65.5 -6t66 6t49 23.5t30.5 48t10.5 79.5v454h93v-437q0 -77 -16.5 -125.5t-48 -76.5t-78 -38.5t-106.5 -10.5zM169 839h100v-102h-100v102zM381 839h100 v-102h-100v102z" />
<glyph unicode="&#xdd;" horiz-adv-x="580" d="M477 673h90l-231 -359v-314h-93v314l-231 359h101l181 -289zM352 853h124l-133 -116h-98z" />
<glyph unicode="&#xde;" horiz-adv-x="562" d="M176 532h141q55 0 94 -14.5t63.5 -40.5t36 -62t11.5 -79q0 -94 -63.5 -145t-201.5 -51h-31l17 74h10q39 0 71 5.5t55 19t36 37t13 58.5q0 59 -29 89.5t-105 30.5h-118v-454h-93v673h93v-141z" />
<glyph unicode="&#xdf;" horiz-adv-x="570" d="M265 427h10q63 0 88 29.5t25 90.5q0 23 -4 44t-16 36.5t-32.5 24.5t-53.5 9q-25 0 -47 -4.5t-38.5 -18t-26 -39t-9.5 -67.5v-532h-88v533q0 60 16.5 98t45 60t67.5 30.5t84 8.5q57 0 94 -15.5t58.5 -41t30.5 -58t9 -66.5q0 -39 -8.5 -65t-22 -43t-29 -26.5t-30.5 -16.5 q29 -5 53.5 -16.5t42.5 -33t28 -54.5t10 -81q0 -116 -49 -166.5t-152 -50.5q-9 0 -20.5 0.5t-22 1.5t-19 2t-9.5 1l8 69q5 -1 18.5 -2t24.5 -1q36 0 60.5 6t39.5 22t21.5 44.5t6.5 73.5t-10.5 73t-28.5 43.5t-43 20.5t-55 5h-27v72z" />
<glyph unicode="&#xe0;" horiz-adv-x="516" d="M88 490q3 1 18.5 5.5t39.5 9.5t54 8.5t62 3.5q87 0 134 -37t47 -123v-357h-71l-8 33q-6 -4 -19 -11.5t-32 -15t-45 -13t-59 -5.5q-32 0 -61.5 7t-52.5 25t-37 48t-14 77q0 91 46.5 129.5t139.5 38.5q21 0 42.5 -1.5t39.5 -4t30 -4.5t14 -2v39q0 23 -5 41t-18.5 31 t-37.5 19.5t-63 6.5q-26 0 -51 -3t-45.5 -7t-34.5 -7.5l-18 -4.5zM238 62q21 0 41 3.5t36.5 8.5t27 9t13.5 6v146q-2 0 -12.5 1.5t-26 3t-35 3t-40.5 1.5q-59 0 -86 -19.5t-27 -77.5q0 -27 8 -44t22.5 -26t34.5 -12t44 -3zM323 579h-79l-112 146h103z" />
<glyph unicode="&#xe1;" horiz-adv-x="516" d="M88 490q3 1 18.5 5.5t39.5 9.5t54 8.5t62 3.5q87 0 134 -37t47 -123v-357h-71l-8 33q-6 -4 -19 -11.5t-32 -15t-45 -13t-59 -5.5q-32 0 -61.5 7t-52.5 25t-37 48t-14 77q0 91 46.5 129.5t139.5 38.5q21 0 42.5 -1.5t39.5 -4t30 -4.5t14 -2v39q0 23 -5 41t-18.5 31 t-37.5 19.5t-63 6.5q-26 0 -51 -3t-45.5 -7t-34.5 -7.5l-18 -4.5zM238 62q21 0 41 3.5t36.5 8.5t27 9t13.5 6v146q-2 0 -12.5 1.5t-26 3t-35 3t-40.5 1.5q-59 0 -86 -19.5t-27 -77.5q0 -27 8 -44t22.5 -26t34.5 -12t44 -3zM301 725h103l-112 -146h-79z" />
<glyph unicode="&#xe2;" horiz-adv-x="516" d="M88 490q3 1 18.5 5.5t39.5 9.5t54 8.5t62 3.5q87 0 134 -37t47 -123v-357h-71l-8 33q-6 -4 -19 -11.5t-32 -15t-45 -13t-59 -5.5q-32 0 -61.5 7t-52.5 25t-37 48t-14 77q0 91 46.5 129.5t139.5 38.5q21 0 42.5 -1.5t39.5 -4t30 -4.5t14 -2v39q0 23 -5 41t-18.5 31 t-37.5 19.5t-63 6.5q-26 0 -51 -3t-45.5 -7t-34.5 -7.5l-18 -4.5zM238 62q21 0 41 3.5t36.5 8.5t27 9t13.5 6v146q-2 0 -12.5 1.5t-26 3t-35 3t-40.5 1.5q-59 0 -86 -19.5t-27 -77.5q0 -27 8 -44t22.5 -26t34.5 -12t44 -3zM406 579h-79l-61 89l-61 -89h-79l99 146h82z" />
<glyph unicode="&#xe3;" horiz-adv-x="516" d="M88 490q3 1 18.5 5.5t39.5 9.5t54 8.5t62 3.5q87 0 134 -37t47 -123v-357h-71l-8 33q-6 -4 -19 -11.5t-32 -15t-45 -13t-59 -5.5q-32 0 -61.5 7t-52.5 25t-37 48t-14 77q0 91 46.5 129.5t139.5 38.5q21 0 42.5 -1.5t39.5 -4t30 -4.5t14 -2v39q0 23 -5 41t-18.5 31 t-37.5 19.5t-63 6.5q-26 0 -51 -3t-45.5 -7t-34.5 -7.5l-18 -4.5zM238 62q21 0 41 3.5t36.5 8.5t27 9t13.5 6v146q-2 0 -12.5 1.5t-26 3t-35 3t-40.5 1.5q-59 0 -86 -19.5t-27 -77.5q0 -27 8 -44t22.5 -26t34.5 -12t44 -3zM321 591q-20 0 -37 5t-33 10.5t-30 10.5t-27 5 q-17 0 -25 -9t-13 -29l-65 11q4 19 11 37t19 32t30 22.5t43 8.5q19 0 36.5 -5t33 -10.5t29.5 -10.5t28 -5q17 0 25.5 8.5t13.5 28.5l64 -11q-3 -19 -10.5 -36.5t-19.5 -31.5t-30 -22.5t-43 -8.5z" />
<glyph unicode="&#xe4;" horiz-adv-x="516" d="M88 490q3 1 18.5 5.5t39.5 9.5t54 8.5t62 3.5q87 0 134 -37t47 -123v-357h-71l-8 33q-6 -4 -19 -11.5t-32 -15t-45 -13t-59 -5.5q-32 0 -61.5 7t-52.5 25t-37 48t-14 77q0 91 46.5 129.5t139.5 38.5q21 0 42.5 -1.5t39.5 -4t30 -4.5t14 -2v39q0 23 -5 41t-18.5 31 t-37.5 19.5t-63 6.5q-26 0 -51 -3t-45.5 -7t-34.5 -7.5l-18 -4.5zM238 62q21 0 41 3.5t36.5 8.5t27 9t13.5 6v146q-2 0 -12.5 1.5t-26 3t-35 3t-40.5 1.5q-59 0 -86 -19.5t-27 -77.5q0 -27 8 -44t22.5 -26t34.5 -12t44 -3zM131 690h92v-94h-92v94zM305 690h92v-94h-92v94z " />
<glyph unicode="&#xe5;" horiz-adv-x="516" d="M88 490q3 1 18.5 5.5t39.5 9.5t54 8.5t62 3.5q87 0 134 -37t47 -123v-357h-71l-8 33q-6 -4 -19 -11.5t-32 -15t-45 -13t-59 -5.5q-32 0 -61.5 7t-52.5 25t-37 48t-14 77q0 91 46.5 129.5t139.5 38.5q21 0 42.5 -1.5t39.5 -4t30 -4.5t14 -2v39q0 23 -5 41t-18.5 31 t-37.5 19.5t-63 6.5q-26 0 -51 -3t-45.5 -7t-34.5 -7.5l-18 -4.5zM238 62q21 0 41 3.5t36.5 8.5t27 9t13.5 6v146q-2 0 -12.5 1.5t-26 3t-35 3t-40.5 1.5q-59 0 -86 -19.5t-27 -77.5q0 -27 8 -44t22.5 -26t34.5 -12t44 -3zM263 569q-46 0 -77.5 28.5t-31.5 75.5 q0 48 31 76.5t78 28.5q46 0 77 -29t31 -76t-31 -75.5t-77 -28.5zM263 729q-25 0 -39.5 -16t-14.5 -40q0 -23 15 -39t39 -16t39 16t15 39q0 24 -15 40t-39 16z" />
<glyph unicode="&#xe6;" horiz-adv-x="828" d="M408 48q-3 -2 -17 -12t-38.5 -20.5t-58.5 -19t-76 -8.5q-34 0 -65.5 7t-55.5 25t-38.5 48t-14.5 77q0 91 46.5 129.5t139.5 38.5q19 0 39 -1.5t37.5 -3.5t30.5 -4t19 -3v39q0 23 -5 41t-18.5 31t-37.5 19.5t-63 6.5q-26 0 -51 -3t-45.5 -7t-34.5 -7.5l-18 -4.5l5 74 q3 1 18.5 5.5t39.5 9.5t54 8.5t62 3.5q62 0 99.5 -20.5t55.5 -49.5q17 27 55 48.5t102 21.5q103 0 156 -56t53 -188v-55h-340q3 -47 14 -76t31.5 -45.5t50.5 -22.5t69 -6q24 0 49 2.5t46.5 6t37 6.5t18.5 4l-7 -77q-5 -2 -19 -5.5t-36.5 -7t-51 -6.5t-61.5 -3q-22 0 -46 2.5 t-47.5 9t-45 18.5t-37.5 30zM374 103q-11 38 -14.5 66.5t-3.5 65.5q-5 1 -16.5 2.5t-27 3t-34 2.5t-36.5 1q-59 0 -86 -19.5t-27 -77.5q0 -27 8.5 -44t23.5 -26t34.5 -12t41.5 -3q26 0 49.5 5.5t42 12t30.5 13.5t15 10zM570 444q-33 0 -56.5 -8t-38.5 -26.5t-23 -48 t-9 -72.5h250q0 44 -7 74t-22 48t-38 25.5t-56 7.5z" />
<glyph unicode="&#xe7;" horiz-adv-x="447" d="M281 435q-31 0 -57 -6t-44.5 -25.5t-29 -55.5t-10.5 -96t10 -96t31 -55t52.5 -25t73.5 -6q16 0 34 2t33 4t25.5 4.5t12.5 2.5l-8 -77q-7 -2 -36 -8t-91 -6q-58 0 -101 14t-71.5 45t-42.5 80.5t-14 120.5t14 120.5t42.5 81t72.5 45.5t104 14q29 0 53 -3.5t41.5 -8t28 -8.5 t13.5 -5l-19 -73q-3 1 -13 4.5t-25.5 7t-36 6t-42.5 2.5zM215 -59h103l-88 -116h-80z" />
<glyph unicode="&#xe8;" horiz-adv-x="525" d="M449 10q-5 -2 -19 -5.5t-36.5 -7t-51 -6.5t-61.5 -3q-59 0 -102.5 14t-72.5 45.5t-43.5 81.5t-14.5 123q0 138 55 201.5t164 63.5q106 0 159.5 -56t53.5 -188v-55h-340q3 -47 14 -76t31.5 -45.5t50.5 -22.5t69 -6q24 0 49 2.5t46.5 6t37 6.5t18.5 4zM267 444 q-33 0 -56.5 -8t-38.5 -26.5t-23 -48t-9 -72.5h250q0 44 -7 74t-22 48t-38 25.5t-56 7.5zM341 579h-79l-112 146h103z" />
<glyph unicode="&#xe9;" horiz-adv-x="525" d="M449 10q-5 -2 -19 -5.5t-36.5 -7t-51 -6.5t-61.5 -3q-59 0 -102.5 14t-72.5 45.5t-43.5 81.5t-14.5 123q0 138 55 201.5t164 63.5q106 0 159.5 -56t53.5 -188v-55h-340q3 -47 14 -76t31.5 -45.5t50.5 -22.5t69 -6q24 0 49 2.5t46.5 6t37 6.5t18.5 4zM267 444 q-33 0 -56.5 -8t-38.5 -26.5t-23 -48t-9 -72.5h250q0 44 -7 74t-22 48t-38 25.5t-56 7.5zM317 725h103l-112 -146h-79z" />
<glyph unicode="&#xea;" horiz-adv-x="525" d="M449 10q-5 -2 -19 -5.5t-36.5 -7t-51 -6.5t-61.5 -3q-59 0 -102.5 14t-72.5 45.5t-43.5 81.5t-14.5 123q0 138 55 201.5t164 63.5q106 0 159.5 -56t53.5 -188v-55h-340q3 -47 14 -76t31.5 -45.5t50.5 -22.5t69 -6q24 0 49 2.5t46.5 6t37 6.5t18.5 4zM267 444 q-33 0 -56.5 -8t-38.5 -26.5t-23 -48t-9 -72.5h250q0 44 -7 74t-22 48t-38 25.5t-56 7.5zM417 579h-79l-61 89l-61 -89h-79l99 146h82z" />
<glyph unicode="&#xeb;" horiz-adv-x="525" d="M449 10q-5 -2 -19 -5.5t-36.5 -7t-51 -6.5t-61.5 -3q-59 0 -102.5 14t-72.5 45.5t-43.5 81.5t-14.5 123q0 138 55 201.5t164 63.5q106 0 159.5 -56t53.5 -188v-55h-340q3 -47 14 -76t31.5 -45.5t50.5 -22.5t69 -6q24 0 49 2.5t46.5 6t37 6.5t18.5 4zM267 444 q-33 0 -56.5 -8t-38.5 -26.5t-23 -48t-9 -72.5h250q0 44 -7 74t-22 48t-38 25.5t-56 7.5zM139 690h92v-94h-92v94zM313 690h92v-94h-92v94z" />
<glyph unicode="&#xec;" horiz-adv-x="241" d="M76 505h89v-505h-89v505zM176 579h-79l-112 146h103z" />
<glyph unicode="&#xed;" horiz-adv-x="241" d="M76 505h89v-505h-89v505zM155 725h103l-112 -146h-79z" />
<glyph unicode="&#xee;" horiz-adv-x="241" d="M76 505h89v-505h-89v505zM262 579h-79l-61 89l-61 -89h-79l99 146h82z" />
<glyph unicode="&#xef;" horiz-adv-x="241" d="M76 505h89v-505h-89v505zM-11 690h92v-94h-92v94zM163 690h92v-94h-92v94z" />
<glyph unicode="&#xf0;" horiz-adv-x="550" d="M217 489l-42 49l81 72q-45 23 -87 31.5t-70 10.5l25 68q37 -1 88.5 -13t104.5 -43l75 66l42 -49l-63 -56q27 -23 51 -53.5t42 -69t28 -86t10 -104.5q0 -89 -15 -150.5t-44.5 -100t-73 -56t-100.5 -17.5q-109 0 -166.5 58.5t-57.5 169.5q0 42 11 80t36.5 66.5t67 45.5 t101.5 17q30 0 56 -5t45.5 -11.5t32 -12.5t15.5 -8q-10 65 -36.5 110t-61.5 75zM270 353q-78 0 -108 -37.5t-30 -100.5q0 -153 136 -153q33 0 59.5 9.5t45.5 35.5t29.5 71.5t10.5 116.5v20q-2 1 -15.5 7.5t-34 13t-45 12t-48.5 5.5z" />
<glyph unicode="&#xf1;" horiz-adv-x="551" d="M389 336q0 46 -18.5 72.5t-72.5 26.5q-28 0 -52 -5t-41.5 -11.5t-28.5 -12.5t-14 -7v-399h-89v505h73l5 -37q6 3 21 11.5t37.5 16.5t51 14.5t60.5 6.5q75 0 116 -36.5t41 -116.5v-364h-89v336zM339 591q-20 0 -37 5t-33 10.5t-30 10.5t-27 5q-17 0 -25 -9t-13 -29l-65 11 q4 19 11 37t19 32t30 22.5t43 8.5q19 0 36.5 -5t33 -10.5t29.5 -10.5t28 -5q17 0 25.5 8.5t13.5 28.5l64 -11q-3 -19 -10.5 -36.5t-19.5 -31.5t-30 -22.5t-43 -8.5z" />
<glyph unicode="&#xf2;" horiz-adv-x="551" d="M48 252q0 75 15.5 125.5t45 81.5t72 44.5t95.5 13.5t95 -13.5t71.5 -44.5t45 -81.5t15.5 -125.5q0 -74 -15.5 -124.5t-45 -81.5t-71.5 -44.5t-95 -13.5t-95.5 13.5t-72 44.5t-45 81.5t-15.5 124.5zM141 252q0 -55 7.5 -91.5t24 -58t42 -30.5t61.5 -9q35 0 61 9t42.5 30.5 t24.5 58t8 91.5t-8 91.5t-24.5 58.5t-42.5 30.5t-61 8.5q-36 0 -61.5 -8.5t-42 -30.5t-24 -58.5t-7.5 -91.5zM343 579h-79l-112 146h103z" />
<glyph unicode="&#xf3;" horiz-adv-x="551" d="M48 252q0 75 15.5 125.5t45 81.5t72 44.5t95.5 13.5t95 -13.5t71.5 -44.5t45 -81.5t15.5 -125.5q0 -74 -15.5 -124.5t-45 -81.5t-71.5 -44.5t-95 -13.5t-95.5 13.5t-72 44.5t-45 81.5t-15.5 124.5zM141 252q0 -55 7.5 -91.5t24 -58t42 -30.5t61.5 -9q35 0 61 9t42.5 30.5 t24.5 58t8 91.5t-8 91.5t-24.5 58.5t-42.5 30.5t-61 8.5q-36 0 -61.5 -8.5t-42 -30.5t-24 -58.5t-7.5 -91.5zM329 725h103l-112 -146h-79z" />
<glyph unicode="&#xf4;" horiz-adv-x="551" d="M48 252q0 75 15.5 125.5t45 81.5t72 44.5t95.5 13.5t95 -13.5t71.5 -44.5t45 -81.5t15.5 -125.5q0 -74 -15.5 -124.5t-45 -81.5t-71.5 -44.5t-95 -13.5t-95.5 13.5t-72 44.5t-45 81.5t-15.5 124.5zM141 252q0 -55 7.5 -91.5t24 -58t42 -30.5t61.5 -9q35 0 61 9t42.5 30.5 t24.5 58t8 91.5t-8 91.5t-24.5 58.5t-42.5 30.5t-61 8.5q-36 0 -61.5 -8.5t-42 -30.5t-24 -58.5t-7.5 -91.5zM416 579h-79l-61 89l-61 -89h-79l99 146h82z" />
<glyph unicode="&#xf5;" horiz-adv-x="551" d="M48 252q0 75 15.5 125.5t45 81.5t72 44.5t95.5 13.5t95 -13.5t71.5 -44.5t45 -81.5t15.5 -125.5q0 -74 -15.5 -124.5t-45 -81.5t-71.5 -44.5t-95 -13.5t-95.5 13.5t-72 44.5t-45 81.5t-15.5 124.5zM141 252q0 -55 7.5 -91.5t24 -58t42 -30.5t61.5 -9q35 0 61 9t42.5 30.5 t24.5 58t8 91.5t-8 91.5t-24.5 58.5t-42.5 30.5t-61 8.5q-36 0 -61.5 -8.5t-42 -30.5t-24 -58.5t-7.5 -91.5zM340 591q-20 0 -37 5t-33 10.5t-30 10.5t-27 5q-17 0 -25 -9t-13 -29l-65 11q4 19 11 37t19 32t30 22.5t43 8.5q19 0 36.5 -5t33 -10.5t29.5 -10.5t28 -5 q17 0 25.5 8.5t13.5 28.5l64 -11q-3 -19 -10.5 -36.5t-19.5 -31.5t-30 -22.5t-43 -8.5z" />
<glyph unicode="&#xf6;" horiz-adv-x="551" d="M48 252q0 75 15.5 125.5t45 81.5t72 44.5t95.5 13.5t95 -13.5t71.5 -44.5t45 -81.5t15.5 -125.5q0 -74 -15.5 -124.5t-45 -81.5t-71.5 -44.5t-95 -13.5t-95.5 13.5t-72 44.5t-45 81.5t-15.5 124.5zM141 252q0 -55 7.5 -91.5t24 -58t42 -30.5t61.5 -9q35 0 61 9t42.5 30.5 t24.5 58t8 91.5t-8 91.5t-24.5 58.5t-42.5 30.5t-61 8.5q-36 0 -61.5 -8.5t-42 -30.5t-24 -58.5t-7.5 -91.5zM144 690h92v-94h-92v94zM318 690h92v-94h-92v94z" />
<glyph unicode="&#xf7;" horiz-adv-x="576" d="M77 366h422v-77h-422v77zM237 212h101v-101h-101v101zM237 549h101v-101h-101v101z" />
<glyph unicode="&#xf8;" horiz-adv-x="551" d="M92 -63l41 88q-41 29 -63 83.5t-22 143.5q0 75 15.5 125.5t45 81.5t72 44.5t95.5 13.5q45 0 84 -11l29 61h69l-41 -87q42 -29 64 -83.5t22 -144.5q0 -74 -15.5 -124.5t-45 -81.5t-71.5 -44.5t-95 -13.5q-46 0 -85 11l-29 -62h-70zM416 252q0 57 -8.5 94t-25.5 59 l-160 -339q24 -6 54 -6q36 0 62.5 9t43.5 31t25.5 59t8.5 93zM137 252q0 -57 7.5 -93t24.5 -59l159 338q-23 6 -52 6q-37 0 -63 -9t-43 -30.5t-25 -58.5t-8 -94z" />
<glyph unicode="&#xf9;" horiz-adv-x="551" d="M162 169q0 -48 18 -73.5t73 -25.5q28 0 52 5t41.5 11.5t28.5 12t14 7.5v399h89v-505h-73l-6 37q-5 -3 -19.5 -11t-37 -16.5t-51 -15t-61.5 -6.5q-75 0 -116 37t-41 120v360h89v-336zM331 579h-79l-112 146h103z" />
<glyph unicode="&#xfa;" horiz-adv-x="551" d="M162 169q0 -48 18 -73.5t73 -25.5q28 0 52 5t41.5 11.5t28.5 12t14 7.5v399h89v-505h-73l-6 37q-5 -3 -19.5 -11t-37 -16.5t-51 -15t-61.5 -6.5q-75 0 -116 37t-41 120v360h89v-336zM319 725h103l-112 -146h-79z" />
<glyph unicode="&#xfb;" horiz-adv-x="551" d="M162 169q0 -48 18 -73.5t73 -25.5q28 0 52 5t41.5 11.5t28.5 12t14 7.5v399h89v-505h-73l-6 37q-5 -3 -19.5 -11t-37 -16.5t-51 -15t-61.5 -6.5q-75 0 -116 37t-41 120v360h89v-336zM417 579h-79l-61 89l-61 -89h-79l99 146h82z" />
<glyph unicode="&#xfc;" horiz-adv-x="551" d="M162 169q0 -48 18 -73.5t73 -25.5q28 0 52 5t41.5 11.5t28.5 12t14 7.5v399h89v-505h-73l-6 37q-5 -3 -19.5 -11t-37 -16.5t-51 -15t-61.5 -6.5q-75 0 -116 37t-41 120v360h89v-336zM143 690h92v-94h-92v94zM317 690h92v-94h-92v94z" />
<glyph unicode="&#xfd;" horiz-adv-x="508" d="M271 -81q-11 -27 -22.5 -52t-29.5 -44t-44 -30.5t-66 -11.5q-42 0 -69 6.5t-30 8.5l14 72q5 -2 26.5 -7t51.5 -5q38 0 57 18t33 54l35 94l-215 483h98l161 -370l134 370h91zM307 725h103l-112 -146h-79z" />
<glyph unicode="&#xfe;" horiz-adv-x="549" d="M73 725h89v-246q14 10 46.5 24t79.5 14q108 0 160.5 -65t52.5 -201q0 -137 -57 -200t-158 -63q-24 0 -45 3.5t-38 8t-27.5 8.5t-13.5 6v-233h-89v944zM162 87q4 -2 14.5 -5t25.5 -7t32.5 -6.5t35.5 -2.5q37 0 63 8.5t43 29.5t25 57t8 90t-8 90.5t-24.5 58t-42 30.5 t-60.5 9q-20 0 -39.5 -4t-35 -9.5t-26 -10t-11.5 -5.5v-323z" />
<glyph unicode="&#xff;" horiz-adv-x="508" d="M271 -81q-11 -27 -22.5 -52t-29.5 -44t-44 -30.5t-66 -11.5q-42 0 -69 6.5t-30 8.5l14 72q5 -2 26.5 -7t51.5 -5q38 0 57 18t33 54l35 94l-215 483h98l161 -370l134 370h91zM123 690h92v-94h-92v94zM297 690h92v-94h-92v94z" />
<glyph unicode="&#x100;" horiz-adv-x="610" d="M17 0l240 673h97l239 -673h-98l-62 177h-263l-62 -177h-91zM197 253h211l-105 303zM140 839h341v-76h-341v76z" />
<glyph unicode="&#x101;" horiz-adv-x="516" d="M88 490q3 1 18.5 5.5t39.5 9.5t54 8.5t62 3.5q87 0 134 -37t47 -123v-357h-71l-8 33q-6 -4 -19 -11.5t-32 -15t-45 -13t-59 -5.5q-32 0 -61.5 7t-52.5 25t-37 48t-14 77q0 91 46.5 129.5t139.5 38.5q21 0 42.5 -1.5t39.5 -4t30 -4.5t14 -2v39q0 23 -5 41t-18.5 31 t-37.5 19.5t-63 6.5q-26 0 -51 -3t-45.5 -7t-34.5 -7.5l-18 -4.5zM238 62q21 0 41 3.5t36.5 8.5t27 9t13.5 6v146q-2 0 -12.5 1.5t-26 3t-35 3t-40.5 1.5q-59 0 -86 -19.5t-27 -77.5q0 -27 8 -44t22.5 -26t34.5 -12t44 -3zM91 681h321v-76h-321v76z" />
<glyph unicode="&#x102;" horiz-adv-x="610" d="M17 0l240 673h97l239 -673h-98l-62 177h-263l-62 -177h-91zM197 253h211l-105 303zM306 801q38 0 55 14.5t22 45.5h75q-1 -21 -8.5 -43t-24.5 -40t-46 -29.5t-73 -11.5t-73.5 11.5t-46.5 29.5t-24.5 40t-8.5 43h75q5 -31 22.5 -45.5t55.5 -14.5z" />
<glyph unicode="&#x103;" horiz-adv-x="516" d="M88 490q3 1 18.5 5.5t39.5 9.5t54 8.5t62 3.5q87 0 134 -37t47 -123v-357h-71l-8 33q-6 -4 -19 -11.5t-32 -15t-45 -13t-59 -5.5q-32 0 -61.5 7t-52.5 25t-37 48t-14 77q0 91 46.5 129.5t139.5 38.5q21 0 42.5 -1.5t39.5 -4t30 -4.5t14 -2v39q0 23 -5 41t-18.5 31 t-37.5 19.5t-63 6.5q-26 0 -51 -3t-45.5 -7t-34.5 -7.5l-18 -4.5zM238 62q21 0 41 3.5t36.5 8.5t27 9t13.5 6v146q-2 0 -12.5 1.5t-26 3t-35 3t-40.5 1.5q-59 0 -86 -19.5t-27 -77.5q0 -27 8 -44t22.5 -26t34.5 -12t44 -3zM260 641q36 0 55.5 15t24.5 50h65 q-1 -23 -7.5 -46.5t-23 -42.5t-44 -31t-70.5 -12t-70.5 12t-44 31t-23 42.5t-7.5 46.5h65q5 -35 24.5 -50t55.5 -15z" />
<glyph unicode="&#x104;" horiz-adv-x="610" d="M433 177h-263l-62 -177h-91l240 673h97l239 -673h-4q-14 -3 -29.5 -9.5t-29 -16.5t-22.5 -22.5t-9 -28.5q0 -19 13.5 -27.5t33.5 -8.5q23 0 39 6t23 10l24 -53q-11 -7 -37 -15.5t-68 -8.5q-48 0 -78 18t-30 62q0 25 10 42t23.5 28t26 16.5t16.5 7.5zM197 253h211 l-105 303z" />
<glyph unicode="&#x105;" horiz-adv-x="516" d="M372 0l-8 33q-6 -4 -19 -11.5t-32 -15t-45 -13t-59 -5.5q-32 0 -61.5 7t-52.5 25t-37 48t-14 77q0 91 46.5 129.5t139.5 38.5q21 0 42.5 -1.5t39.5 -4t30 -4.5t14 -2v39q0 23 -5 41t-18.5 31t-37.5 19.5t-63 6.5q-26 0 -51 -3t-45.5 -7t-34.5 -7.5l-18 -4.5l5 74 q3 1 18.5 5.5t39.5 9.5t54 8.5t62 3.5q87 0 134 -37t47 -123v-357q-14 -3 -28 -9.5t-25.5 -16t-19 -22.5t-7.5 -29q0 -19 13 -27.5t34 -8.5q23 0 39 6t23 10l24 -53q-11 -7 -37 -15.5t-68 -8.5q-48 0 -78 18t-30 62q0 25 12 42t27.5 28.5t30.5 17t22 6.5h-3zM238 62 q21 0 41 3.5t36.5 8.5t27 9t13.5 6v146q-2 0 -12.5 1.5t-26 3t-35 3t-40.5 1.5q-59 0 -86 -19.5t-27 -77.5q0 -27 8 -44t22.5 -26t34.5 -12t44 -3z" />
<glyph unicode="&#x106;" horiz-adv-x="544" d="M52 338q0 94 19.5 159.5t56.5 107t90.5 60t121.5 18.5q34 0 64 -4t53 -9.5t38 -10.5t19 -6l-19 -77q-3 1 -17.5 4t-35 7t-45 7t-47.5 3q-51 0 -88 -11t-62 -40t-37 -79.5t-12 -128.5t12.5 -129t38 -80.5t63 -41t88.5 -11.5q28 0 55.5 2.5t49.5 6t36.5 6.5t17.5 4l-10 -86 q-2 -1 -15.5 -4t-36 -6.5t-52.5 -6t-65 -2.5q-63 0 -115 17t-89 57.5t-57 107.5t-20 166zM366 853h124l-133 -116h-98z" />
<glyph unicode="&#x107;" horiz-adv-x="447" d="M281 435q-31 0 -57 -6t-44.5 -25.5t-29 -55.5t-10.5 -96t10 -96t31 -55t52.5 -25t73.5 -6q16 0 34 2t33 4t25.5 4.5t12.5 2.5l-8 -77q-7 -2 -36 -8t-91 -6q-58 0 -101 14t-71.5 45t-42.5 80.5t-14 120.5t14 120.5t42.5 81t72.5 45.5t104 14q29 0 53 -3.5t41.5 -8t28 -8.5 t13.5 -5l-19 -73q-3 1 -13 4.5t-25.5 7t-36 6t-42.5 2.5zM306 725h103l-112 -146h-79z" />
<glyph unicode="&#x108;" horiz-adv-x="544" d="M52 338q0 94 19.5 159.5t56.5 107t90.5 60t121.5 18.5q34 0 64 -4t53 -9.5t38 -10.5t19 -6l-19 -77q-3 1 -17.5 4t-35 7t-45 7t-47.5 3q-51 0 -88 -11t-62 -40t-37 -79.5t-12 -128.5t12.5 -129t38 -80.5t63 -41t88.5 -11.5q28 0 55.5 2.5t49.5 6t36.5 6.5t17.5 4l-10 -86 q-2 -1 -15.5 -4t-36 -6.5t-52.5 -6t-65 -2.5q-63 0 -115 17t-89 57.5t-57 107.5t-20 166zM504 737h-98l-72 63l-72 -63h-98l116 116h108z" />
<glyph unicode="&#x109;" horiz-adv-x="447" d="M281 435q-31 0 -57 -6t-44.5 -25.5t-29 -55.5t-10.5 -96t10 -96t31 -55t52.5 -25t73.5 -6q16 0 34 2t33 4t25.5 4.5t12.5 2.5l-8 -77q-7 -2 -36 -8t-91 -6q-58 0 -101 14t-71.5 45t-42.5 80.5t-14 120.5t14 120.5t42.5 81t72.5 45.5t104 14q29 0 53 -3.5t41.5 -8t28 -8.5 t13.5 -5l-19 -73q-3 1 -13 4.5t-25.5 7t-36 6t-42.5 2.5zM412 579h-79l-61 89l-61 -89h-79l99 146h82z" />
<glyph unicode="&#x10a;" horiz-adv-x="544" d="M52 338q0 94 19.5 159.5t56.5 107t90.5 60t121.5 18.5q34 0 64 -4t53 -9.5t38 -10.5t19 -6l-19 -77q-3 1 -17.5 4t-35 7t-45 7t-47.5 3q-51 0 -88 -11t-62 -40t-37 -79.5t-12 -128.5t12.5 -129t38 -80.5t63 -41t88.5 -11.5q28 0 55.5 2.5t49.5 6t36.5 6.5t17.5 4l-10 -86 q-2 -1 -15.5 -4t-36 -6.5t-52.5 -6t-65 -2.5q-63 0 -115 17t-89 57.5t-57 107.5t-20 166zM288 845h105v-108h-105v108z" />
<glyph unicode="&#x10b;" horiz-adv-x="447" d="M281 435q-31 0 -57 -6t-44.5 -25.5t-29 -55.5t-10.5 -96t10 -96t31 -55t52.5 -25t73.5 -6q16 0 34 2t33 4t25.5 4.5t12.5 2.5l-8 -77q-7 -2 -36 -8t-91 -6q-58 0 -101 14t-71.5 45t-42.5 80.5t-14 120.5t14 120.5t42.5 81t72.5 45.5t104 14q29 0 53 -3.5t41.5 -8t28 -8.5 t13.5 -5l-19 -73q-3 1 -13 4.5t-25.5 7t-36 6t-42.5 2.5zM224 692h96v-98h-96v98z" />
<glyph unicode="&#x10c;" horiz-adv-x="544" d="M52 338q0 94 19.5 159.5t56.5 107t90.5 60t121.5 18.5q34 0 64 -4t53 -9.5t38 -10.5t19 -6l-19 -77q-3 1 -17.5 4t-35 7t-45 7t-47.5 3q-51 0 -88 -11t-62 -40t-37 -79.5t-12 -128.5t12.5 -129t38 -80.5t63 -41t88.5 -11.5q28 0 55.5 2.5t49.5 6t36.5 6.5t17.5 4l-10 -86 q-2 -1 -15.5 -4t-36 -6.5t-52.5 -6t-65 -2.5q-63 0 -115 17t-89 57.5t-57 107.5t-20 166zM164 853h98l72 -63l72 63h98l-116 -116h-108z" />
<glyph unicode="&#x10d;" horiz-adv-x="447" d="M281 435q-31 0 -57 -6t-44.5 -25.5t-29 -55.5t-10.5 -96t10 -96t31 -55t52.5 -25t73.5 -6q16 0 34 2t33 4t25.5 4.5t12.5 2.5l-8 -77q-7 -2 -36 -8t-91 -6q-58 0 -101 14t-71.5 45t-42.5 80.5t-14 120.5t14 120.5t42.5 81t72.5 45.5t104 14q29 0 53 -3.5t41.5 -8t28 -8.5 t13.5 -5l-19 -73q-3 1 -13 4.5t-25.5 7t-36 6t-42.5 2.5zM123 725h79l61 -89l61 89h79l-99 -146h-82z" />
<glyph unicode="&#x10e;" horiz-adv-x="644" d="M176 593v-513h109q47 0 85.5 10t65.5 38t42 78t15 131t-15 131t-42 78t-65.5 37.5t-85.5 9.5h-109zM286 673q69 0 125.5 -15.5t96.5 -54t62 -103t22 -163.5t-22 -164t-62 -103.5t-96.5 -54t-125.5 -15.5h-203v673h203zM135 853h98l72 -63l72 63h98l-116 -116h-108z" />
<glyph unicode="&#x10f;" horiz-adv-x="655" d="M396 33q-4 -3 -15.5 -10.5t-29.5 -15t-41.5 -13.5t-51.5 -6q-101 0 -155.5 62.5t-54.5 199.5q0 138 56.5 202.5t170.5 64.5q20 0 39.5 -2.5t35 -5.5t26 -5.5t12.5 -3.5v225h89v-725h-73zM388 427q-3 1 -35 6.5t-75 5.5q-36 0 -62 -9t-42.5 -31t-24.5 -58t-8 -91 q0 -54 8 -89.5t24.5 -56.5t41.5 -29.5t60 -8.5q22 0 41.5 4t34.5 9t24.5 9.5t12.5 6.5v332zM564 725h91l-42 -162h-67z" />
<glyph unicode="&#x110;" horiz-adv-x="644" d="M17 381h66v292h203q69 0 125.5 -15.5t96.5 -54t62 -103t22 -163.5t-22 -164t-62 -103.5t-96.5 -54t-125.5 -15.5h-203v303h-66v78zM176 381h148v-78h-148v-223h109q47 0 85.5 10t65.5 38t42 78t15 131t-15 131t-42 78t-65.5 37.5t-85.5 9.5h-109v-212z" />
<glyph unicode="&#x111;" horiz-adv-x="550" d="M227 645h161v80h89v-80h59v-65h-59v-580h-73l-8 33q-4 -3 -15.5 -10.5t-29.5 -15t-41.5 -13.5t-51.5 -6q-50 0 -89 14.5t-66 45.5t-41 79.5t-14 116.5q0 137 57 199t170 62q20 0 39.5 -2.5t35 -5.5t26 -5.5t12.5 -3.5v92h-161v65zM388 415q-3 1 -35 6.5t-75 5.5 q-36 0 -62 -8t-42.5 -28.5t-24.5 -56t-8 -90.5q0 -54 8 -88.5t24.5 -54.5t41.5 -27.5t60 -7.5q22 0 41.5 4t34.5 9t24.5 9.5t12.5 6.5v320z" />
<glyph unicode="&#x112;" horiz-adv-x="538" d="M83 0v673h393v-82h-300v-200h273v-81h-273v-229h317l-12 -81h-398zM109 839h341v-76h-341v76z" />
<glyph unicode="&#x113;" horiz-adv-x="525" d="M449 10q-5 -2 -19 -5.5t-36.5 -7t-51 -6.5t-61.5 -3q-59 0 -102.5 14t-72.5 45.5t-43.5 81.5t-14.5 123q0 138 55 201.5t164 63.5q106 0 159.5 -56t53.5 -188v-55h-340q3 -47 14 -76t31.5 -45.5t50.5 -22.5t69 -6q24 0 49 2.5t46.5 6t37 6.5t18.5 4zM267 444 q-33 0 -56.5 -8t-38.5 -26.5t-23 -48t-9 -72.5h250q0 44 -7 74t-22 48t-38 25.5t-56 7.5zM111 681h321v-76h-321v76z" />
<glyph unicode="&#x114;" horiz-adv-x="538" d="M83 0v673h393v-82h-300v-200h273v-81h-273v-229h317l-12 -81h-398zM277 801q38 0 55 14.5t22 45.5h75q-1 -21 -8.5 -43t-24.5 -40t-46 -29.5t-73 -11.5t-73.5 11.5t-46.5 29.5t-24.5 40t-8.5 43h75q5 -31 22.5 -45.5t55.5 -14.5z" />
<glyph unicode="&#x115;" horiz-adv-x="525" d="M449 10q-5 -2 -19 -5.5t-36.5 -7t-51 -6.5t-61.5 -3q-59 0 -102.5 14t-72.5 45.5t-43.5 81.5t-14.5 123q0 138 55 201.5t164 63.5q106 0 159.5 -56t53.5 -188v-55h-340q3 -47 14 -76t31.5 -45.5t50.5 -22.5t69 -6q24 0 49 2.5t46.5 6t37 6.5t18.5 4zM267 444 q-33 0 -56.5 -8t-38.5 -26.5t-23 -48t-9 -72.5h250q0 44 -7 74t-22 48t-38 25.5t-56 7.5zM263 641q36 0 55.5 15t24.5 50h65q-1 -23 -7.5 -46.5t-23 -42.5t-44 -31t-70.5 -12t-70.5 12t-44 31t-23 42.5t-7.5 46.5h65q5 -35 24.5 -50t55.5 -15z" />
<glyph unicode="&#x116;" horiz-adv-x="538" d="M83 0v673h393v-82h-300v-200h273v-81h-273v-229h317l-12 -81h-398zM235 845h105v-108h-105v108z" />
<glyph unicode="&#x117;" horiz-adv-x="525" d="M449 10q-5 -2 -19 -5.5t-36.5 -7t-51 -6.5t-61.5 -3q-59 0 -102.5 14t-72.5 45.5t-43.5 81.5t-14.5 123q0 138 55 201.5t164 63.5q106 0 159.5 -56t53.5 -188v-55h-340q3 -47 14 -76t31.5 -45.5t50.5 -22.5t69 -6q24 0 49 2.5t46.5 6t37 6.5t18.5 4zM267 444 q-33 0 -56.5 -8t-38.5 -26.5t-23 -48t-9 -72.5h250q0 44 -7 74t-22 48t-38 25.5t-56 7.5zM215 692h96v-98h-96v98z" />
<glyph unicode="&#x118;" horiz-adv-x="538" d="M83 0v673h393v-82h-300v-200h273v-81h-273v-229h317l-12 -81h1q-14 -3 -29.5 -9.5t-29 -16.5t-22.5 -22.5t-9 -28.5q0 -19 13.5 -27.5t33.5 -8.5q23 0 39 6t23 10l24 -53q-11 -7 -37 -15.5t-68 -8.5q-48 0 -78 18t-30 62q0 25 10 42t23.5 28t26 16.5t17.5 7.5h-306z" />
<glyph unicode="&#x119;" horiz-adv-x="525" d="M449 10q-7 -2 -33.5 -8t-67.5 -10q-22 -10 -38 -26.5t-16 -42.5q0 -19 13 -27.5t34 -8.5q23 0 39 6t23 10l24 -53q-11 -7 -37 -15.5t-68 -8.5q-48 0 -78 18t-30 62q0 33 15 53t32 30q-54 2 -94 17.5t-66.5 46.5t-39.5 80t-13 119q0 138 55 201.5t164 63.5 q106 0 159.5 -56t53.5 -188v-55h-340q3 -47 14 -76t31.5 -45.5t50.5 -22.5t69 -6q24 0 49 2.5t46.5 6t37 6.5t18.5 4zM267 444q-33 0 -56.5 -8t-38.5 -26.5t-23 -48t-9 -72.5h250q0 44 -7 74t-22 48t-38 25.5t-56 7.5z" />
<glyph unicode="&#x11a;" horiz-adv-x="538" d="M83 0v673h393v-82h-300v-200h273v-81h-273v-229h317l-12 -81h-398zM126 853h98l72 -63l72 63h98l-116 -116h-108z" />
<glyph unicode="&#x11b;" horiz-adv-x="525" d="M449 10q-5 -2 -19 -5.5t-36.5 -7t-51 -6.5t-61.5 -3q-59 0 -102.5 14t-72.5 45.5t-43.5 81.5t-14.5 123q0 138 55 201.5t164 63.5q106 0 159.5 -56t53.5 -188v-55h-340q3 -47 14 -76t31.5 -45.5t50.5 -22.5t69 -6q24 0 49 2.5t46.5 6t37 6.5t18.5 4zM267 444 q-33 0 -56.5 -8t-38.5 -26.5t-23 -48t-9 -72.5h250q0 44 -7 74t-22 48t-38 25.5t-56 7.5zM131 725h79l61 -89l61 89h79l-99 -146h-82z" />
<glyph unicode="&#x11c;" horiz-adv-x="621" d="M563 6q-3 -1 -19.5 -4.5t-44.5 -7t-64.5 -6.5t-78.5 -3q-71 0 -127 18.5t-95.5 60t-60.5 108.5t-21 163q0 95 21 161t60.5 107.5t96 60.5t128.5 19q40 0 73 -4t57 -9t38.5 -9.5t17.5 -5.5l-17 -76q-3 0 -17 3t-36.5 6.5t-51.5 6t-61 2.5q-52 0 -91.5 -11.5t-65.5 -41 t-39.5 -80.5t-13.5 -129t14 -129.5t41 -81.5t68 -42t95 -12q41 0 69 2.5t32 3.5v210h-122v82h215v-362zM520 737h-98l-72 63l-72 -63h-98l116 116h108z" />
<glyph unicode="&#x11d;" horiz-adv-x="550" d="M388 410q-8 5 -37.5 17t-74.5 12q-35 0 -60.5 -9.5t-42 -31.5t-24.5 -58.5t-8 -90.5t8 -88.5t25 -54t44 -27t65 -7.5q14 0 30.5 2t31.5 5t26.5 6t16.5 5v320zM264 517q29 0 53 -6.5t41 -14.5t27 -15t12 -9l7 33h73v-521q0 -58 -16.5 -97t-46 -62.5t-69.5 -33.5t-87 -10 q-37 0 -68.5 3t-55 7t-37.5 7.5t-16 3.5l12 76q1 0 14.5 -3t35 -6.5t48.5 -6t56 -2.5q74 0 107.5 28t33.5 98v31q-3 -2 -14 -5.5t-28 -7.5t-39.5 -7t-48.5 -3q-50 0 -89 14t-66 45t-41 79.5t-14 116.5q0 137 55 202.5t161 65.5zM426 579h-79l-61 89l-61 -89h-79l99 146h82z " />
<glyph unicode="&#x11e;" horiz-adv-x="621" d="M563 6q-3 -1 -19.5 -4.5t-44.5 -7t-64.5 -6.5t-78.5 -3q-71 0 -127 18.5t-95.5 60t-60.5 108.5t-21 163q0 95 21 161t60.5 107.5t96 60.5t128.5 19q40 0 73 -4t57 -9t38.5 -9.5t17.5 -5.5l-17 -76q-3 0 -17 3t-36.5 6.5t-51.5 6t-61 2.5q-52 0 -91.5 -11.5t-65.5 -41 t-39.5 -80.5t-13.5 -129t14 -129.5t41 -81.5t68 -42t95 -12q41 0 69 2.5t32 3.5v210h-122v82h215v-362zM340 801q38 0 55 14.5t22 45.5h75q-1 -21 -8.5 -43t-24.5 -40t-46 -29.5t-73 -11.5t-73.5 11.5t-46.5 29.5t-24.5 40t-8.5 43h75q5 -31 22.5 -45.5t55.5 -14.5z" />
<glyph unicode="&#x11f;" horiz-adv-x="550" d="M388 410q-8 5 -37.5 17t-74.5 12q-35 0 -60.5 -9.5t-42 -31.5t-24.5 -58.5t-8 -90.5t8 -88.5t25 -54t44 -27t65 -7.5q14 0 30.5 2t31.5 5t26.5 6t16.5 5v320zM264 517q29 0 53 -6.5t41 -14.5t27 -15t12 -9l7 33h73v-521q0 -58 -16.5 -97t-46 -62.5t-69.5 -33.5t-87 -10 q-37 0 -68.5 3t-55 7t-37.5 7.5t-16 3.5l12 76q1 0 14.5 -3t35 -6.5t48.5 -6t56 -2.5q74 0 107.5 28t33.5 98v31q-3 -2 -14 -5.5t-28 -7.5t-39.5 -7t-48.5 -3q-50 0 -89 14t-66 45t-41 79.5t-14 116.5q0 137 55 202.5t161 65.5zM276 641q36 0 55.5 15t24.5 50h65 q-1 -23 -7.5 -46.5t-23 -42.5t-44 -31t-70.5 -12t-70.5 12t-44 31t-23 42.5t-7.5 46.5h65q5 -35 24.5 -50t55.5 -15z" />
<glyph unicode="&#x120;" horiz-adv-x="621" d="M563 6q-3 -1 -19.5 -4.5t-44.5 -7t-64.5 -6.5t-78.5 -3q-71 0 -127 18.5t-95.5 60t-60.5 108.5t-21 163q0 95 21 161t60.5 107.5t96 60.5t128.5 19q40 0 73 -4t57 -9t38.5 -9.5t17.5 -5.5l-17 -76q-3 0 -17 3t-36.5 6.5t-51.5 6t-61 2.5q-52 0 -91.5 -11.5t-65.5 -41 t-39.5 -80.5t-13.5 -129t14 -129.5t41 -81.5t68 -42t95 -12q41 0 69 2.5t32 3.5v210h-122v82h215v-362zM298 845h105v-108h-105v108z" />
<glyph unicode="&#x121;" horiz-adv-x="550" d="M388 410q-8 5 -37.5 17t-74.5 12q-35 0 -60.5 -9.5t-42 -31.5t-24.5 -58.5t-8 -90.5t8 -88.5t25 -54t44 -27t65 -7.5q14 0 30.5 2t31.5 5t26.5 6t16.5 5v320zM264 517q29 0 53 -6.5t41 -14.5t27 -15t12 -9l7 33h73v-521q0 -58 -16.5 -97t-46 -62.5t-69.5 -33.5t-87 -10 q-37 0 -68.5 3t-55 7t-37.5 7.5t-16 3.5l12 76q1 0 14.5 -3t35 -6.5t48.5 -6t56 -2.5q74 0 107.5 28t33.5 98v31q-3 -2 -14 -5.5t-28 -7.5t-39.5 -7t-48.5 -3q-50 0 -89 14t-66 45t-41 79.5t-14 116.5q0 137 55 202.5t161 65.5zM240 692h96v-98h-96v98z" />
<glyph unicode="&#x122;" horiz-adv-x="621" d="M563 6q-3 -1 -19.5 -4.5t-44.5 -7t-64.5 -6.5t-78.5 -3q-71 0 -127 18.5t-95.5 60t-60.5 108.5t-21 163q0 95 21 161t60.5 107.5t96 60.5t128.5 19q40 0 73 -4t57 -9t38.5 -9.5t17.5 -5.5l-17 -76q-3 0 -17 3t-36.5 6.5t-51.5 6t-61 2.5q-52 0 -91.5 -11.5t-65.5 -41 t-39.5 -80.5t-13.5 -129t14 -129.5t41 -81.5t68 -42t95 -12q41 0 69 2.5t32 3.5v210h-122v82h215v-362zM301 -59h103l-88 -116h-80z" />
<glyph unicode="&#x123;" horiz-adv-x="550" d="M388 410q-8 5 -37.5 17t-74.5 12q-35 0 -60.5 -9.5t-42 -31.5t-24.5 -58.5t-8 -90.5t8 -88.5t25 -54t44 -27t65 -7.5q14 0 30.5 2t31.5 5t26.5 6t16.5 5v320zM264 517q29 0 53 -6.5t41 -14.5t27 -15t12 -9l7 33h73v-521q0 -58 -16.5 -97t-46 -62.5t-69.5 -33.5t-87 -10 q-37 0 -68.5 3t-55 7t-37.5 7.5t-16 3.5l12 76q1 0 14.5 -3t35 -6.5t48.5 -6t56 -2.5q74 0 107.5 28t33.5 98v31q-3 -2 -14 -5.5t-28 -7.5t-39.5 -7t-48.5 -3q-50 0 -89 14t-66 45t-41 79.5t-14 116.5q0 137 55 202.5t161 65.5zM345 579h-103l88 116h80z" />
<glyph unicode="&#x124;" horiz-adv-x="662" d="M486 310h-310v-310h-93v673h93v-282h310v282h93v-673h-93v310zM501 737h-98l-72 63l-72 -63h-98l116 116h108z" />
<glyph unicode="&#x125;" horiz-adv-x="551" d="M389 336q0 46 -18.5 72.5t-72.5 26.5q-28 0 -52 -5t-41.5 -11.5t-28.5 -12.5t-14 -7v-399h-89v725h89v-246q3 2 16 8t33.5 13t47.5 12t59 5q77 0 118.5 -36.5t41.5 -116.5v-364h-89v336zM390 767h-96l-62 41l-62 -41h-96l113 86h90z" />
<glyph unicode="&#x126;" horiz-adv-x="662" d="M25 565h58v108h93v-108h310v108h93v-108h58v-72h-58v-493h-93v310h-310v-310h-93v493h-58v72zM486 391v102h-310v-102h310z" />
<glyph unicode="&#x127;" horiz-adv-x="551" d="M14 645h59v80h89v-80h161v-65h-161v-113q3 2 16 8t33.5 13t47.5 12t59 5q77 0 118.5 -36.5t41.5 -116.5v-352h-89v324q0 46 -18.5 72.5t-72.5 26.5q-28 0 -52 -5t-41.5 -11.5t-28.5 -12.5t-14 -7v-387h-89v580h-59v65z" />
<glyph unicode="&#x128;" horiz-adv-x="259" d="M176 0h-93v673h93v-673zM201 741q-21 0 -40.5 5t-37.5 11t-34 11t-30 5q-19 0 -29 -9.5t-15 -29.5l-64 11q4 19 11.5 37t20.5 32t32.5 22.5t46.5 8.5q21 0 40 -5t36.5 -11t33 -11t30.5 -5q19 0 29 9t15 29l64 -11q-3 -19 -10.5 -36.5t-20.5 -31.5t-32 -22.5t-46 -8.5z " />
<glyph unicode="&#x129;" horiz-adv-x="241" d="M76 505h89v-505h-89v505zM185 591q-20 0 -37 5t-33 10.5t-30 10.5t-27 5q-17 0 -25 -9t-13 -29l-65 11q4 19 11 37t19 32t30 22.5t43 8.5q19 0 36.5 -5t33 -10.5t29.5 -10.5t28 -5q17 0 25.5 8.5t13.5 28.5l64 -11q-3 -19 -10.5 -36.5t-19.5 -31.5t-30 -22.5t-43 -8.5z " />
<glyph unicode="&#x12a;" horiz-adv-x="259" d="M176 0h-93v673h93v-673zM-40 839h341v-76h-341v76z" />
<glyph unicode="&#x12b;" horiz-adv-x="241" d="M76 505h89v-505h-89v505zM-39 681h321v-76h-321v76z" />
<glyph unicode="&#x12c;" horiz-adv-x="259" d="M176 0h-93v673h93v-673zM131 801q38 0 55 14.5t22 45.5h75q-1 -21 -8.5 -43t-24.5 -40t-46 -29.5t-73 -11.5t-73.5 11.5t-46.5 29.5t-24.5 40t-8.5 43h75q5 -31 22.5 -45.5t55.5 -14.5z" />
<glyph unicode="&#x12d;" horiz-adv-x="241" d="M76 505h89v-505h-89v505zM122 641q36 0 55.5 15t24.5 50h65q-1 -23 -7.5 -46.5t-23 -42.5t-44 -31t-70.5 -12t-70.5 12t-44 31t-23 42.5t-7.5 46.5h65q5 -35 24.5 -50t55.5 -15z" />
<glyph unicode="&#x12e;" horiz-adv-x="259" d="M83 0v673h93v-673q-12 -3 -27.5 -9.5t-29 -16.5t-22.5 -22.5t-9 -28.5q0 -19 13.5 -27.5t33.5 -8.5q23 0 39 6t23 10l24 -53q-11 -7 -37 -15.5t-68 -8.5q-48 0 -78 18t-30 62q0 25 10 42t23.5 28t26 16.5t17.5 7.5h-2z" />
<glyph unicode="&#x12f;" horiz-adv-x="241" d="M76 505h89v-505q-14 -3 -28 -9.5t-25.5 -16t-19 -22.5t-7.5 -29q0 -19 13 -27.5t34 -8.5q23 0 39 6t23 10l24 -53q-11 -7 -37 -15.5t-68 -8.5q-48 0 -78 18t-30 62q0 25 9.5 42t21.5 28t24 16.5t17 7.5h-1v505zM71 696h99v-100h-99v100z" />
<glyph unicode="&#x130;" horiz-adv-x="259" d="M176 0h-93v673h93v-673zM77 845h105v-108h-105v108z" />
<glyph unicode="&#x131;" horiz-adv-x="241" d="M76 505h89v-505h-89v505z" />
<glyph unicode="&#x132;" horiz-adv-x="731" d="M176 0h-93v673h93v-673zM561 673h93v-483q0 -109 -45.5 -157t-149.5 -48q-39 0 -69.5 5.5t-52 12.5t-33 13t-12.5 7l24 70q2 -1 14 -5.5t30 -10t41 -9.5t47 -4q35 0 57 6.5t34.5 22.5t17 43t4.5 67v470z" />
<glyph unicode="&#x133;" horiz-adv-x="482" d="M76 0v505h89v-505h-89zM71 596v100h99v-100h-99zM312 696h99v-100h-99v100zM317 505h89v-571q0 -73 -36.5 -113t-114.5 -40q-46 0 -77 6t-34 7l12 72q5 -2 27.5 -5.5t55.5 -3.5q27 0 42.5 7t23.5 19t10 28.5t2 36.5v557z" />
<glyph unicode="&#x134;" horiz-adv-x="472" d="M302 673h93v-483q0 -109 -45.5 -157t-149.5 -48q-39 0 -69.5 5.5t-52 12.5t-33 13t-12.5 7l24 70q2 -1 14 -5.5t30 -10t41 -9.5t47 -4q35 0 57 6.5t34.5 22.5t17 43t4.5 67v470zM519 737h-98l-72 63l-72 -63h-98l116 116h108z" />
<glyph unicode="&#x135;" horiz-adv-x="241" d="M76 505h89v-571q0 -73 -36.5 -113t-114.5 -40q-46 0 -77 6t-34 7l12 72q5 -2 27.5 -5.5t55.5 -3.5q27 0 42.5 7t23.5 19t10 28.5t2 36.5v557zM261 579h-79l-61 89l-61 -89h-79l99 146h82z" />
<glyph unicode="&#x136;" horiz-adv-x="612" d="M223 338l15 66l225 269h102l-252 -300l283 -373h-114zM83 673h93v-673h-93v673zM287 -59h103l-88 -116h-80z" />
<glyph unicode="&#x137;" horiz-adv-x="526" d="M73 0v725h89v-416l214 196h109l-243 -224l272 -281h-121l-231 242v-242h-89zM232 -59h103l-88 -116h-80z" />
<glyph unicode="&#x138;" horiz-adv-x="526" d="M73 0v505h89v-206l214 206h109l-243 -234l272 -271h-121l-231 232v-232h-89z" />
<glyph unicode="&#x139;" horiz-adv-x="507" d="M176 673v-592h306l-12 -81h-387v673h93zM186 853h124l-133 -116h-98z" />
<glyph unicode="&#x13a;" horiz-adv-x="235" d="M180 853h119l-133 -86h-93zM73 725h89v-725h-89v725z" />
<glyph unicode="&#x13b;" horiz-adv-x="507" d="M176 673v-592h306l-12 -81h-387v673h93zM254 -59h103l-88 -116h-80z" />
<glyph unicode="&#x13c;" horiz-adv-x="235" d="M73 725h89v-725h-89v725zM68 -59h103l-88 -116h-80z" />
<glyph unicode="&#x13d;" horiz-adv-x="507" d="M176 673v-592h306l-12 -81h-387v673h93zM300 674h91l-42 -162h-67z" />
<glyph unicode="&#x13e;" horiz-adv-x="340" d="M73 725h89v-725h-89v725zM249 725h91l-42 -162h-67z" />
<glyph unicode="&#x13f;" horiz-adv-x="507" d="M176 673v-592h306l-12 -81h-387v673h93zM325 429h115v-114h-115v114z" />
<glyph unicode="&#x140;" horiz-adv-x="358" d="M73 725h89v-725h-89v725zM242 435h115v-114h-115v114z" />
<glyph unicode="&#x141;" horiz-adv-x="507" d="M10 264l73 63v346h93v-265l129 113v-95l-129 -113v-232h306l-12 -81h-387v232l-73 -63v95z" />
<glyph unicode="&#x142;" horiz-adv-x="235" d="M73 308l-64 -56v85l64 56v332h89v-253l64 57v-85l-64 -57v-387h-89v308z" />
<glyph unicode="&#x143;" horiz-adv-x="662" d="M173 537v-537h-90v673h103l304 -528v528h89v-673h-97zM377 853h124l-133 -116h-98z" />
<glyph unicode="&#x144;" horiz-adv-x="551" d="M389 336q0 46 -18.5 72.5t-72.5 26.5q-28 0 -52 -5t-41.5 -11.5t-28.5 -12.5t-14 -7v-399h-89v505h73l5 -37q6 3 21 11.5t37.5 16.5t51 14.5t60.5 6.5q75 0 116 -36.5t41 -116.5v-364h-89v336zM327 725h103l-112 -146h-79z" />
<glyph unicode="&#x145;" horiz-adv-x="662" d="M173 537v-537h-90v673h103l304 -528v528h89v-673h-97zM296 -59h103l-88 -116h-80z" />
<glyph unicode="&#x146;" horiz-adv-x="551" d="M389 336q0 46 -18.5 72.5t-72.5 26.5q-28 0 -52 -5t-41.5 -11.5t-28.5 -12.5t-14 -7v-399h-89v505h73l5 -37q6 3 21 11.5t37.5 16.5t51 14.5t60.5 6.5q75 0 116 -36.5t41 -116.5v-364h-89v336zM245 -59h103l-88 -116h-80z" />
<glyph unicode="&#x147;" horiz-adv-x="662" d="M173 537v-537h-90v673h103l304 -528v528h89v-673h-97zM155 853h98l72 -63l72 63h98l-116 -116h-108z" />
<glyph unicode="&#x148;" horiz-adv-x="551" d="M389 336q0 46 -18.5 72.5t-72.5 26.5q-28 0 -52 -5t-41.5 -11.5t-28.5 -12.5t-14 -7v-399h-89v505h73l5 -37q6 3 21 11.5t37.5 16.5t51 14.5t60.5 6.5q75 0 116 -36.5t41 -116.5v-364h-89v336zM134 725h79l61 -89l61 89h79l-99 -146h-82z" />
<glyph unicode="&#x149;" horiz-adv-x="614" d="M452 336q0 46 -18.5 72.5t-72.5 26.5q-28 0 -52 -5t-41.5 -11.5t-28.5 -12.5t-14 -7v-399h-89v505h73l5 -37q6 3 21 11.5t37.5 16.5t51 14.5t60.5 6.5q75 0 116 -36.5t41 -116.5v-364h-89v336zM29 673h93l-52 -205h-69z" />
<glyph unicode="&#x14a;" horiz-adv-x="662" d="M173 537v-537h-90v673h103l304 -514v514h89v-680q0 -114 -50 -163t-153 -49q-36 0 -64 4t-48 9t-31 9.5t-13 5.5l20 70q3 -1 13.5 -4t26.5 -6t37 -5.5t45 -2.5q37 0 62 6.5t39.5 22.5t20.5 43t6 67z" />
<glyph unicode="&#x14b;" horiz-adv-x="551" d="M389 336q0 46 -18.5 72.5t-72.5 26.5q-28 0 -52 -5t-41.5 -11.5t-28.5 -12.5t-14 -7v-399h-89v505h73l5 -37q6 3 21 11.5t37.5 16.5t51 14.5t60.5 6.5q75 0 116 -36.5t41 -116.5v-430q0 -73 -36.5 -113t-114.5 -40q-46 0 -77 6t-34 7l12 72q5 -2 27.5 -5.5t55.5 -3.5 q27 0 42.5 7t23.5 19t10 28.5t2 36.5v388z" />
<glyph unicode="&#x14c;" horiz-adv-x="674" d="M337 688q69 0 122.5 -18t89.5 -59t54.5 -108t18.5 -166t-18.5 -166.5t-54.5 -108.5t-89.5 -59t-122.5 -18t-122.5 18t-89.5 59t-54.5 108.5t-18.5 166.5t18.5 166t54.5 108t89.5 59t122.5 18zM337 611q-48 0 -83.5 -12.5t-58 -43.5t-33.5 -84t-11 -134t11 -134 t33.5 -84.5t58 -44t83.5 -12.5t83.5 12.5t58 44t33.5 84.5t11 134t-11 134t-33.5 84t-58 43.5t-83.5 12.5zM171 839h341v-76h-341v76z" />
<glyph unicode="&#x14d;" horiz-adv-x="551" d="M48 252q0 75 15.5 125.5t45 81.5t72 44.5t95.5 13.5t95 -13.5t71.5 -44.5t45 -81.5t15.5 -125.5q0 -74 -15.5 -124.5t-45 -81.5t-71.5 -44.5t-95 -13.5t-95.5 13.5t-72 44.5t-45 81.5t-15.5 124.5zM141 252q0 -55 7.5 -91.5t24 -58t42 -30.5t61.5 -9q35 0 61 9t42.5 30.5 t24.5 58t8 91.5t-8 91.5t-24.5 58.5t-42.5 30.5t-61 8.5q-36 0 -61.5 -8.5t-42 -30.5t-24 -58.5t-7.5 -91.5zM116 681h321v-76h-321v76z" />
<glyph unicode="&#x14e;" horiz-adv-x="674" d="M337 688q69 0 122.5 -18t89.5 -59t54.5 -108t18.5 -166t-18.5 -166.5t-54.5 -108.5t-89.5 -59t-122.5 -18t-122.5 18t-89.5 59t-54.5 108.5t-18.5 166.5t18.5 166t54.5 108t89.5 59t122.5 18zM337 611q-48 0 -83.5 -12.5t-58 -43.5t-33.5 -84t-11 -134t11 -134 t33.5 -84.5t58 -44t83.5 -12.5t83.5 12.5t58 44t33.5 84.5t11 134t-11 134t-33.5 84t-58 43.5t-83.5 12.5zM337 801q38 0 55 14.5t22 45.5h75q-1 -21 -8.5 -43t-24.5 -40t-46 -29.5t-73 -11.5t-73.5 11.5t-46.5 29.5t-24.5 40t-8.5 43h75q5 -31 22.5 -45.5t55.5 -14.5z" />
<glyph unicode="&#x14f;" horiz-adv-x="551" d="M48 252q0 75 15.5 125.5t45 81.5t72 44.5t95.5 13.5t95 -13.5t71.5 -44.5t45 -81.5t15.5 -125.5q0 -74 -15.5 -124.5t-45 -81.5t-71.5 -44.5t-95 -13.5t-95.5 13.5t-72 44.5t-45 81.5t-15.5 124.5zM141 252q0 -55 7.5 -91.5t24 -58t42 -30.5t61.5 -9q35 0 61 9t42.5 30.5 t24.5 58t8 91.5t-8 91.5t-24.5 58.5t-42.5 30.5t-61 8.5q-36 0 -61.5 -8.5t-42 -30.5t-24 -58.5t-7.5 -91.5zM277 641q36 0 55.5 15t24.5 50h65q-1 -23 -7.5 -46.5t-23 -42.5t-44 -31t-70.5 -12t-70.5 12t-44 31t-23 42.5t-7.5 46.5h65q5 -35 24.5 -50t55.5 -15z" />
<glyph unicode="&#x150;" horiz-adv-x="674" d="M337 688q69 0 122.5 -18t89.5 -59t54.5 -108t18.5 -166t-18.5 -166.5t-54.5 -108.5t-89.5 -59t-122.5 -18t-122.5 18t-89.5 59t-54.5 108.5t-18.5 166.5t18.5 166t54.5 108t89.5 59t122.5 18zM337 611q-48 0 -83.5 -12.5t-58 -43.5t-33.5 -84t-11 -134t11 -134 t33.5 -84.5t58 -44t83.5 -12.5t83.5 12.5t58 44t33.5 84.5t11 134t-11 134t-33.5 84t-58 43.5t-83.5 12.5zM305 853h105l-107 -116h-81zM465 853h105l-107 -116h-81z" />
<glyph unicode="&#x151;" horiz-adv-x="551" d="M48 252q0 75 15.5 125.5t45 81.5t72 44.5t95.5 13.5t95 -13.5t71.5 -44.5t45 -81.5t15.5 -125.5q0 -74 -15.5 -124.5t-45 -81.5t-71.5 -44.5t-95 -13.5t-95.5 13.5t-72 44.5t-45 81.5t-15.5 124.5zM141 252q0 -55 7.5 -91.5t24 -58t42 -30.5t61.5 -9q35 0 61 9t42.5 30.5 t24.5 58t8 91.5t-8 91.5t-24.5 58.5t-42.5 30.5t-61 8.5q-36 0 -61.5 -8.5t-42 -30.5t-24 -58.5t-7.5 -91.5zM247 725h93l-103 -146h-73zM395 725h93l-103 -146h-73z" />
<glyph unicode="&#x152;" horiz-adv-x="888" d="M337 0q-69 0 -122.5 15.5t-89.5 54t-54.5 103.5t-18.5 164t18.5 163.5t54.5 103t89.5 54t122.5 15.5h489v-82h-290v-200h263v-81h-263v-229h307l-12 -81h-494zM151 337q0 -81 11 -130.5t33.5 -77.5t58 -37.5t83.5 -9.5h106v509h-106q-48 0 -83.5 -9.5t-58 -36.5 t-33.5 -77t-11 -131z" />
<glyph unicode="&#x153;" horiz-adv-x="883" d="M498 218q2 -49 14.5 -78.5t33.5 -45.5t50.5 -21t66.5 -5q24 0 49 2.5t46.5 6t37 6.5t18.5 4l-7 -77q-5 -2 -19 -5.5t-36.5 -7t-51 -6.5t-61.5 -3q-39 0 -69 7t-52 19t-38.5 29t-28.5 38q-23 -41 -67.5 -67t-107.5 -26q-53 0 -95.5 13.5t-72 44.5t-45 81.5t-15.5 124.5 q0 75 15.5 125.5t45 81.5t72 44.5t95.5 13.5q59 0 106 -19.5t76 -68.5q47 88 172 88q103 0 155.5 -56t52.5 -188v-55h-340zM625 444q-33 0 -56.5 -8t-38.5 -26.5t-23 -48t-9 -72.5h250q0 44 -7 74t-22 48t-38 25.5t-56 7.5zM141 252q0 -55 7.5 -91.5t24 -58t42 -30.5 t61.5 -9q35 0 61 9t42.5 30.5t24.5 58t8 91.5t-8 91.5t-24.5 58.5t-42.5 30.5t-61 8.5q-36 0 -61.5 -8.5t-42 -30.5t-24 -58.5t-7.5 -91.5z" />
<glyph unicode="&#x154;" horiz-adv-x="593" d="M455 0l-228 302l15 66q43 3 77.5 8t58.5 17.5t37 34t13 57.5q0 59 -29 84.5t-105 25.5h-118v-595h-93v673h234q110 0 157.5 -49.5t47.5 -136.5q0 -49 -16.5 -81t-43.5 -51.5t-60.5 -30t-67.5 -15.5l236 -309h-115zM348 853h124l-133 -116h-98z" />
<glyph unicode="&#x155;" horiz-adv-x="362" d="M337 426q-5 2 -19.5 5.5t-39.5 3.5q-23 0 -43 -5.5t-35.5 -12t-25.5 -13t-12 -8.5v-396h-89v505h73l5 -45q7 7 20 16.5t30.5 18t38 14.5t42.5 6q31 0 48.5 -4t22.5 -6zM254 725h103l-112 -146h-79z" />
<glyph unicode="&#x156;" horiz-adv-x="593" d="M455 0l-228 302l15 66q43 3 77.5 8t58.5 17.5t37 34t13 57.5q0 59 -29 84.5t-105 25.5h-118v-595h-93v673h234q110 0 157.5 -49.5t47.5 -136.5q0 -49 -16.5 -81t-43.5 -51.5t-60.5 -30t-67.5 -15.5l236 -309h-115zM273 -59h103l-88 -116h-80z" />
<glyph unicode="&#x157;" horiz-adv-x="362" d="M337 426q-5 2 -19.5 5.5t-39.5 3.5q-23 0 -43 -5.5t-35.5 -12t-25.5 -13t-12 -8.5v-396h-89v505h73l5 -45q7 7 20 16.5t30.5 18t38 14.5t42.5 6q31 0 48.5 -4t22.5 -6zM69 -59h103l-88 -116h-80z" />
<glyph unicode="&#x158;" horiz-adv-x="593" d="M455 0l-228 302l15 66q43 3 77.5 8t58.5 17.5t37 34t13 57.5q0 59 -29 84.5t-105 25.5h-118v-595h-93v673h234q110 0 157.5 -49.5t47.5 -136.5q0 -49 -16.5 -81t-43.5 -51.5t-60.5 -30t-67.5 -15.5l236 -309h-115zM116 853h98l72 -63l72 63h98l-116 -116h-108z" />
<glyph unicode="&#x159;" horiz-adv-x="362" d="M337 426q-5 2 -19.5 5.5t-39.5 3.5q-23 0 -43 -5.5t-35.5 -12t-25.5 -13t-12 -8.5v-396h-89v505h73l5 -45q7 7 20 16.5t30.5 18t38 14.5t42.5 6q31 0 48.5 -4t22.5 -6zM71 725h79l61 -89l61 89h79l-99 -146h-82z" />
<glyph unicode="&#x15a;" horiz-adv-x="537" d="M52 89q7 -2 28 -6t47.5 -7.5t55 -6.5t49.5 -3q45 0 75.5 5t49.5 18t27.5 34.5t8.5 53.5q0 28 -7 46.5t-21.5 31t-36 20.5t-50.5 14l-77 18q-75 17 -114 63t-39 126q0 89 54.5 140.5t174.5 51.5q32 0 63 -3.5t56 -8t42.5 -9t23.5 -6.5l-13 -75q-5 1 -22 4.5t-40.5 7 t-52.5 6.5t-58 3t-54 -4t-43.5 -15.5t-29 -32t-10.5 -53.5q0 -52 26.5 -75t75.5 -34l85 -19q90 -21 126 -68.5t36 -122.5q0 -54 -17 -91.5t-48 -61t-75.5 -34.5t-98.5 -11q-45 0 -83 4t-66 9t-44.5 9t-18.5 5zM310 853h124l-133 -116h-98z" />
<glyph unicode="&#x15b;" horiz-adv-x="455" d="M50 77q5 -1 21 -3t38 -4.5t46.5 -4.5t47.5 -2q67 0 95.5 13t28.5 57q0 38 -22 54t-77 26l-59 12q-55 10 -88.5 45.5t-33.5 98.5q0 66 45.5 107t147.5 41q27 0 52.5 -2.5t46 -6t34.5 -7l18 -4.5l-13 -70q-5 1 -19.5 3.5t-34.5 5t-43 4.5t-43 2q-23 0 -42 -2.5t-33.5 -10 t-22.5 -21t-8 -34.5q0 -17 4.5 -29t14 -20.5t26 -14t40.5 -9.5l63 -13q76 -14 105 -50.5t29 -96.5q0 -81 -54.5 -117t-149.5 -36q-34 0 -63 2.5t-51.5 6t-37.5 6.5t-19 4zM283 725h103l-112 -146h-79z" />
<glyph unicode="&#x15c;" horiz-adv-x="537" d="M52 89q7 -2 28 -6t47.5 -7.5t55 -6.5t49.5 -3q45 0 75.5 5t49.5 18t27.5 34.5t8.5 53.5q0 28 -7 46.5t-21.5 31t-36 20.5t-50.5 14l-77 18q-75 17 -114 63t-39 126q0 89 54.5 140.5t174.5 51.5q32 0 63 -3.5t56 -8t42.5 -9t23.5 -6.5l-13 -75q-5 1 -22 4.5t-40.5 7 t-52.5 6.5t-58 3t-54 -4t-43.5 -15.5t-29 -32t-10.5 -53.5q0 -52 26.5 -75t75.5 -34l85 -19q90 -21 126 -68.5t36 -122.5q0 -54 -17 -91.5t-48 -61t-75.5 -34.5t-98.5 -11q-45 0 -83 4t-66 9t-44.5 9t-18.5 5zM448 737h-98l-72 63l-72 -63h-98l116 116h108z" />
<glyph unicode="&#x15d;" horiz-adv-x="455" d="M50 77q5 -1 21 -3t38 -4.5t46.5 -4.5t47.5 -2q67 0 95.5 13t28.5 57q0 38 -22 54t-77 26l-59 12q-55 10 -88.5 45.5t-33.5 98.5q0 66 45.5 107t147.5 41q27 0 52.5 -2.5t46 -6t34.5 -7l18 -4.5l-13 -70q-5 1 -19.5 3.5t-34.5 5t-43 4.5t-43 2q-23 0 -42 -2.5t-33.5 -10 t-22.5 -21t-8 -34.5q0 -17 4.5 -29t14 -20.5t26 -14t40.5 -9.5l63 -13q76 -14 105 -50.5t29 -96.5q0 -81 -54.5 -117t-149.5 -36q-34 0 -63 2.5t-51.5 6t-37.5 6.5t-19 4zM369 579h-79l-61 89l-61 -89h-79l99 146h82z" />
<glyph unicode="&#x15e;" horiz-adv-x="537" d="M52 89q7 -2 28 -6t47.5 -7.5t55 -6.5t49.5 -3q45 0 75.5 5t49.5 18t27.5 34.5t8.5 53.5q0 28 -7 46.5t-21.5 31t-36 20.5t-50.5 14l-77 18q-75 17 -114 63t-39 126q0 89 54.5 140.5t174.5 51.5q32 0 63 -3.5t56 -8t42.5 -9t23.5 -6.5l-13 -75q-5 1 -22 4.5t-40.5 7 t-52.5 6.5t-58 3t-54 -4t-43.5 -15.5t-29 -32t-10.5 -53.5q0 -52 26.5 -75t75.5 -34l85 -19q90 -21 126 -68.5t36 -122.5q0 -54 -17 -91.5t-48 -61t-75.5 -34.5t-98.5 -11q-45 0 -83 4t-66 9t-44.5 9t-18.5 5zM220 -59h103l-88 -116h-80z" />
<glyph unicode="&#x15f;" horiz-adv-x="455" d="M50 77q5 -1 21 -3t38 -4.5t46.5 -4.5t47.5 -2q67 0 95.5 13t28.5 57q0 38 -22 54t-77 26l-59 12q-55 10 -88.5 45.5t-33.5 98.5q0 66 45.5 107t147.5 41q27 0 52.5 -2.5t46 -6t34.5 -7l18 -4.5l-13 -70q-5 1 -19.5 3.5t-34.5 5t-43 4.5t-43 2q-23 0 -42 -2.5t-33.5 -10 t-22.5 -21t-8 -34.5q0 -17 4.5 -29t14 -20.5t26 -14t40.5 -9.5l63 -13q76 -14 105 -50.5t29 -96.5q0 -81 -54.5 -117t-149.5 -36q-34 0 -63 2.5t-51.5 6t-37.5 6.5t-19 4zM175 -59h103l-88 -116h-80z" />
<glyph unicode="&#x160;" horiz-adv-x="537" d="M52 89q7 -2 28 -6t47.5 -7.5t55 -6.5t49.5 -3q45 0 75.5 5t49.5 18t27.5 34.5t8.5 53.5q0 28 -7 46.5t-21.5 31t-36 20.5t-50.5 14l-77 18q-75 17 -114 63t-39 126q0 89 54.5 140.5t174.5 51.5q32 0 63 -3.5t56 -8t42.5 -9t23.5 -6.5l-13 -75q-5 1 -22 4.5t-40.5 7 t-52.5 6.5t-58 3t-54 -4t-43.5 -15.5t-29 -32t-10.5 -53.5q0 -52 26.5 -75t75.5 -34l85 -19q90 -21 126 -68.5t36 -122.5q0 -54 -17 -91.5t-48 -61t-75.5 -34.5t-98.5 -11q-45 0 -83 4t-66 9t-44.5 9t-18.5 5zM115 853h98l72 -63l72 63h98l-116 -116h-108z" />
<glyph unicode="&#x161;" horiz-adv-x="455" d="M50 77q5 -1 21 -3t38 -4.5t46.5 -4.5t47.5 -2q67 0 95.5 13t28.5 57q0 38 -22 54t-77 26l-59 12q-55 10 -88.5 45.5t-33.5 98.5q0 66 45.5 107t147.5 41q27 0 52.5 -2.5t46 -6t34.5 -7l18 -4.5l-13 -70q-5 1 -19.5 3.5t-34.5 5t-43 4.5t-43 2q-23 0 -42 -2.5t-33.5 -10 t-22.5 -21t-8 -34.5q0 -17 4.5 -29t14 -20.5t26 -14t40.5 -9.5l63 -13q76 -14 105 -50.5t29 -96.5q0 -81 -54.5 -117t-149.5 -36q-34 0 -63 2.5t-51.5 6t-37.5 6.5t-19 4zM99 725h79l61 -89l61 89h79l-99 -146h-82z" />
<glyph unicode="&#x162;" horiz-adv-x="570" d="M332 591v-591h-94v591h-210v82h514v-82h-210zM235 -59h103l-88 -116h-80z" />
<glyph unicode="&#x163;" horiz-adv-x="380" d="M193 433v-293q0 -17 2.5 -30.5t10 -23.5t22.5 -15t41 -5q18 0 34.5 1.5t30 4t22.5 4.5t12 3l-5 -71q-2 -1 -35.5 -9t-91.5 -8q-64 0 -97.5 31.5t-33.5 93.5v317h-73v72h73v133h88v-133h157v-72h-157zM188 -59h103l-88 -116h-80z" />
<glyph unicode="&#x164;" horiz-adv-x="570" d="M332 591v-591h-94v591h-210v82h514v-82h-210zM115 853h98l72 -63l72 63h98l-116 -116h-108z" />
<glyph unicode="&#x165;" horiz-adv-x="380" d="M193 433v-293q0 -17 2.5 -30.5t10 -23.5t22.5 -15t41 -5q18 0 34.5 1.5t30 4t22.5 4.5t12 3l-5 -71q-2 -1 -35.5 -9t-91.5 -8q-64 0 -97.5 31.5t-33.5 93.5v317h-73v72h73v133h88v-133h157v-72h-157zM275 725h91l-42 -162h-67z" />
<glyph unicode="&#x166;" horiz-adv-x="570" d="M89 353h149v238h-210v82h514v-82h-210v-238h149v-76h-149v-277h-94v277h-149v76z" />
<glyph unicode="&#x167;" horiz-adv-x="380" d="M32 289h73v144h-73v72h73v133h88v-133h157v-72h-157v-144h157v-72h-157v-77q0 -17 2.5 -30.5t10 -23.5t22.5 -15t41 -5q18 0 34.5 1.5t30 4t22.5 4.5t12 3l-5 -71q-2 -1 -35.5 -9t-91.5 -8q-64 0 -97.5 31.5t-33.5 93.5v101h-73v72z" />
<glyph unicode="&#x168;" horiz-adv-x="651" d="M325 -15q-60 0 -106.5 10.5t-78 38.5t-47.5 76.5t-16 125.5v437h93v-454q0 -49 10.5 -79.5t30.5 -48t48.5 -23.5t65.5 -6t66 6t49 23.5t30.5 48t10.5 79.5v454h93v-437q0 -77 -16.5 -125.5t-48 -76.5t-78 -38.5t-106.5 -10.5zM396 741q-21 0 -40.5 5t-37.5 11t-34 11 t-30 5q-19 0 -29 -9.5t-15 -29.5l-64 11q4 19 11.5 37t20.5 32t32.5 22.5t46.5 8.5q21 0 40 -5t36.5 -11t33 -11t30.5 -5q19 0 29 9t15 29l64 -11q-3 -19 -10.5 -36.5t-20.5 -31.5t-32 -22.5t-46 -8.5z" />
<glyph unicode="&#x169;" horiz-adv-x="551" d="M162 169q0 -48 18 -73.5t73 -25.5q28 0 52 5t41.5 11.5t28.5 12t14 7.5v399h89v-505h-73l-6 37q-5 -3 -19.5 -11t-37 -16.5t-51 -15t-61.5 -6.5q-75 0 -116 37t-41 120v360h89v-336zM340 591q-20 0 -37 5t-33 10.5t-30 10.5t-27 5q-17 0 -25 -9t-13 -29l-65 11 q4 19 11 37t19 32t30 22.5t43 8.5q19 0 36.5 -5t33 -10.5t29.5 -10.5t28 -5q17 0 25.5 8.5t13.5 28.5l64 -11q-3 -19 -10.5 -36.5t-19.5 -31.5t-30 -22.5t-43 -8.5z" />
<glyph unicode="&#x16a;" horiz-adv-x="651" d="M325 -15q-60 0 -106.5 10.5t-78 38.5t-47.5 76.5t-16 125.5v437h93v-454q0 -49 10.5 -79.5t30.5 -48t48.5 -23.5t65.5 -6t66 6t49 23.5t30.5 48t10.5 79.5v454h93v-437q0 -77 -16.5 -125.5t-48 -76.5t-78 -38.5t-106.5 -10.5zM160 839h341v-76h-341v76z" />
<glyph unicode="&#x16b;" horiz-adv-x="551" d="M162 169q0 -48 18 -73.5t73 -25.5q28 0 52 5t41.5 11.5t28.5 12t14 7.5v399h89v-505h-73l-6 37q-5 -3 -19.5 -11t-37 -16.5t-51 -15t-61.5 -6.5q-75 0 -116 37t-41 120v360h89v-336zM116 681h321v-76h-321v76z" />
<glyph unicode="&#x16c;" horiz-adv-x="651" d="M325 -15q-60 0 -106.5 10.5t-78 38.5t-47.5 76.5t-16 125.5v437h93v-454q0 -49 10.5 -79.5t30.5 -48t48.5 -23.5t65.5 -6t66 6t49 23.5t30.5 48t10.5 79.5v454h93v-437q0 -77 -16.5 -125.5t-48 -76.5t-78 -38.5t-106.5 -10.5zM326 801q38 0 55 14.5t22 45.5h75 q-1 -21 -8.5 -43t-24.5 -40t-46 -29.5t-73 -11.5t-73.5 11.5t-46.5 29.5t-24.5 40t-8.5 43h75q5 -31 22.5 -45.5t55.5 -14.5z" />
<glyph unicode="&#x16d;" horiz-adv-x="551" d="M162 169q0 -48 18 -73.5t73 -25.5q28 0 52 5t41.5 11.5t28.5 12t14 7.5v399h89v-505h-73l-6 37q-5 -3 -19.5 -11t-37 -16.5t-51 -15t-61.5 -6.5q-75 0 -116 37t-41 120v360h89v-336zM277 641q36 0 55.5 15t24.5 50h65q-1 -23 -7.5 -46.5t-23 -42.5t-44 -31t-70.5 -12 t-70.5 12t-44 31t-23 42.5t-7.5 46.5h65q5 -35 24.5 -50t55.5 -15z" />
<glyph unicode="&#x16e;" horiz-adv-x="651" d="M325 -15q-60 0 -106.5 10.5t-78 38.5t-47.5 76.5t-16 125.5v437h93v-454q0 -49 10.5 -79.5t30.5 -48t48.5 -23.5t65.5 -6t66 6t49 23.5t30.5 48t10.5 79.5v454h93v-437q0 -77 -16.5 -125.5t-48 -76.5t-78 -38.5t-106.5 -10.5zM326 684q-48 0 -81 30t-33 79q0 50 32.5 80 t81.5 30q48 0 80.5 -30.5t32.5 -79.5t-32.5 -79t-80.5 -30zM326 852q-26 0 -41.5 -16.5t-15.5 -42.5q0 -25 15.5 -41.5t41.5 -16.5t41.5 16.5t15.5 41.5q0 26 -15.5 42.5t-41.5 16.5z" />
<glyph unicode="&#x16f;" horiz-adv-x="551" d="M162 169q0 -48 18 -73.5t73 -25.5q28 0 52 5t41.5 11.5t28.5 12t14 7.5v399h89v-505h-73l-6 37q-5 -3 -19.5 -11t-37 -16.5t-51 -15t-61.5 -6.5q-75 0 -116 37t-41 120v360h89v-336zM277 569q-46 0 -77.5 28.5t-31.5 75.5q0 48 31 76.5t78 28.5q46 0 77 -29t31 -76 t-31 -75.5t-77 -28.5zM277 729q-25 0 -39.5 -16t-14.5 -40q0 -23 15 -39t39 -16t39 16t15 39q0 24 -15 40t-39 16z" />
<glyph unicode="&#x170;" horiz-adv-x="651" d="M325 -15q-60 0 -106.5 10.5t-78 38.5t-47.5 76.5t-16 125.5v437h93v-454q0 -49 10.5 -79.5t30.5 -48t48.5 -23.5t65.5 -6t66 6t49 23.5t30.5 48t10.5 79.5v454h93v-437q0 -77 -16.5 -125.5t-48 -76.5t-78 -38.5t-106.5 -10.5zM278 853h105l-107 -116h-81zM438 853h105 l-107 -116h-81z" />
<glyph unicode="&#x171;" horiz-adv-x="551" d="M162 169q0 -48 18 -73.5t73 -25.5q28 0 52 5t41.5 11.5t28.5 12t14 7.5v399h89v-505h-73l-6 37q-5 -3 -19.5 -11t-37 -16.5t-51 -15t-61.5 -6.5q-75 0 -116 37t-41 120v360h89v-336zM243 725h93l-103 -146h-73zM391 725h93l-103 -146h-73z" />
<glyph unicode="&#x172;" horiz-adv-x="651" d="M170 673v-454q0 -49 10.5 -79.5t30.5 -48t48.5 -23.5t65.5 -6t66 6t49 23.5t30.5 48t10.5 79.5v454h93v-437q0 -57 -9.5 -99t-27.5 -70.5t-44.5 -45.5t-60.5 -25q-13 -5 -26.5 -11.5t-24 -16t-17 -21t-6.5 -24.5q0 -19 13.5 -27.5t33.5 -8.5q23 0 39 6t23 10l24 -53 q-11 -7 -37 -15.5t-68 -8.5q-48 0 -78 18t-30 62q0 31 14.5 49.5t30.5 29.5q-60 0 -105.5 11t-77 38.5t-47.5 76t-16 125.5v437h93z" />
<glyph unicode="&#x173;" horiz-adv-x="551" d="M405 0l-6 37q-5 -3 -19.5 -11t-37 -16.5t-51 -15t-61.5 -6.5q-75 0 -116 37t-41 120v360h89v-336q0 -48 18 -73.5t73 -25.5q28 0 52 5t41.5 11.5t28.5 12t14 7.5v399h89v-505q-13 -3 -27 -9.5t-25.5 -16t-19 -22.5t-7.5 -29q0 -19 13 -27.5t34 -8.5q23 0 39 6t23 10 l24 -53q-11 -7 -37 -15.5t-68 -8.5q-48 0 -78 18t-30 62q0 25 12 42t27.5 28.5t30.5 17t22 6.5h-6z" />
<glyph unicode="&#x174;" horiz-adv-x="833" d="M725 673h91l-179 -673h-96l-127 520l-128 -520h-97l-172 673h98l126 -546l128 546h96l127 -546zM586 737h-98l-72 63l-72 -63h-98l116 116h108z" />
<glyph unicode="&#x175;" horiz-adv-x="761" d="M428 505l113 -412l111 412h92l-157 -505h-98l-107 386l-109 -386h-98l-158 505h98l111 -404l113 404h89zM520 579h-79l-61 89l-61 -89h-79l99 146h82z" />
<glyph unicode="&#x176;" horiz-adv-x="580" d="M477 673h90l-231 -359v-314h-93v314l-231 359h101l181 -289zM460 737h-98l-72 63l-72 -63h-98l116 116h108z" />
<glyph unicode="&#x177;" horiz-adv-x="508" d="M271 -81q-11 -27 -22.5 -52t-29.5 -44t-44 -30.5t-66 -11.5q-42 0 -69 6.5t-30 8.5l14 72q5 -2 26.5 -7t51.5 -5q38 0 57 18t33 54l35 94l-215 483h98l161 -370l134 370h91zM395 579h-79l-61 89l-61 -89h-79l99 146h82z" />
<glyph unicode="&#x178;" horiz-adv-x="580" d="M477 673h90l-231 -359v-314h-93v314l-231 359h101l181 -289zM135 839h100v-102h-100v102zM347 839h100v-102h-100v102z" />
<glyph unicode="&#x179;" horiz-adv-x="539" d="M140 81h357l-12 -81h-447v76l354 515h-333v82h425l10 -77zM326 853h124l-133 -116h-98z" />
<glyph unicode="&#x17a;" horiz-adv-x="483" d="M48 505h382l8 -68l-296 -365h309l-11 -72h-402v68l297 365h-287v72zM289 725h103l-112 -146h-79z" />
<glyph unicode="&#x17b;" horiz-adv-x="539" d="M140 81h357l-12 -81h-447v76l354 515h-333v82h425l10 -77zM221 845h105v-108h-105v108z" />
<glyph unicode="&#x17c;" horiz-adv-x="483" d="M48 505h382l8 -68l-296 -365h309l-11 -72h-402v68l297 365h-287v72zM199 692h96v-98h-96v98z" />
<glyph unicode="&#x17d;" horiz-adv-x="539" d="M140 81h357l-12 -81h-447v76l354 515h-333v82h425l10 -77zM104 853h98l72 -63l72 63h98l-116 -116h-108z" />
<glyph unicode="&#x17e;" horiz-adv-x="483" d="M48 505h382l8 -68l-296 -365h309l-11 -72h-402v68l297 365h-287v72zM108 725h79l61 -89l61 89h79l-99 -146h-82z" />
<glyph unicode="&#x17f;" horiz-adv-x="234" d="M73 574q0 78 36.5 117t116.5 39q45 0 74 -6.5t33 -7.5l-11 -68q-5 1 -26.5 5.5t-54.5 4.5q-25 0 -40.5 -6.5t-24.5 -18.5t-12 -29t-3 -39v-565h-88v574z" />
<glyph unicode="&#x192;" horiz-adv-x="355" d="M100 433h-73v72h73v69q0 78 36.5 117t116.5 39q45 0 74 -6.5t33 -7.5l-11 -68q-5 1 -26.5 5.5t-54.5 4.5q-25 0 -40.5 -6.5t-24.5 -18.5t-12 -29t-3 -39v-60h152v-72h-152v-499q0 -73 -36 -113t-114 -40q-46 0 -77 6t-34 7l12 72q5 -2 27.5 -5.5t55.5 -3.5q27 0 42.5 7 t23.5 19t10 28.5t2 36.5v485z" />
<glyph unicode="&#x218;" horiz-adv-x="537" d="M52 89q7 -2 28 -6t47.5 -7.5t55 -6.5t49.5 -3q45 0 75.5 5t49.5 18t27.5 34.5t8.5 53.5q0 28 -7 46.5t-21.5 31t-36 20.5t-50.5 14l-77 18q-75 17 -114 63t-39 126q0 89 54.5 140.5t174.5 51.5q32 0 63 -3.5t56 -8t42.5 -9t23.5 -6.5l-13 -75q-5 1 -22 4.5t-40.5 7 t-52.5 6.5t-58 3t-54 -4t-43.5 -15.5t-29 -32t-10.5 -53.5q0 -52 26.5 -75t75.5 -34l85 -19q90 -21 126 -68.5t36 -122.5q0 -54 -17 -91.5t-48 -61t-75.5 -34.5t-98.5 -11q-45 0 -83 4t-66 9t-44.5 9t-18.5 5zM218 -59h103l-88 -116h-80z" />
<glyph unicode="&#x219;" horiz-adv-x="455" d="M50 77q5 -1 21 -3t38 -4.5t46.5 -4.5t47.5 -2q67 0 95.5 13t28.5 57q0 38 -22 54t-77 26l-59 12q-55 10 -88.5 45.5t-33.5 98.5q0 66 45.5 107t147.5 41q27 0 52.5 -2.5t46 -6t34.5 -7l18 -4.5l-13 -70q-5 1 -19.5 3.5t-34.5 5t-43 4.5t-43 2q-23 0 -42 -2.5t-33.5 -10 t-22.5 -21t-8 -34.5q0 -17 4.5 -29t14 -20.5t26 -14t40.5 -9.5l63 -13q76 -14 105 -50.5t29 -96.5q0 -81 -54.5 -117t-149.5 -36q-34 0 -63 2.5t-51.5 6t-37.5 6.5t-19 4zM180 -59h103l-88 -116h-80z" />
<glyph unicode="&#x21a;" horiz-adv-x="570" d="M332 591v-591h-94v591h-210v82h514v-82h-210zM235 -59h103l-88 -116h-80z" />
<glyph unicode="&#x21b;" horiz-adv-x="380" d="M193 433v-293q0 -17 2.5 -30.5t10 -23.5t22.5 -15t41 -5q18 0 34.5 1.5t30 4t22.5 4.5t12 3l-5 -71q-2 -1 -35.5 -9t-91.5 -8q-64 0 -97.5 31.5t-33.5 93.5v317h-73v72h73v133h88v-133h157v-72h-157zM188 -59h103l-88 -116h-80z" />
<glyph unicode="&#x237;" horiz-adv-x="241" d="M76 505h89v-571q0 -73 -36.5 -113t-114.5 -40q-46 0 -77 6t-34 7l12 72q5 -2 27.5 -5.5t55.5 -3.5q27 0 42.5 7t23.5 19t10 28.5t2 36.5v557z" />
<glyph unicode="&#x2bc;" horiz-adv-x="216" d="M75 673h93l-52 -205h-69z" />
<glyph unicode="&#x2c6;" horiz-adv-x="525" d="M402 579h-79l-61 89l-61 -89h-79l99 146h82z" />
<glyph unicode="&#x2c7;" horiz-adv-x="525" d="M122 725h79l61 -89l61 89h79l-99 -146h-82z" />
<glyph unicode="&#x2c9;" horiz-adv-x="525" d="M102 681h321v-76h-321v76z" />
<glyph unicode="&#x2d8;" horiz-adv-x="525" d="M263 641q36 0 55.5 15t24.5 50h65q-1 -23 -7.5 -46.5t-23 -42.5t-44 -31t-70.5 -12t-70.5 12t-44 31t-23 42.5t-7.5 46.5h65q5 -35 24.5 -50t55.5 -15z" />
<glyph unicode="&#x2d9;" horiz-adv-x="525" d="M214 692h96v-98h-96v98z" />
<glyph unicode="&#x2da;" horiz-adv-x="460" d="M230 569q-46 0 -77.5 28.5t-31.5 75.5q0 48 31 76.5t78 28.5q46 0 77 -29t31 -76t-31 -75.5t-77 -28.5zM230 729q-25 0 -39.5 -16t-14.5 -40q0 -23 15 -39t39 -16t39 16t15 39q0 24 -15 40t-39 16z" />
<glyph unicode="&#x2db;" horiz-adv-x="460" d="M283 0q-14 -3 -28 -9.5t-25.5 -16t-19 -22.5t-7.5 -29q0 -19 13 -27.5t34 -8.5q23 0 39 6t23 10l24 -53q-11 -7 -37 -15.5t-68 -8.5q-48 0 -78 18t-30 62q0 25 9.5 42t21.5 28t24 16.5t17 7.5h88z" />
<glyph unicode="&#x2dc;" horiz-adv-x="525" d="M326 591q-20 0 -37 5t-33 10.5t-30 10.5t-27 5q-17 0 -25 -9t-13 -29l-65 11q4 19 11 37t19 32t30 22.5t43 8.5q19 0 36.5 -5t33 -10.5t29.5 -10.5t28 -5q17 0 25.5 8.5t13.5 28.5l64 -11q-3 -19 -10.5 -36.5t-19.5 -31.5t-30 -22.5t-43 -8.5z" />
<glyph unicode="&#x2dd;" horiz-adv-x="525" d="M183 725h93l-103 -146h-73zM331 725h93l-103 -146h-73z" />
<glyph unicode="&#x394;" horiz-adv-x="610" d="M257 673h97l239 -673h-576zM133 76h335l-165 480z" />
<glyph unicode="&#x3a9;" horiz-adv-x="699" d="M349 688q71 0 123.5 -18t87.5 -57.5t52 -103.5t17 -155q0 -63 -11 -109.5t-27 -80t-34 -54.5t-32 -32h114v-78h-234v70q23 10 45.5 28.5t40 51t28.5 82t11 120.5q0 75 -10 124.5t-32 79.5t-56.5 42.5t-82.5 12.5t-82 -12.5t-56 -42.5t-32 -79.5t-10 -124.5 q0 -71 11 -120.5t28.5 -82t40 -51t45.5 -28.5v-70h-234v78h114q-14 11 -32 32t-34 54.5t-27 80t-11 109.5q0 91 17 155t51.5 103.5t87 57.5t123.5 18z" />
<glyph unicode="&#x3bc;" horiz-adv-x="551" d="M162 169q0 -24 4 -42.5t15 -31t30.5 -19t49.5 -6.5q25 0 47 5t39.5 11.5t28 12t13.5 7.5v399h89v-505h-73l-6 37q-5 -3 -18.5 -11t-32.5 -16.5t-43 -15t-49 -6.5q-23 0 -39.5 4t-28 9t-18 10t-8.5 7v-237h-89v724h89v-336z" />
<glyph unicode="&#x3c0;" horiz-adv-x="581" d="M389 433h-197v-433h-89v433h-63v72h501v-72h-63v-433h-89v433z" />
<glyph unicode="&#x1e80;" horiz-adv-x="833" d="M725 673h91l-179 -673h-96l-127 520l-128 -520h-97l-172 673h98l126 -546l128 546h96l127 -546zM472 737h-98l-133 116h124z" />
<glyph unicode="&#x1e81;" horiz-adv-x="761" d="M428 505l113 -412l111 412h92l-157 -505h-98l-107 386l-109 -386h-98l-158 505h98l111 -404l113 404h89zM426 579h-79l-112 146h103z" />
<glyph unicode="&#x1e82;" horiz-adv-x="833" d="M725 673h91l-179 -673h-96l-127 520l-128 -520h-97l-172 673h98l126 -546l128 546h96l127 -546zM468 853h124l-133 -116h-98z" />
<glyph unicode="&#x1e83;" horiz-adv-x="761" d="M428 505l113 -412l111 412h92l-157 -505h-98l-107 386l-109 -386h-98l-158 505h98l111 -404l113 404h89zM433 725h103l-112 -146h-79z" />
<glyph unicode="&#x1e84;" horiz-adv-x="833" d="M725 673h91l-179 -673h-96l-127 520l-128 -520h-97l-172 673h98l126 -546l128 546h96l127 -546zM261 839h100v-102h-100v102zM473 839h100v-102h-100v102z" />
<glyph unicode="&#x1e85;" horiz-adv-x="761" d="M428 505l113 -412l111 412h92l-157 -505h-98l-107 386l-109 -386h-98l-158 505h98l111 -404l113 404h89zM248 690h92v-94h-92v94zM422 690h92v-94h-92v94z" />
<glyph unicode="&#x1ef2;" horiz-adv-x="580" d="M477 673h90l-231 -359v-314h-93v314l-231 359h101l181 -289zM357 737h-98l-133 116h124z" />
<glyph unicode="&#x1ef3;" horiz-adv-x="508" d="M271 -81q-11 -27 -22.5 -52t-29.5 -44t-44 -30.5t-66 -11.5q-42 0 -69 6.5t-30 8.5l14 72q5 -2 26.5 -7t51.5 -5q38 0 57 18t33 54l35 94l-215 483h98l161 -370l134 370h91zM321 579h-79l-112 146h103z" />
<glyph unicode="&#x2013;" horiz-adv-x="500" d="M0 329h500v-86h-500v86z" />
<glyph unicode="&#x2014;" horiz-adv-x="1000" d="M0 329h1000v-86h-1000v86z" />
<glyph unicode="&#x2018;" horiz-adv-x="216" d="M140 468h-93l52 205h69z" />
<glyph unicode="&#x2019;" horiz-adv-x="216" d="M76 673h93l-52 -205h-69z" />
<glyph unicode="&#x201a;" horiz-adv-x="216" d="M76 99h93l-52 -205h-69z" />
<glyph unicode="&#x201c;" horiz-adv-x="380" d="M140 468h-93l52 205h69zM304 468h-93l52 205h69z" />
<glyph unicode="&#x201d;" horiz-adv-x="380" d="M76 673h93l-52 -205h-69zM240 673h93l-52 -205h-69z" />
<glyph unicode="&#x201e;" horiz-adv-x="380" d="M76 99h93l-52 -205h-69zM240 99h93l-52 -205h-69z" />
<glyph unicode="&#x2020;" horiz-adv-x="485" d="M28 497h170v228h89v-228h170v-72h-170v-535h-89v535h-170v72z" />
<glyph unicode="&#x2021;" horiz-adv-x="519" d="M50 160h165v295h-165v72h165v198h89v-198h165v-72h-165v-295h165v-72h-165v-198h-89v198h-165v72z" />
<glyph unicode="&#x2022;" horiz-adv-x="458" d="M45 321q0 38 14.5 71.5t39.5 58.5t58.5 39.5t71.5 14.5t71.5 -14.5t58.5 -39.5t39.5 -58.5t14.5 -71.5t-14.5 -71.5t-39.5 -58.5t-58.5 -39.5t-71.5 -14.5t-71.5 14.5t-58.5 39.5t-39.5 58.5t-14.5 71.5z" />
<glyph unicode="&#x2026;" horiz-adv-x="721" d="M308 114h115v-114h-115v114zM71 114h115v-114h-115v114zM545 114h115v-114h-115v114z" />
<glyph unicode="&#x2030;" horiz-adv-x="1240" d="M193 679q34 0 62.5 -10t49 -33t31.5 -60t11 -91t-11 -91.5t-31.5 -60.5t-49 -33.5t-62.5 -10.5q-35 0 -63 10.5t-48 33.5t-31 60.5t-11 91.5t11 91t31 60t48 33t63 10zM193 351q39 0 56.5 28.5t17.5 105.5t-17 105t-57 28q-38 0 -55.5 -28t-17.5 -105t17.5 -105.5 t55.5 -28.5zM669 385q34 0 62.5 -10t49 -33t31.5 -60t11 -91t-11 -91.5t-31.5 -60.5t-49 -33.5t-62.5 -10.5q-35 0 -63 10.5t-48 33.5t-31 60.5t-11 91.5t11 91t31 60t48 33t63 10zM669 57q39 0 56.5 28.5t17.5 105.5t-17 105t-57 28q-38 0 -55.5 -28t-17.5 -105 t17.5 -105.5t55.5 -28.5zM300 0h-85l348 673h85zM1046 385q34 0 62.5 -10t49 -33t31.5 -60t11 -91t-11 -91.5t-31.5 -60.5t-49 -33.5t-62.5 -10.5q-35 0 -63 10.5t-48 33.5t-31 60.5t-11 91.5t11 91t31 60t48 33t63 10zM1046 57q39 0 56.5 28.5t17.5 105.5t-17 105t-57 28 q-38 0 -55.5 -28t-17.5 -105t17.5 -105.5t55.5 -28.5z" />
<glyph unicode="&#x2039;" horiz-adv-x="312" d="M52 252l146 229l62 -34l-109 -195l109 -194l-63 -35z" />
<glyph unicode="&#x203a;" horiz-adv-x="312" d="M115 23l-63 35l109 194l-109 195l62 34l146 -229z" />
<glyph unicode="&#x2044;" horiz-adv-x="129" d="M-67 0h-85l348 673h85z" />
<glyph unicode="&#x2070;" d="M193 679q34 0 62.5 -10t49 -33t31.5 -60t11 -91t-11 -91.5t-31.5 -60.5t-49 -33.5t-62.5 -10.5q-35 0 -63 10.5t-48 33.5t-31 60.5t-11 91.5t11 91t31 60t48 33t63 10zM193 351q39 0 56.5 28.5t17.5 105.5t-17 105t-57 28q-38 0 -55.5 -28t-17.5 -105t17.5 -105.5 t55.5 -28.5z" />
<glyph unicode="&#x2074;" d="M301 433h48v-55h-48v-83h-69v83h-195v52l194 243h70v-240zM232 433v153l-123 -153h123z" />
<glyph unicode="&#x2075;" d="M333 415q0 -55 -39.5 -90.5t-118.5 -35.5q-19 0 -40 1.5t-39.5 4t-32.5 4.5t-18 3l14 59q5 -1 17.5 -2.5t28.5 -3t33 -2.5t32 -1q38 0 62.5 13t24.5 48q0 32 -20.5 44.5t-61.5 12.5q-11 0 -24.5 -1.5t-26 -3t-22.5 -3t-14 -1.5l-25 35l22 177h233v-64h-180l-10 -83 q3 1 20 3t45 2q69 0 104.5 -30t35.5 -86z" />
<glyph unicode="&#x2076;" d="M317 608q-5 1 -30 5.5t-56 4.5q-41 0 -70.5 -21.5t-38.5 -74.5q5 3 30.5 10.5t60.5 7.5q37 0 62.5 -9t41.5 -25t23.5 -38t7.5 -48q0 -65 -38 -98t-110 -33q-75 0 -114 41.5t-39 140.5q0 54 13.5 93.5t37.5 65t57.5 37.5t73.5 12q19 0 37 -2t32 -4.5t23 -5t10 -2.5z M201 484q-28 0 -52 -8.5t-29 -10.5q0 -36 5.5 -59.5t16 -36.5t26 -18t34.5 -5q74 0 74 73q0 30 -16.5 47.5t-58.5 17.5z" />
<glyph unicode="&#x2077;" d="M38 673h278l6 -49l-148 -329h-78l145 312h-203v66z" />
<glyph unicode="&#x2078;" d="M36 394q0 38 26 61t59 32q-30 12 -51 34.5t-21 52.5q0 46 36 75.5t107 29.5q72 0 109 -25.5t37 -75.5q0 -32 -19.5 -51.5t-48.5 -26.5q42 -20 61 -41t19 -59q0 -28 -11.5 -49t-32.5 -34.5t-50 -20.5t-63 -7q-71 0 -114 25.5t-43 79.5zM275 398q0 14 -7.5 24t-19.5 17.5 t-28.5 13t-34.5 10.5q-14 -4 -27.5 -9t-24 -13t-17 -19.5t-6.5 -27.5q0 -20 21 -35t62 -15q42 0 62 14.5t20 39.5zM122 577q0 -11 7.5 -20t19.5 -15.5t26.5 -11.5t28.5 -9q26 9 44 22t18 36q0 22 -17 34t-56 12q-34 0 -52.5 -12.5t-18.5 -35.5z" />
<glyph unicode="&#x2079;" d="M70 360q8 -2 34 -6t52 -4q40 0 70 21.5t39 74.5q-5 -3 -30.5 -10.5t-60.5 -7.5q-37 0 -62.5 9t-41.5 25t-23.5 38t-7.5 48q0 62 38 96.5t110 34.5q75 0 114 -41.5t39 -140.5q0 -54 -13.5 -93.5t-37.5 -65t-57.5 -37.5t-73.5 -12q-19 0 -37 2t-32 4.5t-23 5t-10 2.5z M186 484q28 0 52 7.5t29 9.5q0 36 -5.5 59.5t-16 37t-26 19t-34.5 5.5q-74 0 -74 -73q0 -30 16.5 -47.5t58.5 -17.5z" />
<glyph unicode="&#x2080;" d="M193 385q34 0 62.5 -10t49 -33t31.5 -60t11 -91t-11 -91.5t-31.5 -60.5t-49 -33.5t-62.5 -10.5q-35 0 -63 10.5t-48 33.5t-31 60.5t-11 91.5t11 91t31 60t48 33t63 10zM193 57q39 0 56.5 28.5t17.5 105.5t-17 105t-57 28q-38 0 -55.5 -28t-17.5 -105t17.5 -105.5 t55.5 -28.5z" />
<glyph unicode="&#x2081;" d="M58 331l151 48h50v-378h-79v303l-102 -32z" />
<glyph unicode="&#x2082;" d="M213 132q-37 -20 -56.5 -35t-28.5 -29h204l-12 -67h-278v31q0 26 10 47t27 38.5t38.5 32.5t44.5 28q42 23 65 43t23 49t-20.5 39.5t-54.5 10.5q-19 0 -39 -4t-38 -9.5t-31 -10.5t-18 -7l6 66q2 1 14 6t30 10t40 9.5t45 4.5q70 0 106.5 -30t36.5 -84q0 -26 -10.5 -46.5 t-27 -38t-37 -31t-39.5 -23.5z" />
<glyph unicode="&#x2083;" d="M101 223h73q42 0 58.5 13.5t16.5 33.5q0 30 -21 40.5t-58 10.5q-21 0 -41.5 -3t-37 -6.5t-27.5 -6.5t-13 -3l5 63q2 1 13 4t28.5 6.5t38.5 6.5t42 3q73 0 108.5 -27.5t35.5 -77.5q0 -61 -59 -86q65 -22 65 -86q0 -51 -39 -82t-119 -31q-27 0 -50 2t-41 4t-27.5 4t-13.5 3 l12 62q3 -1 14 -3t27 -4t34.5 -3.5t36.5 -1.5q45 0 67.5 11.5t22.5 42.5q0 23 -17.5 36.5t-59.5 13.5h-74v61z" />
<glyph unicode="&#x2084;" d="M301 139h48v-55h-48v-83h-69v83h-195v52l194 243h70v-240zM232 139v153l-123 -153h123z" />
<glyph unicode="&#x2085;" d="M333 121q0 -55 -39.5 -90.5t-118.5 -35.5q-19 0 -40 1.5t-39.5 4t-32.5 4.5t-18 3l14 59q5 -1 17.5 -2.5t28.5 -3t33 -2.5t32 -1q38 0 62.5 13t24.5 48q0 32 -20.5 44.5t-61.5 12.5q-11 0 -24.5 -1.5t-26 -3t-22.5 -3t-14 -1.5l-25 35l22 177h233v-64h-180l-10 -83 q3 1 20 3t45 2q69 0 104.5 -30t35.5 -86z" />
<glyph unicode="&#x2086;" d="M317 314q-5 1 -30 5.5t-56 4.5q-41 0 -70.5 -21.5t-38.5 -74.5q5 3 30.5 10.5t60.5 7.5q37 0 62.5 -9t41.5 -25t23.5 -38t7.5 -48q0 -65 -38 -98t-110 -33q-75 0 -114 41.5t-39 140.5q0 54 13.5 93.5t37.5 65t57.5 37.5t73.5 12q19 0 37 -2t32 -4.5t23 -5t10 -2.5z M201 190q-28 0 -52 -8.5t-29 -10.5q0 -36 5.5 -59.5t16 -36.5t26 -18t34.5 -5q74 0 74 73q0 30 -16.5 47.5t-58.5 17.5z" />
<glyph unicode="&#x2087;" d="M38 379h278l6 -49l-148 -329h-78l145 312h-203v66z" />
<glyph unicode="&#x2088;" d="M36 100q0 38 26 61t59 32q-30 12 -51 34.5t-21 52.5q0 46 36 75.5t107 29.5q72 0 109 -25.5t37 -75.5q0 -32 -19.5 -51.5t-48.5 -26.5q42 -20 61 -41t19 -59q0 -28 -11.5 -49t-32.5 -34.5t-50 -20.5t-63 -7q-71 0 -114 25.5t-43 79.5zM275 104q0 14 -7.5 24t-19.5 17.5 t-28.5 13t-34.5 10.5q-14 -4 -27.5 -9t-24 -13t-17 -19.5t-6.5 -27.5q0 -20 21 -35t62 -15q42 0 62 14.5t20 39.5zM122 283q0 -11 7.5 -20t19.5 -15.5t26.5 -11.5t28.5 -9q26 9 44 22t18 36q0 22 -17 34t-56 12q-34 0 -52.5 -12.5t-18.5 -35.5z" />
<glyph unicode="&#x2089;" d="M70 66q8 -2 34 -6t52 -4q40 0 70 21.5t39 74.5q-5 -3 -30.5 -10.5t-60.5 -7.5q-37 0 -62.5 9t-41.5 25t-23.5 38t-7.5 48q0 62 38 96.5t110 34.5q75 0 114 -41.5t39 -140.5q0 -54 -13.5 -93.5t-37.5 -65t-57.5 -37.5t-73.5 -12q-19 0 -37 2t-32 4.5t-23 5t-10 2.5z M186 190q28 0 52 7.5t29 9.5q0 36 -5.5 59.5t-16 37t-26 19t-34.5 5.5q-74 0 -74 -73q0 -30 16.5 -47.5t58.5 -17.5z" />
<glyph unicode="&#x20ac;" horiz-adv-x="576" d="M47 454h83q10 59 32.5 100.5t55.5 68t76 38.5t95 12q32 0 60 -4.5t50 -10t36 -11t18 -7.5l-18 -68q-3 1 -16.5 4t-33 7t-42.5 7t-45 3q-72 0 -116 -30t-60 -109h256l-13 -68h-252q-1 -13 -1 -26.5v-27.5v-22.5t1 -21.5h244l-12 -68h-225q8 -45 23 -74.5t38 -47t53 -24.5 t68 -7q22 0 47 3t46 6.5t36 7t18 4.5l-8 -76q-2 -1 -15 -4.5t-34 -8t-49 -8t-60 -3.5q-50 0 -92.5 12.5t-75.5 40t-55.5 71.5t-32.5 108h-80v68h73q-1 11 -1 21.5v22.5v27.5t1 26.5h-73v68z" />
<glyph unicode="&#x20b9;" horiz-adv-x="576" d="M351 496q-8 42 -36.5 64t-76.5 22h-166v75h468l-9 -64h-154q26 -17 42 -42t22 -55h77l-9 -63h-65q-8 -79 -69 -118t-172 -39h-9l292 -276h-116l-305 289l11 51h103q81 0 123 19.5t50 73.5h-280v63h279z" />
<glyph unicode="&#x2113;" horiz-adv-x="513" d="M457 88q-35 -54 -79 -77t-92 -23q-72 0 -112 42t-40 108v60l-53 -51l-29 52l81 76v249q0 56 11.5 97t32 68t48.5 40.5t60 13.5q62 0 93 -42.5t31 -110.5q0 -81 -47 -162.5t-134 -169.5v-98q0 -25 7 -42.5t18.5 -28.5t25.5 -16t29 -5q31 0 58.5 18.5t50.5 46.5zM228 347 q53 62 82.5 125t29.5 117q0 39 -13 61.5t-38 22.5q-23 0 -42 -30.5t-19 -106.5v-189z" />
<glyph unicode="&#x2122;" horiz-adv-x="981" d="M251 606v-384h-75v384h-151v67h377v-67h-151zM547 547v-325h-73v451h78l129 -254l127 254h78v-451h-72v331l-105 -201h-62z" />
<glyph unicode="&#x2126;" horiz-adv-x="699" d="M349 688q71 0 123.5 -18t87.5 -57.5t52 -103.5t17 -155q0 -63 -11 -109.5t-27 -80t-34 -54.5t-32 -32h114v-78h-234v70q23 10 45.5 28.5t40 51t28.5 82t11 120.5q0 75 -10 124.5t-32 79.5t-56.5 42.5t-82.5 12.5t-82 -12.5t-56 -42.5t-32 -79.5t-10 -124.5 q0 -71 11 -120.5t28.5 -82t40 -51t45.5 -28.5v-70h-234v78h114q-14 11 -32 32t-34 54.5t-27 80t-11 109.5q0 91 17 155t51.5 103.5t87 57.5t123.5 18z" />
<glyph unicode="&#x212e;" horiz-adv-x="880" d="M191 339q-5 0 -5 -4v-197q0 -13 9 -22q48 -51 110 -79t135 -28q79 0 145 32.5t114 86.5h57q-26 -32 -60.5 -57.5t-75.5 -43.5t-87 -28t-94 -10q-83 0 -156 28.5t-127 77t-85.5 114t-31.5 140.5t31.5 140.5t85.5 114.5t127 77.5t156 28.5t156.5 -28.5t128 -77.5t86 -114.5 t31.5 -140.5v-10h-650zM693 562q0 13 -9 24q-48 48 -110 75t-134 27t-134.5 -29t-109.5 -77q-5 -4 -7.5 -10.5t-2.5 -13.5v-193q0 -7 5 -7h498q4 0 4 7v197z" />
<glyph unicode="&#x2153;" horiz-adv-x="883" d="M29 625l151 48h50v-378h-79v303l-102 -32zM260 0h-85l348 673h85zM567 223h73q42 0 58.5 13.5t16.5 33.5q0 30 -21 40.5t-58 10.5q-21 0 -41.5 -3t-37 -6.5t-27.5 -6.5t-13 -3l5 63q2 1 13 4t28.5 6.5t38.5 6.5t42 3q73 0 108.5 -27.5t35.5 -77.5q0 -61 -59 -86 q65 -22 65 -86q0 -51 -39 -82t-119 -31q-27 0 -50 2t-41 4t-27.5 4t-13.5 3l12 62q3 -1 14 -3t27 -4t34.5 -3.5t36.5 -1.5q45 0 67.5 11.5t22.5 42.5q0 23 -17.5 36.5t-59.5 13.5h-74v61z" />
<glyph unicode="&#x2154;" horiz-adv-x="883" d="M223 426q-37 -20 -56.5 -35t-28.5 -29h204l-12 -67h-278v31q0 26 10 47t27 38.5t38.5 32.5t44.5 28q42 23 65 43t23 49t-20.5 39.5t-54.5 10.5q-19 0 -39 -4t-38 -9.5t-31 -10.5t-18 -7l6 66q2 1 14 6t30 10t40 9.5t45 4.5q70 0 106.5 -30t36.5 -84q0 -26 -10.5 -46.5 t-27 -38t-37 -31t-39.5 -23.5zM320 0h-85l348 673h85zM607 223h73q42 0 58.5 13.5t16.5 33.5q0 30 -21 40.5t-58 10.5q-21 0 -41.5 -3t-37 -6.5t-27.5 -6.5t-13 -3l5 63q2 1 13 4t28.5 6.5t38.5 6.5t42 3q73 0 108.5 -27.5t35.5 -77.5q0 -61 -59 -86q65 -22 65 -86 q0 -51 -39 -82t-119 -31q-27 0 -50 2t-41 4t-27.5 4t-13.5 3l12 62q3 -1 14 -3t27 -4t34.5 -3.5t36.5 -1.5q45 0 67.5 11.5t22.5 42.5q0 23 -17.5 36.5t-59.5 13.5h-74v61z" />
<glyph unicode="&#x2155;" horiz-adv-x="883" d="M29 625l151 48h50v-378h-79v303l-102 -32zM260 0h-85l348 673h85zM799 121q0 -55 -39.5 -90.5t-118.5 -35.5q-19 0 -40 1.5t-39.5 4t-32.5 4.5t-18 3l14 59q5 -1 17.5 -2.5t28.5 -3t33 -2.5t32 -1q38 0 62.5 13t24.5 48q0 32 -20.5 44.5t-61.5 12.5q-11 0 -24.5 -1.5 t-26 -3t-22.5 -3t-14 -1.5l-25 35l22 177h233v-64h-180l-10 -83q3 1 20 3t45 2q69 0 104.5 -30t35.5 -86z" />
<glyph unicode="&#x2156;" horiz-adv-x="883" d="M223 426q-37 -20 -56.5 -35t-28.5 -29h204l-12 -67h-278v31q0 26 10 47t27 38.5t38.5 32.5t44.5 28q42 23 65 43t23 49t-20.5 39.5t-54.5 10.5q-19 0 -39 -4t-38 -9.5t-31 -10.5t-18 -7l6 66q2 1 14 6t30 10t40 9.5t45 4.5q70 0 106.5 -30t36.5 -84q0 -26 -10.5 -46.5 t-27 -38t-37 -31t-39.5 -23.5zM320 0h-85l348 673h85zM839 121q0 -55 -39.5 -90.5t-118.5 -35.5q-19 0 -40 1.5t-39.5 4t-32.5 4.5t-18 3l14 59q5 -1 17.5 -2.5t28.5 -3t33 -2.5t32 -1q38 0 62.5 13t24.5 48q0 32 -20.5 44.5t-61.5 12.5q-11 0 -24.5 -1.5t-26 -3t-22.5 -3 t-14 -1.5l-25 35l22 177h233v-64h-180l-10 -83q3 1 20 3t45 2q69 0 104.5 -30t35.5 -86z" />
<glyph unicode="&#x2157;" horiz-adv-x="883" d="M116 517h73q42 0 58.5 13.5t16.5 33.5q0 30 -21 40.5t-58 10.5q-21 0 -41.5 -3t-37 -6.5t-27.5 -6.5t-13 -3l5 63q2 1 13 4t28.5 6.5t38.5 6.5t42 3q73 0 108.5 -27.5t35.5 -77.5q0 -61 -59 -86q65 -22 65 -86q0 -51 -39 -82t-119 -31q-27 0 -50 2t-41 4t-27.5 4t-13.5 3 l12 62q3 -1 14 -3t27 -4t34.5 -3.5t36.5 -1.5q45 0 67.5 11.5t22.5 42.5q0 23 -17.5 36.5t-59.5 13.5h-74v61zM325 0h-85l348 673h85zM844 121q0 -55 -39.5 -90.5t-118.5 -35.5q-19 0 -40 1.5t-39.5 4t-32.5 4.5t-18 3l14 59q5 -1 17.5 -2.5t28.5 -3t33 -2.5t32 -1 q38 0 62.5 13t24.5 48q0 32 -20.5 44.5t-61.5 12.5q-11 0 -24.5 -1.5t-26 -3t-22.5 -3t-14 -1.5l-25 35l22 177h233v-64h-180l-10 -83q3 1 20 3t45 2q69 0 104.5 -30t35.5 -86z" />
<glyph unicode="&#x2158;" horiz-adv-x="883" d="M306 433h48v-55h-48v-83h-69v83h-195v52l194 243h70v-240zM237 433v153l-123 -153h123zM315 0h-85l348 673h85zM834 121q0 -55 -39.5 -90.5t-118.5 -35.5q-19 0 -40 1.5t-39.5 4t-32.5 4.5t-18 3l14 59q5 -1 17.5 -2.5t28.5 -3t33 -2.5t32 -1q38 0 62.5 13t24.5 48 q0 32 -20.5 44.5t-61.5 12.5q-11 0 -24.5 -1.5t-26 -3t-22.5 -3t-14 -1.5l-25 35l22 177h233v-64h-180l-10 -83q3 1 20 3t45 2q69 0 104.5 -30t35.5 -86z" />
<glyph unicode="&#x2159;" horiz-adv-x="883" d="M29 625l151 48h50v-378h-79v303l-102 -32zM270 0h-85l348 673h85zM783 314q-5 1 -30 5.5t-56 4.5q-41 0 -70.5 -21.5t-38.5 -74.5q5 3 30.5 10.5t60.5 7.5q37 0 62.5 -9t41.5 -25t23.5 -38t7.5 -48q0 -65 -38 -98t-110 -33q-75 0 -114 41.5t-39 140.5q0 54 13.5 93.5 t37.5 65t57.5 37.5t73.5 12q19 0 37 -2t32 -4.5t23 -5t10 -2.5zM667 190q-28 0 -52 -8.5t-29 -10.5q0 -36 5.5 -59.5t16 -36.5t26 -18t34.5 -5q74 0 74 73q0 30 -16.5 47.5t-58.5 17.5z" />
<glyph unicode="&#x215a;" horiz-adv-x="883" d="M338 415q0 -55 -39.5 -90.5t-118.5 -35.5q-19 0 -40 1.5t-39.5 4t-32.5 4.5t-18 3l14 59q5 -1 17.5 -2.5t28.5 -3t33 -2.5t32 -1q38 0 62.5 13t24.5 48q0 32 -20.5 44.5t-61.5 12.5q-11 0 -24.5 -1.5t-26 -3t-22.5 -3t-14 -1.5l-25 35l22 177h233v-64h-180l-10 -83 q3 1 20 3t45 2q69 0 104.5 -30t35.5 -86zM315 0h-85l348 673h85zM818 314q-5 1 -30 5.5t-56 4.5q-41 0 -70.5 -21.5t-38.5 -74.5q5 3 30.5 10.5t60.5 7.5q37 0 62.5 -9t41.5 -25t23.5 -38t7.5 -48q0 -65 -38 -98t-110 -33q-75 0 -114 41.5t-39 140.5q0 54 13.5 93.5t37.5 65 t57.5 37.5t73.5 12q19 0 37 -2t32 -4.5t23 -5t10 -2.5zM702 190q-28 0 -52 -8.5t-29 -10.5q0 -36 5.5 -59.5t16 -36.5t26 -18t34.5 -5q74 0 74 73q0 30 -16.5 47.5t-58.5 17.5z" />
<glyph unicode="&#x215b;" horiz-adv-x="883" d="M63 625l151 48h50v-378h-79v303l-102 -32zM310 0h-85l348 673h85zM537 100q0 38 26 61t59 32q-30 12 -51 34.5t-21 52.5q0 46 36 75.5t107 29.5q72 0 109 -25.5t37 -75.5q0 -32 -19.5 -51.5t-48.5 -26.5q42 -20 61 -41t19 -59q0 -28 -11.5 -49t-32.5 -34.5t-50 -20.5 t-63 -7q-71 0 -114 25.5t-43 79.5zM776 104q0 14 -7.5 24t-19.5 17.5t-28.5 13t-34.5 10.5q-14 -4 -27.5 -9t-24 -13t-17 -19.5t-6.5 -27.5q0 -20 21 -35t62 -15q42 0 62 14.5t20 39.5zM623 283q0 -11 7.5 -20t19.5 -15.5t26.5 -11.5t28.5 -9q26 9 44 22t18 36q0 22 -17 34 t-56 12q-34 0 -52.5 -12.5t-18.5 -35.5z" />
<glyph unicode="&#x215c;" horiz-adv-x="883" d="M106 517h73q42 0 58.5 13.5t16.5 33.5q0 30 -21 40.5t-58 10.5q-21 0 -41.5 -3t-37 -6.5t-27.5 -6.5t-13 -3l5 63q2 1 13 4t28.5 6.5t38.5 6.5t42 3q73 0 108.5 -27.5t35.5 -77.5q0 -61 -59 -86q65 -22 65 -86q0 -51 -39 -82t-119 -31q-27 0 -50 2t-41 4t-27.5 4t-13.5 3 l12 62q3 -1 14 -3t27 -4t34.5 -3.5t36.5 -1.5q45 0 67.5 11.5t22.5 42.5q0 23 -17.5 36.5t-59.5 13.5h-74v61zM310 0h-85l348 673h85zM537 100q0 38 26 61t59 32q-30 12 -51 34.5t-21 52.5q0 46 36 75.5t107 29.5q72 0 109 -25.5t37 -75.5q0 -32 -19.5 -51.5t-48.5 -26.5 q42 -20 61 -41t19 -59q0 -28 -11.5 -49t-32.5 -34.5t-50 -20.5t-63 -7q-71 0 -114 25.5t-43 79.5zM776 104q0 14 -7.5 24t-19.5 17.5t-28.5 13t-34.5 10.5q-14 -4 -27.5 -9t-24 -13t-17 -19.5t-6.5 -27.5q0 -20 21 -35t62 -15q42 0 62 14.5t20 39.5zM623 283q0 -11 7.5 -20 t19.5 -15.5t26.5 -11.5t28.5 -9q26 9 44 22t18 36q0 22 -17 34t-56 12q-34 0 -52.5 -12.5t-18.5 -35.5z" />
<glyph unicode="&#x215d;" horiz-adv-x="883" d="M338 415q0 -55 -39.5 -90.5t-118.5 -35.5q-19 0 -40 1.5t-39.5 4t-32.5 4.5t-18 3l14 59q5 -1 17.5 -2.5t28.5 -3t33 -2.5t32 -1q38 0 62.5 13t24.5 48q0 32 -20.5 44.5t-61.5 12.5q-11 0 -24.5 -1.5t-26 -3t-22.5 -3t-14 -1.5l-25 35l22 177h233v-64h-180l-10 -83 q3 1 20 3t45 2q69 0 104.5 -30t35.5 -86zM310 0h-85l348 673h85zM537 100q0 38 26 61t59 32q-30 12 -51 34.5t-21 52.5q0 46 36 75.5t107 29.5q72 0 109 -25.5t37 -75.5q0 -32 -19.5 -51.5t-48.5 -26.5q42 -20 61 -41t19 -59q0 -28 -11.5 -49t-32.5 -34.5t-50 -20.5t-63 -7 q-71 0 -114 25.5t-43 79.5zM776 104q0 14 -7.5 24t-19.5 17.5t-28.5 13t-34.5 10.5q-14 -4 -27.5 -9t-24 -13t-17 -19.5t-6.5 -27.5q0 -20 21 -35t62 -15q42 0 62 14.5t20 39.5zM623 283q0 -11 7.5 -20t19.5 -15.5t26.5 -11.5t28.5 -9q26 9 44 22t18 36q0 22 -17 34t-56 12 q-34 0 -52.5 -12.5t-18.5 -35.5z" />
<glyph unicode="&#x215e;" horiz-adv-x="883" d="M19 673h278l6 -49l-148 -329h-78l145 312h-203v66zM250 0h-85l348 673h85zM502 100q0 38 26 61t59 32q-30 12 -51 34.5t-21 52.5q0 46 36 75.5t107 29.5q72 0 109 -25.5t37 -75.5q0 -32 -19.5 -51.5t-48.5 -26.5q42 -20 61 -41t19 -59q0 -28 -11.5 -49t-32.5 -34.5 t-50 -20.5t-63 -7q-71 0 -114 25.5t-43 79.5zM741 104q0 14 -7.5 24t-19.5 17.5t-28.5 13t-34.5 10.5q-14 -4 -27.5 -9t-24 -13t-17 -19.5t-6.5 -27.5q0 -20 21 -35t62 -15q42 0 62 14.5t20 39.5zM588 283q0 -11 7.5 -20t19.5 -15.5t26.5 -11.5t28.5 -9q26 9 44 22t18 36 q0 22 -17 34t-56 12q-34 0 -52.5 -12.5t-18.5 -35.5z" />
<glyph unicode="&#x2202;" horiz-adv-x="576" d="M34 172q0 54 17 98.5t48.5 76.5t76.5 49.5t102 17.5q33 0 60.5 -5t47 -12t31 -13t14.5 -7q1 11 1.5 21t0.5 19q0 53 -12 87t-33.5 54t-51.5 28t-66 8q-53 0 -88 -7t-39 -8l16 73q5 2 37 11.5t92 9.5q106 0 168.5 -60.5t62.5 -182.5q0 -104 -19 -186t-55.5 -139t-90 -87 t-123.5 -30q-96 0 -146.5 44.5t-50.5 139.5zM121 176q0 -60 29.5 -87.5t87.5 -27.5q34 0 62 9.5t51 36t40.5 74t29.5 123.5q-14 10 -51 24t-86 14q-78 0 -120.5 -40.5t-42.5 -125.5z" />
<glyph unicode="&#x2206;" horiz-adv-x="610" d="M257 673h97l239 -673h-576zM133 76h335l-165 480z" />
<glyph unicode="&#x220f;" horiz-adv-x="662" d="M579 -87h-93v679h-310v-679h-93v760h496v-760z" />
<glyph unicode="&#x2211;" horiz-adv-x="587" d="M71 596v77h475v-82h-363l226 -273l-257 -324h410l-12 -81h-499v76l254 321z" />
<glyph unicode="&#x2212;" horiz-adv-x="576" d="M77 366h422v-77h-422v77z" />
<glyph unicode="&#x2215;" horiz-adv-x="129" d="M-67 0h-85l348 673h85z" />
<glyph unicode="&#x2219;" horiz-adv-x="247" d="M66 385h115v-114h-115v114z" />
<glyph unicode="&#x221a;" horiz-adv-x="603" d="M77 261l-32 65l184 100l116 -333l170 632h83l-206 -730h-97l-121 317z" />
<glyph unicode="&#x221e;" horiz-adv-x="801" d="M420 408q15 19 31 36.5t35 31.5t42.5 22.5t52.5 8.5q34 0 63 -11.5t50 -34t33 -56t12 -76.5q0 -45 -14 -78.5t-36 -55t-50.5 -32t-56.5 -10.5q-26 0 -48 5.5t-43.5 19t-43 36t-46.5 57.5q-23 -31 -42.5 -53t-40.5 -36.5t-44 -21.5t-53 -7q-32 0 -60.5 11t-50.5 33t-35 55 t-13 77q0 41 13 74t35.5 56t52.5 35.5t65 12.5q56 0 98 -32.5t80 -84.5zM228 223q39 0 68.5 27.5t59.5 69.5l6 8q-15 21 -30 41t-31.5 35.5t-35 24.5t-39.5 9q-45 0 -68.5 -31.5t-23.5 -77.5q0 -54 26 -80t68 -26zM444 330q22 -28 39 -48.5t32.5 -33.5t30.5 -19t32 -6 q42 0 65 28.5t23 77.5q0 56 -26 82.5t-65 26.5q-33 0 -59 -24t-49 -54z" />
<glyph unicode="&#x222b;" horiz-adv-x="326" d="M90 450q-6 35 -11 74t-5 63q0 72 39.5 107.5t108.5 35.5q42 0 69.5 -5t29.5 -6l-12 -70q-2 1 -21.5 3.5t-48.5 2.5q-23 0 -37.5 -6t-22.5 -16.5t-11 -24t-3 -27.5q0 -11 1 -24t3 -26.5t3.5 -25.5t3.5 -21l70 -423q6 -35 11 -74t5 -63q0 -72 -39.5 -107.5t-108.5 -35.5 q-42 0 -69.5 5t-29.5 6l12 70q2 -1 21.5 -3.5t48.5 -2.5q23 0 37.5 6t22.5 16.5t11 24t3 27.5q0 10 -1 23.5t-3 27t-4 25.5t-3 21z" />
<glyph unicode="&#x2248;" horiz-adv-x="576" d="M271 184q-22 11 -40 16.5t-40 5.5q-13 0 -24.5 -2t-23.5 -7t-24.5 -15t-26.5 -26l-51 52q36 48 72.5 66t86.5 19q32 0 56.5 -8.5t46.5 -19.5q23 -11 41 -16.5t40 -5.5q25 1 48 9t51 40l51 -51q-36 -48 -73 -66.5t-87 -19.5q-31 0 -55.5 9t-47.5 20zM271 393 q-22 11 -40 16.5t-40 5.5q-13 0 -24.5 -2t-23.5 -7t-24.5 -15t-26.5 -26l-51 52q36 48 72.5 66t86.5 19q32 0 56.5 -8.5t46.5 -19.5q23 -11 41 -16.5t40 -5.5q25 1 48 9t51 40l51 -51q-36 -48 -73 -66.5t-87 -19.5q-31 0 -55.5 9t-47.5 20z" />
<glyph unicode="&#x2260;" horiz-adv-x="576" d="M77 474h226l46 120h79l-46 -120h117v-79h-147l-50 -130h197v-79h-227l-46 -120h-79l46 120h-116v79h146l50 130h-196v79z" />
<glyph unicode="&#x2264;" horiz-adv-x="576" d="M89 378l399 171v-83l-296 -120l296 -122v-85l-399 172v67zM77 77h422v-77h-422v77z" />
<glyph unicode="&#x2265;" horiz-adv-x="576" d="M487 311l-399 -172v85l296 122l-296 120v83l399 -171v-67zM499 0h-422v77h422v-77z" />
<glyph unicode="&#x25ca;" horiz-adv-x="610" d="M67 336l197 337h83l196 -337l-196 -336h-83zM158 336l149 -259l145 259l-149 260z" />
<glyph unicode="&#xe000;" horiz-adv-x="505" d="M0 505h505v-505h-505v505z" />
<glyph unicode="&#xf001;" horiz-adv-x="566" d="M401 433h-213v-433h-88v433h-73v72h73v69q0 78 36.5 117t116.5 39q35 0 61 -4.5t28 -5.5l-11 -68q-2 0 -20 3t-43 3t-40.5 -6.5t-24.5 -18.5t-12 -29t-3 -39v-60h302v-505h-89v433zM399 690h93v-94h-93v94z" />
<glyph unicode="&#xf002;" horiz-adv-x="563" d="M401 725h89v-725h-89v725zM331 652q-2 0 -20 3t-43 3t-40.5 -6.5t-24.5 -18.5t-12 -29t-3 -39v-60h152v-72h-152v-433h-88v433h-73v72h73v69q0 78 36.5 117t116.5 39q35 0 61 -4.5t28 -5.5z" />
<glyph unicode="&#xf506;" horiz-adv-x="883" d="M29 625l151 48h50v-378h-79v303l-102 -32zM240 0h-85l348 673h85zM504 379h278l6 -49l-148 -329h-78l145 312h-203v66z" />
<glyph unicode="&#xf507;" horiz-adv-x="883" d="M223 426q-37 -20 -56.5 -35t-28.5 -29h204l-12 -67h-278v31q0 26 10 47t27 38.5t38.5 32.5t44.5 28q42 23 65 43t23 49t-20.5 39.5t-54.5 10.5q-19 0 -39 -4t-38 -9.5t-31 -10.5t-18 -7l6 66q2 1 14 6t30 10t40 9.5t45 4.5q70 0 106.5 -30t36.5 -84q0 -26 -10.5 -46.5 t-27 -38t-37 -31t-39.5 -23.5zM310 0h-85l348 673h85zM544 379h278l6 -49l-148 -329h-78l145 312h-203v66z" />
<glyph unicode="&#xf508;" horiz-adv-x="883" d="M121 517h73q42 0 58.5 13.5t16.5 33.5q0 30 -21 40.5t-58 10.5q-21 0 -41.5 -3t-37 -6.5t-27.5 -6.5t-13 -3l5 63q2 1 13 4t28.5 6.5t38.5 6.5t42 3q73 0 108.5 -27.5t35.5 -77.5q0 -61 -59 -86q65 -22 65 -86q0 -51 -39 -82t-119 -31q-27 0 -50 2t-41 4t-27.5 4t-13.5 3 l12 62q3 -1 14 -3t27 -4t34.5 -3.5t36.5 -1.5q45 0 67.5 11.5t22.5 42.5q0 23 -17.5 36.5t-59.5 13.5h-74v61zM310 0h-85l348 673h85zM554 379h278l6 -49l-148 -329h-78l145 312h-203v66z" />
<glyph unicode="&#xf509;" horiz-adv-x="883" d="M306 433h48v-55h-48v-83h-69v83h-195v52l194 243h70v-240zM237 433v153l-123 -153h123zM295 0h-85l348 673h85zM539 379h278l6 -49l-148 -329h-78l145 312h-203v66z" />
<glyph unicode="&#xf50a;" horiz-adv-x="883" d="M338 415q0 -55 -39.5 -90.5t-118.5 -35.5q-19 0 -40 1.5t-39.5 4t-32.5 4.5t-18 3l14 59q5 -1 17.5 -2.5t28.5 -3t33 -2.5t32 -1q38 0 62.5 13t24.5 48q0 32 -20.5 44.5t-61.5 12.5q-11 0 -24.5 -1.5t-26 -3t-22.5 -3t-14 -1.5l-25 35l22 177h233v-64h-180l-10 -83 q3 1 20 3t45 2q69 0 104.5 -30t35.5 -86zM295 0h-85l348 673h85zM539 379h278l6 -49l-148 -329h-78l145 312h-203v66z" />
<glyph unicode="&#xf50b;" horiz-adv-x="883" d="M322 608q-5 1 -30 5.5t-56 4.5q-41 0 -70.5 -21.5t-38.5 -74.5q5 3 30.5 10.5t60.5 7.5q37 0 62.5 -9t41.5 -25t23.5 -38t7.5 -48q0 -65 -38 -98t-110 -33q-75 0 -114 41.5t-39 140.5q0 54 13.5 93.5t37.5 65t57.5 37.5t73.5 12q19 0 37 -2t32 -4.5t23 -5t10 -2.5z M206 484q-28 0 -52 -8.5t-29 -10.5q0 -36 5.5 -59.5t16 -36.5t26 -18t34.5 -5q74 0 74 73q0 30 -16.5 47.5t-58.5 17.5zM295 0h-85l348 673h85zM539 379h278l6 -49l-148 -329h-78l145 312h-203v66z" />
<glyph unicode="&#xf50c;" horiz-adv-x="883" d="M29 625l151 48h50v-378h-79v303l-102 -32zM260 0h-85l348 673h85zM536 66q8 -2 34 -6t52 -4q40 0 70 21.5t39 74.5q-5 -3 -30.5 -10.5t-60.5 -7.5q-37 0 -62.5 9t-41.5 25t-23.5 38t-7.5 48q0 62 38 96.5t110 34.5q75 0 114 -41.5t39 -140.5q0 -54 -13.5 -93.5t-37.5 -65 t-57.5 -37.5t-73.5 -12q-19 0 -37 2t-32 4.5t-23 5t-10 2.5zM652 190q28 0 52 7.5t29 9.5q0 36 -5.5 59.5t-16 37t-26 19t-34.5 5.5q-74 0 -74 -73q0 -30 16.5 -47.5t58.5 -17.5z" />
<glyph unicode="&#xf50d;" horiz-adv-x="883" d="M223 426q-37 -20 -56.5 -35t-28.5 -29h204l-12 -67h-278v31q0 26 10 47t27 38.5t38.5 32.5t44.5 28q42 23 65 43t23 49t-20.5 39.5t-54.5 10.5q-19 0 -39 -4t-38 -9.5t-31 -10.5t-18 -7l6 66q2 1 14 6t30 10t40 9.5t45 4.5q70 0 106.5 -30t36.5 -84q0 -26 -10.5 -46.5 t-27 -38t-37 -31t-39.5 -23.5zM320 0h-85l348 673h85zM576 66q8 -2 34 -6t52 -4q40 0 70 21.5t39 74.5q-5 -3 -30.5 -10.5t-60.5 -7.5q-37 0 -62.5 9t-41.5 25t-23.5 38t-7.5 48q0 62 38 96.5t110 34.5q75 0 114 -41.5t39 -140.5q0 -54 -13.5 -93.5t-37.5 -65t-57.5 -37.5 t-73.5 -12q-19 0 -37 2t-32 4.5t-23 5t-10 2.5zM692 190q28 0 52 7.5t29 9.5q0 36 -5.5 59.5t-16 37t-26 19t-34.5 5.5q-74 0 -74 -73q0 -30 16.5 -47.5t58.5 -17.5z" />
<glyph unicode="&#xf50e;" horiz-adv-x="883" d="M306 433h48v-55h-48v-83h-69v83h-195v52l194 243h70v-240zM237 433v153l-123 -153h123zM315 0h-85l348 673h85zM571 66q8 -2 34 -6t52 -4q40 0 70 21.5t39 74.5q-5 -3 -30.5 -10.5t-60.5 -7.5q-37 0 -62.5 9t-41.5 25t-23.5 38t-7.5 48q0 62 38 96.5t110 34.5 q75 0 114 -41.5t39 -140.5q0 -54 -13.5 -93.5t-37.5 -65t-57.5 -37.5t-73.5 -12q-19 0 -37 2t-32 4.5t-23 5t-10 2.5zM687 190q28 0 52 7.5t29 9.5q0 36 -5.5 59.5t-16 37t-26 19t-34.5 5.5q-74 0 -74 -73q0 -30 16.5 -47.5t58.5 -17.5z" />
<glyph unicode="&#xf50f;" horiz-adv-x="883" d="M338 415q0 -55 -39.5 -90.5t-118.5 -35.5q-19 0 -40 1.5t-39.5 4t-32.5 4.5t-18 3l14 59q5 -1 17.5 -2.5t28.5 -3t33 -2.5t32 -1q38 0 62.5 13t24.5 48q0 32 -20.5 44.5t-61.5 12.5q-11 0 -24.5 -1.5t-26 -3t-22.5 -3t-14 -1.5l-25 35l22 177h233v-64h-180l-10 -83 q3 1 20 3t45 2q69 0 104.5 -30t35.5 -86zM315 0h-85l348 673h85zM571 66q8 -2 34 -6t52 -4q40 0 70 21.5t39 74.5q-5 -3 -30.5 -10.5t-60.5 -7.5q-37 0 -62.5 9t-41.5 25t-23.5 38t-7.5 48q0 62 38 96.5t110 34.5q75 0 114 -41.5t39 -140.5q0 -54 -13.5 -93.5t-37.5 -65 t-57.5 -37.5t-73.5 -12q-19 0 -37 2t-32 4.5t-23 5t-10 2.5zM687 190q28 0 52 7.5t29 9.5q0 36 -5.5 59.5t-16 37t-26 19t-34.5 5.5q-74 0 -74 -73q0 -30 16.5 -47.5t58.5 -17.5z" />
<glyph unicode="&#xf510;" horiz-adv-x="883" d="M19 673h278l6 -49l-148 -329h-78l145 312h-203v66zM250 0h-85l348 673h85zM536 66q8 -2 34 -6t52 -4q40 0 70 21.5t39 74.5q-5 -3 -30.5 -10.5t-60.5 -7.5q-37 0 -62.5 9t-41.5 25t-23.5 38t-7.5 48q0 62 38 96.5t110 34.5q75 0 114 -41.5t39 -140.5q0 -54 -13.5 -93.5 t-37.5 -65t-57.5 -37.5t-73.5 -12q-19 0 -37 2t-32 4.5t-23 5t-10 2.5zM652 190q28 0 52 7.5t29 9.5q0 36 -5.5 59.5t-16 37t-26 19t-34.5 5.5q-74 0 -74 -73q0 -30 16.5 -47.5t58.5 -17.5z" />
<glyph unicode="&#xf511;" horiz-adv-x="883" d="M41 394q0 38 26 61t59 32q-30 12 -51 34.5t-21 52.5q0 46 36 75.5t107 29.5q72 0 109 -25.5t37 -75.5q0 -32 -19.5 -51.5t-48.5 -26.5q42 -20 61 -41t19 -59q0 -28 -11.5 -49t-32.5 -34.5t-50 -20.5t-63 -7q-71 0 -114 25.5t-43 79.5zM280 398q0 14 -7.5 24t-19.5 17.5 t-28.5 13t-34.5 10.5q-14 -4 -27.5 -9t-24 -13t-17 -19.5t-6.5 -27.5q0 -20 21 -35t62 -15q42 0 62 14.5t20 39.5zM127 577q0 -11 7.5 -20t19.5 -15.5t26.5 -11.5t28.5 -9q26 9 44 22t18 36q0 22 -17 34t-56 12q-34 0 -52.5 -12.5t-18.5 -35.5zM315 0h-85l348 673h85z M571 66q8 -2 34 -6t52 -4q40 0 70 21.5t39 74.5q-5 -3 -30.5 -10.5t-60.5 -7.5q-37 0 -62.5 9t-41.5 25t-23.5 38t-7.5 48q0 62 38 96.5t110 34.5q75 0 114 -41.5t39 -140.5q0 -54 -13.5 -93.5t-37.5 -65t-57.5 -37.5t-73.5 -12q-19 0 -37 2t-32 4.5t-23 5t-10 2.5zM687 190 q28 0 52 7.5t29 9.5q0 36 -5.5 59.5t-16 37t-26 19t-34.5 5.5q-74 0 -74 -73q0 -30 16.5 -47.5t58.5 -17.5z" />
<glyph unicode="&#xf800;" horiz-adv-x="576" d="M288 673q59 0 104 -17t75 -57t45.5 -105.5t15.5 -162.5t-15.5 -163t-45.5 -106t-75 -57t-104 -17t-104 17t-75 57t-45.5 106t-15.5 163t15.5 162.5t45.5 105.5t75 57t104 17zM288 63q38 0 65.5 12t45 42.5t25.5 82t8 131.5q0 79 -8 130.5t-25.5 81.5t-45 42t-65.5 12 q-39 0 -66 -12t-44.5 -42t-25.5 -81.5t-8 -130.5q0 -80 8 -131.5t25.5 -82t44.5 -42.5t66 -12z" />
<glyph unicode="&#xf801;" horiz-adv-x="436" d="M18 574l224 83h64v-657h-94v561l-172 -62z" />
<glyph unicode="&#xf802;" horiz-adv-x="522" d="M34 53q0 52 19.5 92.5t50 73t67.5 58.5t72 49q27 18 50.5 32.5t41.5 31.5t28 38.5t10 51.5q0 33 -10.5 54t-29.5 33.5t-44.5 17.5t-55.5 5t-61.5 -7t-58.5 -16t-45.5 -16.5t-20.5 -8.5l6 83q3 2 20.5 9.5t44 16t60 15.5t70.5 7q106 0 161.5 -50.5t55.5 -142.5 q0 -43 -15 -74t-39 -55.5t-54.5 -45t-61.5 -41.5q-27 -18 -55 -36t-51 -39t-39 -46.5t-20 -58.5h339l-13 -84h-422v53z" />
<glyph unicode="&#xf803;" horiz-adv-x="537" d="M132 377h102q76 0 107.5 31.5t31.5 81.5q0 29 -10.5 48.5t-29.5 31.5t-46 17t-59 5q-27 0 -57 -3.5t-55.5 -8t-43.5 -8.5t-20 -5l6 75q4 1 21 6.5t42 10.5t55.5 9.5t60.5 4.5q114 0 169 -46.5t55 -129.5q0 -64 -29 -100t-78 -56q55 -15 85 -57t30 -105 q0 -86 -60.5 -138.5t-184.5 -52.5q-30 0 -62 3t-59.5 6.5t-46.5 6.5t-22 4l13 77q2 -1 19.5 -3.5t43 -5.5t54.5 -5.5t54 -2.5q37 0 66.5 6t50.5 19.5t32 36t11 56.5q0 51 -32.5 83t-110.5 32h-103v76z" />
<glyph unicode="&#xf804;" horiz-adv-x="570" d="M453 237h77v-71h-77v-166h-86v166h-325v71l322 420h89v-420zM367 237v310l-242 -310h242z" />
<glyph unicode="&#xf805;" horiz-adv-x="521" d="M465 201q0 -46 -15 -85t-45 -67.5t-76 -44.5t-107 -16q-31 0 -62.5 2.5t-58.5 6t-45.5 6.5t-24.5 5l14 74q5 -1 22.5 -3t41.5 -4.5t52 -4.5t54 -2q72 0 116 30t44 100q0 36 -10.5 60t-30.5 39t-48.5 21.5t-63.5 6.5q-17 0 -38 -2t-40.5 -5t-34.5 -5.5l-21 -3.5l-31 48 l24 300h358v-82h-289l-13 -188q5 2 37 7.5t74 5.5q103 0 160 -52t57 -147z" />
<glyph unicode="&#xf806;" horiz-adv-x="557" d="M343 594q-39 0 -72.5 -9.5t-59 -33.5t-41.5 -66t-22 -106q3 2 16 8t33 12.5t46.5 11.5t56.5 5q60 0 101 -16.5t66.5 -44.5t36.5 -65.5t11 -79.5q0 -111 -57.5 -166.5t-166.5 -55.5q-57 0 -101 17.5t-73 55.5t-44 99.5t-15 150.5q0 94 20.5 162t57.5 112.5t88.5 66 t113.5 21.5q30 0 55.5 -3t44.5 -7t30.5 -7t13.5 -4l-14 -73q-4 1 -38 8t-87 7zM289 342q-24 0 -48.5 -5.5t-44.5 -12t-33.5 -13t-16.5 -7.5q0 -76 10 -123t28.5 -73.5t45.5 -36t61 -9.5q68 0 102 35t34 112q0 64 -30 98.5t-108 34.5z" />
<glyph unicode="&#xf807;" horiz-adv-x="518" d="M38 657h421l9 -68l-237 -589h-92l236 573h-337v84z" />
<glyph unicode="&#xf808;" horiz-adv-x="576" d="M50 165q0 37 11.5 65.5t30.5 49.5t44 36t52 27q-22 10 -43 24t-37 33t-26 43t-10 54q0 38 13.5 70.5t40.5 56t67 36.5t94 13q108 0 163 -43.5t55 -124.5q0 -31 -8 -54.5t-22 -41.5t-34.5 -31.5t-45.5 -25.5q27 -11 51 -26t42 -36t28.5 -49.5t10.5 -65.5 q0 -47 -17.5 -82.5t-49.5 -58.5t-76 -34.5t-96 -11.5q-53 0 -97 11t-75.5 32.5t-48.5 55t-17 78.5zM438 173q0 32 -13 53t-35.5 36t-52.5 26t-63 22q-25 -8 -49.5 -18.5t-43.5 -25.5t-31 -36.5t-12 -51.5q0 -58 37 -89t112 -31q151 0 151 115zM156 503q0 -28 13.5 -47 t35.5 -32.5t48 -23t52 -17.5q25 9 47 19.5t38 25t25 33t9 43.5q0 54 -36 78t-101 24q-63 0 -97 -26t-34 -77z" />
<glyph unicode="&#xf809;" horiz-adv-x="557" d="M215 67q39 0 72.5 9t59 33t42 65.5t21.5 106.5q-3 -2 -15.5 -8t-32.5 -12.5t-46 -11.5t-56 -5q-60 0 -101.5 16t-67 44t-36.5 65.5t-11 80.5q0 111 57.5 167t166.5 56q57 0 100.5 -17.5t73 -56t44.5 -100.5t15 -150q0 -94 -20.5 -162t-57.5 -112.5t-88.5 -65.5 t-113.5 -21q-30 0 -56 3t-45 6.5t-30.5 6.5t-13.5 4l15 74q4 -1 37.5 -8t86.5 -7zM270 318q24 0 48.5 5.5t44.5 12t33.5 12.5t15.5 8q0 76 -10 123.5t-28.5 74t-45 36t-60.5 9.5q-69 0 -102.5 -35.5t-33.5 -112.5q0 -63 30 -98t108 -35z" />
<glyph unicode="&#xf80a;" d="M193 769q34 0 62.5 -10t49 -33t31.5 -60t11 -91t-11 -91.5t-31.5 -60.5t-49 -33.5t-62.5 -10.5q-35 0 -63 10.5t-48 33.5t-31 60.5t-11 91.5t11 91t31 60t48 33t63 10zM193 441q39 0 56.5 28.5t17.5 105.5t-17 105t-57 28q-38 0 -55.5 -28t-17.5 -105t17.5 -105.5 t55.5 -28.5z" />
<glyph unicode="&#xf80b;" d="M58 715l151 48h50v-378h-79v303l-102 -32z" />
<glyph unicode="&#xf80c;" d="M213 516q-37 -20 -56.5 -35t-28.5 -29h204l-12 -67h-278v31q0 26 10 47t27 38.5t38.5 32.5t44.5 28q42 23 65 43t23 49t-20.5 39.5t-54.5 10.5q-19 0 -39 -4t-38 -9.5t-31 -10.5t-18 -7l6 66q2 1 14 6t30 10t40 9.5t45 4.5q70 0 106.5 -30t36.5 -84q0 -26 -10.5 -46.5 t-27 -38t-37 -31t-39.5 -23.5z" />
<glyph unicode="&#xf80d;" d="M101 607h73q42 0 58.5 13.5t16.5 33.5q0 30 -21 40.5t-58 10.5q-21 0 -41.5 -3t-37 -6.5t-27.5 -6.5t-13 -3l5 63q2 1 13 4t28.5 6.5t38.5 6.5t42 3q73 0 108.5 -27.5t35.5 -77.5q0 -61 -59 -86q65 -22 65 -86q0 -51 -39 -82t-119 -31q-27 0 -50 2t-41 4t-27.5 4t-13.5 3 l12 62q3 -1 14 -3t27 -4t34.5 -3.5t36.5 -1.5q45 0 67.5 11.5t22.5 42.5q0 23 -17.5 36.5t-59.5 13.5h-74v61z" />
<glyph unicode="&#xf80e;" d="M301 523h48v-55h-48v-83h-69v83h-195v52l194 243h70v-240zM232 523v153l-123 -153h123z" />
<glyph unicode="&#xf80f;" d="M333 505q0 -55 -39.5 -90.5t-118.5 -35.5q-19 0 -40 1.5t-39.5 4t-32.5 4.5t-18 3l14 59q5 -1 17.5 -2.5t28.5 -3t33 -2.5t32 -1q38 0 62.5 13t24.5 48q0 32 -20.5 44.5t-61.5 12.5q-11 0 -24.5 -1.5t-26 -3t-22.5 -3t-14 -1.5l-25 35l22 177h233v-64h-180l-10 -83 q3 1 20 3t45 2q69 0 104.5 -30t35.5 -86z" />
<glyph unicode="&#xf810;" d="M317 698q-5 1 -30 5.5t-56 4.5q-41 0 -70.5 -21.5t-38.5 -74.5q5 3 30.5 10.5t60.5 7.5q37 0 62.5 -9t41.5 -25t23.5 -38t7.5 -48q0 -65 -38 -98t-110 -33q-75 0 -114 41.5t-39 140.5q0 54 13.5 93.5t37.5 65t57.5 37.5t73.5 12q19 0 37 -2t32 -4.5t23 -5t10 -2.5z M201 574q-28 0 -52 -8.5t-29 -10.5q0 -36 5.5 -59.5t16 -36.5t26 -18t34.5 -5q74 0 74 73q0 30 -16.5 47.5t-58.5 17.5z" />
<glyph unicode="&#xf811;" d="M38 763h278l6 -49l-148 -329h-78l145 312h-203v66z" />
<glyph unicode="&#xf812;" d="M36 484q0 38 26 61t59 32q-30 12 -51 34.5t-21 52.5q0 46 36 75.5t107 29.5q72 0 109 -25.5t37 -75.5q0 -32 -19.5 -51.5t-48.5 -26.5q42 -20 61 -41t19 -59q0 -28 -11.5 -49t-32.5 -34.5t-50 -20.5t-63 -7q-71 0 -114 25.5t-43 79.5zM275 488q0 14 -7.5 24t-19.5 17.5 t-28.5 13t-34.5 10.5q-14 -4 -27.5 -9t-24 -13t-17 -19.5t-6.5 -27.5q0 -20 21 -35t62 -15q42 0 62 14.5t20 39.5zM122 667q0 -11 7.5 -20t19.5 -15.5t26.5 -11.5t28.5 -9q26 9 44 22t18 36q0 22 -17 34t-56 12q-34 0 -52.5 -12.5t-18.5 -35.5z" />
<glyph unicode="&#xf813;" d="M70 450q8 -2 34 -6t52 -4q40 0 70 21.5t39 74.5q-5 -3 -30.5 -10.5t-60.5 -7.5q-37 0 -62.5 9t-41.5 25t-23.5 38t-7.5 48q0 62 38 96.5t110 34.5q75 0 114 -41.5t39 -140.5q0 -54 -13.5 -93.5t-37.5 -65t-57.5 -37.5t-73.5 -12q-19 0 -37 2t-32 4.5t-23 5t-10 2.5z M186 574q28 0 52 7.5t29 9.5q0 36 -5.5 59.5t-16 37t-26 19t-34.5 5.5q-74 0 -74 -73q0 -30 16.5 -47.5t58.5 -17.5z" />
<glyph unicode="&#xf814;" d="M193 295q34 0 62.5 -10t49 -33t31.5 -60t11 -91t-11 -91.5t-31.5 -60.5t-49 -33.5t-62.5 -10.5q-35 0 -63 10.5t-48 33.5t-31 60.5t-11 91.5t11 91t31 60t48 33t63 10zM193 -33q39 0 56.5 28.5t17.5 105.5t-17 105t-57 28q-38 0 -55.5 -28t-17.5 -105t17.5 -105.5 t55.5 -28.5z" />
<glyph unicode="&#xf815;" d="M58 241l151 48h50v-378h-79v303l-102 -32z" />
<glyph unicode="&#xf816;" d="M213 42q-37 -20 -56.5 -35t-28.5 -29h204l-12 -67h-278v31q0 26 10 47t27 38.5t38.5 32.5t44.5 28q42 23 65 43t23 49t-20.5 39.5t-54.5 10.5q-19 0 -39 -4t-38 -9.5t-31 -10.5t-18 -7l6 66q2 1 14 6t30 10t40 9.5t45 4.5q70 0 106.5 -30t36.5 -84q0 -26 -10.5 -46.5 t-27 -38t-37 -31t-39.5 -23.5z" />
<glyph unicode="&#xf817;" d="M101 133h73q42 0 58.5 13.5t16.5 33.5q0 30 -21 40.5t-58 10.5q-21 0 -41.5 -3t-37 -6.5t-27.5 -6.5t-13 -3l5 63q2 1 13 4t28.5 6.5t38.5 6.5t42 3q73 0 108.5 -27.5t35.5 -77.5q0 -61 -59 -86q65 -22 65 -86q0 -51 -39 -82t-119 -31q-27 0 -50 2t-41 4t-27.5 4t-13.5 3 l12 62q3 -1 14 -3t27 -4t34.5 -3.5t36.5 -1.5q45 0 67.5 11.5t22.5 42.5q0 23 -17.5 36.5t-59.5 13.5h-74v61z" />
<glyph unicode="&#xf818;" d="M301 49h48v-55h-48v-83h-69v83h-195v52l194 243h70v-240zM232 49v153l-123 -153h123z" />
<glyph unicode="&#xf819;" d="M333 31q0 -55 -39.5 -90.5t-118.5 -35.5q-19 0 -40 1.5t-39.5 4t-32.5 4.5t-18 3l14 59q5 -1 17.5 -2.5t28.5 -3t33 -2.5t32 -1q38 0 62.5 13t24.5 48q0 32 -20.5 44.5t-61.5 12.5q-11 0 -24.5 -1.5t-26 -3t-22.5 -3t-14 -1.5l-25 35l22 177h233v-64h-180l-10 -83 q3 1 20 3t45 2q69 0 104.5 -30t35.5 -86z" />
<glyph unicode="&#xf81a;" d="M317 224q-5 1 -30 5.5t-56 4.5q-41 0 -70.5 -21.5t-38.5 -74.5q5 3 30.5 10.5t60.5 7.5q37 0 62.5 -9t41.5 -25t23.5 -38t7.5 -48q0 -65 -38 -98t-110 -33q-75 0 -114 41.5t-39 140.5q0 54 13.5 93.5t37.5 65t57.5 37.5t73.5 12q19 0 37 -2t32 -4.5t23 -5t10 -2.5z M201 100q-28 0 -52 -8.5t-29 -10.5q0 -36 5.5 -59.5t16 -36.5t26 -18t34.5 -5q74 0 74 73q0 30 -16.5 47.5t-58.5 17.5z" />
<glyph unicode="&#xf81b;" d="M38 289h278l6 -49l-148 -329h-78l145 312h-203v66z" />
<glyph unicode="&#xf81c;" d="M36 10q0 38 26 61t59 32q-30 12 -51 34.5t-21 52.5q0 46 36 75.5t107 29.5q72 0 109 -25.5t37 -75.5q0 -32 -19.5 -51.5t-48.5 -26.5q42 -20 61 -41t19 -59q0 -28 -11.5 -49t-32.5 -34.5t-50 -20.5t-63 -7q-71 0 -114 25.5t-43 79.5zM275 14q0 14 -7.5 24t-19.5 17.5 t-28.5 13t-34.5 10.5q-14 -4 -27.5 -9t-24 -13t-17 -19.5t-6.5 -27.5q0 -20 21 -35t62 -15q42 0 62 14.5t20 39.5zM122 193q0 -11 7.5 -20t19.5 -15.5t26.5 -11.5t28.5 -9q26 9 44 22t18 36q0 22 -17 34t-56 12q-34 0 -52.5 -12.5t-18.5 -35.5z" />
<glyph unicode="&#xf81d;" d="M70 -24q8 -2 34 -6t52 -4q40 0 70 21.5t39 74.5q-5 -3 -30.5 -10.5t-60.5 -7.5q-37 0 -62.5 9t-41.5 25t-23.5 38t-7.5 48q0 62 38 96.5t110 34.5q75 0 114 -41.5t39 -140.5q0 -54 -13.5 -93.5t-37.5 -65t-57.5 -37.5t-73.5 -12q-19 0 -37 2t-32 4.5t-23 5t-10 2.5z M186 100q28 0 52 7.5t29 9.5q0 36 -5.5 59.5t-16 37t-26 19t-34.5 5.5q-74 0 -74 -73q0 -30 16.5 -47.5t58.5 -17.5z" />
<glyph horiz-adv-x="241" d="M76 0v505h89v-505h-89zM71 596v100h99v-100h-99z" />
<glyph horiz-adv-x="695" d="M223 338l15 66l225 269h102l-252 -300l283 -373h-114zM83 673h93v-673h-93v673zM667 468h-93l52 205h69z" />
<glyph horiz-adv-x="762" d="M273 537v-537h-90v673h103l304 -528v528h89v-673h-97zM29 673h93l-52 -205h-69z" />
<glyph horiz-adv-x="525" d="M171 853h105l-107 -116h-81zM331 853h105l-107 -116h-81z" />
<glyph horiz-adv-x="525" d="M243 -59h103l-88 -116h-80z" />
<glyph horiz-adv-x="525" d="M333 741q-21 0 -40.5 5t-37.5 11t-34 11t-30 5q-19 0 -29 -9.5t-15 -29.5l-64 11q4 19 11.5 37t20.5 32t32.5 22.5t46.5 8.5q21 0 40 -5t36.5 -11t33 -11t30.5 -5q19 0 29 9t15 29l64 -11q-3 -19 -10.5 -36.5t-20.5 -31.5t-32 -22.5t-46 -8.5z" />
<glyph horiz-adv-x="460" d="M293 0q-14 -3 -29.5 -9.5t-29 -16.5t-22.5 -22.5t-9 -28.5q0 -19 13.5 -27.5t33.5 -8.5q23 0 39 6t23 10l24 -53q-11 -7 -37 -15.5t-68 -8.5q-48 0 -78 18t-30 62q0 25 10 42t23.5 28t26 16.5t17.5 7.5h93z" />
<glyph horiz-adv-x="460" d="M230 684q-48 0 -81 30t-33 79q0 50 32.5 80t81.5 30q48 0 80.5 -30.5t32.5 -79.5t-32.5 -79t-80.5 -30zM230 852q-26 0 -41.5 -16.5t-15.5 -42.5q0 -25 15.5 -41.5t41.5 -16.5t41.5 16.5t15.5 41.5q0 26 -15.5 42.5t-41.5 16.5z" />
<glyph horiz-adv-x="525" d="M92 853h98l72 -63l72 63h98l-116 -116h-108z" />
<glyph horiz-adv-x="525" d="M97 839h341v-76h-341v76z" />
<glyph horiz-adv-x="525" d="M107 839h100v-102h-100v102zM319 839h100v-102h-100v102z" />
<glyph horiz-adv-x="525" d="M209 845h105v-108h-105v108z" />
<glyph horiz-adv-x="525" d="M432 737h-98l-72 63l-72 -63h-98l116 116h108z" />
<glyph horiz-adv-x="525" d="M254 853h124l-133 -116h-98z" />
<glyph horiz-adv-x="525" d="M378 737h-98l-133 116h124z" />
<glyph horiz-adv-x="525" d="M263 801q38 0 55 14.5t22 45.5h75q-1 -21 -8.5 -43t-24.5 -40t-46 -29.5t-73 -11.5t-73.5 11.5t-46.5 29.5t-24.5 40t-8.5 43h75q5 -31 22.5 -45.5t55.5 -14.5z" />
<glyph horiz-adv-x="525" d="M243 -59h103l-88 -116h-80z" />
<glyph horiz-adv-x="216" d="M71 725h91l-42 -162h-67z" />
<glyph horiz-adv-x="525" d="M243 -59h103l-88 -116h-80z" />
<glyph horiz-adv-x="525" d="M281 579h-103l88 116h80z" />
<glyph horiz-adv-x="460" d="M283 0q-14 -3 -28 -9.5t-25.5 -16t-19 -22.5t-7.5 -29q0 -19 13 -27.5t34 -8.5q23 0 39 6t23 10l24 -53q-11 -7 -37 -15.5t-68 -8.5q-48 0 -78 18t-30 62q0 25 12 42t27.5 28.5t30.5 17t22 6.5h68z" />
<glyph horiz-adv-x="592" d="M83 673h93v-283l264 283h110l-288 -308l315 -365h-121l-280 326v-326h-93v673z" />
<glyph horiz-adv-x="592" d="M83 673h93v-283l264 283h110l-288 -308l315 -365h-121l-280 326v-326h-93v673zM272 -59h103l-88 -116h-80z" />
<glyph horiz-adv-x="673" d="M83 673h93v-283l264 283h110l-288 -308l315 -365h-121l-280 326v-326h-93v673zM645 468h-93l52 205h69z" />
<glyph horiz-adv-x="562" d="M267 278q-37 0 -59.5 1t-33.5 2v-281h-91v673h234q55 0 94 -14.5t63.5 -40.5t36 -62t11.5 -79q0 -98 -64 -148.5t-191 -50.5zM174 357q14 -1 33.5 -2t48.5 -1q39 0 70.5 5.5t54 19.5t35 37t12.5 59q0 59 -29 89.5t-105 30.5h-120v-238z" />
<glyph horiz-adv-x="585" d="M257 293h-82v-293h-91v673h230q108 0 158.5 -47.5t50.5 -142.5q0 -42 -11.5 -73t-33.5 -52.5t-52.5 -35t-69.5 -20.5l201 -302h-112zM175 368h96q44 0 74.5 6t49 20t26.5 35.5t8 53.5q0 58 -32 86t-115 28h-107v-229z" />
<glyph horiz-adv-x="585" d="M257 293h-82v-293h-91v673h230q108 0 158.5 -47.5t50.5 -142.5q0 -42 -11.5 -73t-33.5 -52.5t-52.5 -35t-69.5 -20.5l201 -302h-112zM175 368h96q44 0 74.5 6t49 20t26.5 35.5t8 53.5q0 58 -32 86t-115 28h-107v-229zM347 853h124l-133 -116h-98z" />
<glyph horiz-adv-x="585" d="M257 293h-82v-293h-91v673h230q108 0 158.5 -47.5t50.5 -142.5q0 -42 -11.5 -73t-33.5 -52.5t-52.5 -35t-69.5 -20.5l201 -302h-112zM175 368h96q44 0 74.5 6t49 20t26.5 35.5t8 53.5q0 58 -32 86t-115 28h-107v-229zM266 -59h103l-88 -116h-80z" />
<glyph horiz-adv-x="585" d="M257 293h-82v-293h-91v673h230q108 0 158.5 -47.5t50.5 -142.5q0 -42 -11.5 -73t-33.5 -52.5t-52.5 -35t-69.5 -20.5l201 -302h-112zM175 368h96q44 0 74.5 6t49 20t26.5 35.5t8 53.5q0 58 -32 86t-115 28h-107v-229zM119 853h98l72 -63l72 63h98l-116 -116h-108z" />
<glyph horiz-adv-x="564" d="M83 0v673h93v-141h143q55 0 94 -14.5t63.5 -40.5t36 -62t11.5 -79q0 -98 -64 -148.5t-191 -50.5q-37 0 -59.5 1t-33.5 2v-140h-93zM176 216q14 -1 33.5 -2t48.5 -1q39 0 70.5 5.5t54 19.5t35 37t12.5 59q0 59 -29 89.5t-105 30.5h-120v-238z" />
<glyph horiz-adv-x="652" d="M592 399v-72h-60v-321q-3 -1 -20.5 -4.5t-46.5 -7t-67.5 -6.5t-82.5 -3q-128 0 -189 55t-61 148q0 64 29 110.5t84 62.5q-17 8 -33.5 20t-30.5 30t-22.5 42.5t-8.5 57.5q0 177 214 177q32 0 62 -3t54 -7.5t39.5 -8.5t19.5 -5l-13 -70q-2 0 -15.5 3t-35 6.5t-50.5 6 t-63 2.5q-60 0 -92 -24.5t-32 -77.5q0 -54 30.5 -82.5t103.5 -28.5h287zM444 327h-149q-38 0 -64 -11t-43 -30t-24.5 -43.5t-7.5 -52.5q0 -68 41.5 -98t128.5 -30q20 0 40 1t36.5 2.5t28 3t13.5 1.5v257z" />
<glyph horiz-adv-x="525" d="M419 767h-96l-62 41l-62 -41h-96l113 86h90z" />
</font>
</defs>
</svg>
